AcariSans-ExtraLight.ufo
<glyph name="exclam" format="2">
  <advance width="644"/>
  <unicode hex="0021"/>
  <outline>
    <contour>
      <point x="363" y="370" type="line"/>
      <point x="392" y="1469" type="line"/>
      <point x="252" y="1469" type="line"/>
      <point x="280" y="370" type="line"/>
    </contour>
    <contour>
      <point x="405" y="0" type="line"/>
      <point x="405" y="164" type="line"/>
      <point x="238" y="164" type="line"/>
      <point x="238" y="0" type="line"/>
    </contour>
  </outline>
</glyph>
<glyph name="quotedbl" format="2">
  <advance width="910"/>
  <unicode hex="0022"/>
  <outline>
    <contour>
      <point x="361" y="1062" type="line"/>
      <point x="361" y="1447" type="line"/>
      <point x="258" y="1447" type="line"/>
      <point x="258" y="1062" type="line"/>
    </contour>
    <contour>
      <point x="652" y="1062" type="line"/>
      <point x="652" y="1447" type="line"/>
      <point x="545" y="1447" type="line"/>
      <point x="545" y="1062" type="line"/>
    </contour>
  </outline>
</glyph>
<glyph name="numbersign" format="2">
  <advance width="1398"/>
  <unicode hex="0023"/>
  <outline>
    <contour>
      <point x="820" y="0" type="line"/>
      <point x="916" y="469" type="line"/>
      <point x="1191" y="469" type="line"/>
      <point x="1191" y="547" type="line"/>
      <point x="933" y="547" type="line"/>
      <point x="1010" y="923" type="line"/>
      <point x="1275" y="923" type="line"/>
      <point x="1275" y="1007" type="line"/>
      <point x="1026" y="1007" type="line"/>
      <point x="1119" y="1468" type="line"/>
      <point x="1031" y="1468" type="line"/>
      <point x="937" y="1020" type="line"/>
      <point x="573" y="1020" type="line"/>
      <point x="671" y="1468" type="line"/>
      <point x="581" y="1468" type="line"/>
      <point x="485" y="1002" type="line"/>
      <point x="209" y="1002" type="line"/>
      <point x="209" y="923" type="line"/>
      <point x="467" y="923" type="line"/>
      <point x="393" y="547" type="line"/>
      <point x="125" y="547" type="line"/>
      <point x="125" y="461" type="line"/>
      <point x="375" y="461" type="line"/>
      <point x="282" y="0" type="line"/>
      <point x="371" y="0" type="line"/>
      <point x="463" y="447" type="line"/>
      <point x="827" y="447" type="line"/>
      <point x="733" y="0" type="line"/>
    </contour>
    <contour>
      <point x="845" y="547" type="line"/>
      <point x="481" y="547" type="line"/>
      <point x="557" y="923" type="line"/>
      <point x="919" y="923" type="line"/>
    </contour>
  </outline>
</glyph>
<glyph name="dollar" format="2">
  <advance width="1229"/>
  <unicode hex="0024"/>
  <outline>
    <contour>
      <point x="149" y="366" type="line"/>
      <point x="189" y="142"/>
      <point x="354" y="3"/>
      <point x="580" y="-12" type="curve"/>
      <point x="580" y="-253" type="line"/>
      <point x="644" y="-253" type="line"/>
      <point x="644" y="-15" type="line"/>
      <point x="891" y="-2"/>
      <point x="1061" y="148"/>
      <point x="1061" y="394" type="curve" smooth="yes"/>
      <point x="1061" y="614"/>
      <point x="884" y="710"/>
      <point x="714" y="791" type="curve"/>
      <point x="656" y="818" type="line" smooth="yes"/>
      <point x="495" y="893"/>
      <point x="364" y="964"/>
      <point x="364" y="1125" type="curve" smooth="yes"/>
      <point x="364" y="1263"/>
      <point x="483" y="1362"/>
      <point x="616" y="1362" type="curve" smooth="yes"/>
      <point x="749" y="1362"/>
      <point x="851" y="1290"/>
      <point x="913" y="1180" type="curve"/>
      <point x="1001" y="1244" type="line"/>
      <point x="922" y="1386"/>
      <point x="805" y="1457"/>
      <point x="644" y="1466" type="curve"/>
      <point x="644" y="1699" type="line"/>
      <point x="580" y="1699" type="line"/>
      <point x="580" y="1465" type="line"/>
      <point x="384" y="1439"/>
      <point x="245" y="1310"/>
      <point x="245" y="1107" type="curve" smooth="yes"/>
      <point x="245" y="934"/>
      <point x="407" y="819"/>
      <point x="610" y="720" type="curve" smooth="yes"/>
      <point x="665" y="692" type="line" smooth="yes"/>
      <point x="831" y="612"/>
      <point x="943" y="545"/>
      <point x="943" y="381" type="curve" smooth="yes"/>
      <point x="943" y="186"/>
      <point x="807" y="98"/>
      <point x="629" y="98" type="curve" smooth="yes"/>
      <point x="437" y="98"/>
      <point x="285" y="206"/>
      <point x="259" y="403" type="curve"/>
    </contour>
  </outline>
</glyph>
<glyph name="percent" format="2">
  <advance width="1614"/>
  <unicode hex="0025"/>
  <outline>
    <contour>
      <point x="1235" y="-20" type="curve" smooth="yes"/>
      <point x="1372" y="-20"/>
      <point x="1467" y="106"/>
      <point x="1467" y="291" type="curve" smooth="yes"/>
      <point x="1467" y="475"/>
      <point x="1366" y="608"/>
      <point x="1230" y="608" type="curve" smooth="yes"/>
      <point x="1092" y="608"/>
      <point x="997" y="479"/>
      <point x="997" y="291" type="curve" smooth="yes"/>
      <point x="997" y="107"/>
      <point x="1094" y="-20"/>
    </contour>
    <contour>
      <point x="1234" y="45" type="curve" smooth="yes"/>
      <point x="1136" y="45"/>
      <point x="1072" y="144"/>
      <point x="1072" y="291" type="curve" smooth="yes"/>
      <point x="1072" y="436"/>
      <point x="1136" y="538"/>
      <point x="1230" y="538" type="curve" smooth="yes"/>
      <point x="1319" y="538"/>
      <point x="1387" y="433"/>
      <point x="1387" y="293" type="curve" smooth="yes"/>
      <point x="1387" y="149"/>
      <point x="1323" y="45"/>
    </contour>
    <contour>
      <point x="375" y="11" type="line"/>
      <point x="471" y="11" type="line"/>
      <point x="1225" y="1420" type="line"/>
      <point x="1128" y="1420" type="line"/>
    </contour>
    <contour>
      <point x="385" y="840" type="curve" smooth="yes"/>
      <point x="522" y="840"/>
      <point x="617" y="966"/>
      <point x="617" y="1151" type="curve" smooth="yes"/>
      <point x="617" y="1335"/>
      <point x="516" y="1468"/>
      <point x="380" y="1468" type="curve" smooth="yes"/>
      <point x="242" y="1468"/>
      <point x="147" y="1339"/>
      <point x="147" y="1151" type="curve" smooth="yes"/>
      <point x="147" y="967"/>
      <point x="244" y="840"/>
    </contour>
    <contour>
      <point x="384" y="905" type="curve" smooth="yes"/>
      <point x="286" y="905"/>
      <point x="222" y="1004"/>
      <point x="222" y="1151" type="curve" smooth="yes"/>
      <point x="222" y="1296"/>
      <point x="286" y="1398"/>
      <point x="380" y="1398" type="curve" smooth="yes"/>
      <point x="469" y="1398"/>
      <point x="537" y="1293"/>
      <point x="537" y="1153" type="curve" smooth="yes"/>
      <point x="537" y="1009"/>
      <point x="473" y="905"/>
    </contour>
  </outline>
</glyph>
<glyph name="ampersand" format="2">
  <advance width="1410"/>
  <unicode hex="0026"/>
  <outline>
    <contour>
      <point x="152" y="295" type="curve" smooth="yes"/>
      <point x="152" y="99"/>
      <point x="299" y="-20"/>
      <point x="541" y="-20" type="curve" smooth="yes"/>
      <point x="739" y="-20"/>
      <point x="887" y="52"/>
      <point x="1002" y="201" type="curve"/>
      <point x="1210" y="-46" type="line"/>
      <point x="1276" y="11" type="line"/>
      <point x="1049" y="280" type="line"/>
      <point x="1114" y="395"/>
      <point x="1155" y="532"/>
      <point x="1169" y="693" type="curve"/>
      <point x="1083" y="704" type="line"/>
      <point x="1066" y="561"/>
      <point x="1036" y="448"/>
      <point x="989" y="352" type="curve"/>
      <point x="642" y="765" type="line"/>
      <point x="862" y="912"/>
      <point x="943" y="1019"/>
      <point x="943" y="1160" type="curve" smooth="yes"/>
      <point x="943" y="1345"/>
      <point x="823" y="1468"/>
      <point x="645" y="1468" type="curve" smooth="yes"/>
      <point x="452" y="1468"/>
      <point x="317" y="1346"/>
      <point x="317" y="1167" type="curve" smooth="yes"/>
      <point x="317" y="1050"/>
      <point x="383" y="928"/>
      <point x="522" y="782" type="curve"/>
      <point x="252" y="602"/>
      <point x="152" y="471"/>
    </contour>
    <contour>
      <point x="589" y="829" type="curve"/>
      <point x="472" y="946"/>
      <point x="402" y="1071"/>
      <point x="402" y="1159" type="curve" smooth="yes"/>
      <point x="402" y="1293"/>
      <point x="494" y="1374"/>
      <point x="647" y="1374" type="curve" smooth="yes"/>
      <point x="777" y="1374"/>
      <point x="868" y="1287"/>
      <point x="868" y="1161" type="curve" smooth="yes"/>
      <point x="868" y="1049"/>
      <point x="781" y="947"/>
    </contour>
    <contour>
      <point x="238" y="301" type="curve" smooth="yes"/>
      <point x="238" y="443"/>
      <point x="329" y="558"/>
      <point x="570" y="715" type="curve"/>
      <point x="943" y="272" type="line"/>
      <point x="853" y="145"/>
      <point x="719" y="79"/>
      <point x="545" y="79" type="curve" smooth="yes"/>
      <point x="358" y="79"/>
      <point x="238" y="166"/>
    </contour>
  </outline>
</glyph>
<glyph name="quotesingle" format="2">
  <advance width="619"/>
  <unicode hex="0027"/>
  <outline>
    <contour>
      <point x="361" y="1092" type="line"/>
      <point x="361" y="1477" type="line"/>
      <point x="258" y="1477" type="line"/>
      <point x="258" y="1092" type="line"/>
    </contour>
  </outline>
</glyph>
<glyph name="parenleft" format="2">
  <advance width="447"/>
  <unicode hex="0028"/>
  <outline>
    <contour>
      <point x="128" y="724" type="curve" smooth="yes"/>
      <point x="128" y="466"/>
      <point x="228" y="147"/>
      <point x="360" y="0" type="curve"/>
      <point x="447" y="0" type="line"/>
      <point x="302" y="180"/>
      <point x="211" y="473"/>
      <point x="211" y="724" type="curve" smooth="yes"/>
      <point x="211" y="977"/>
      <point x="293" y="1242"/>
      <point x="447" y="1448" type="curve"/>
      <point x="360" y="1448" type="line"/>
      <point x="216" y="1265"/>
      <point x="128" y="975"/>
    </contour>
  </outline>
</glyph>
<glyph name="asterisk" format="2">
  <advance width="877"/>
  <unicode hex="002A"/>
  <outline>
    <contour>
      <point x="569" y="880" type="line"/>
      <point x="634" y="932" type="line"/>
      <point x="448" y="1153" type="line"/>
      <point x="716" y="1199" type="line"/>
      <point x="689" y="1286" type="line"/>
      <point x="443" y="1175" type="line"/>
      <point x="474" y="1447" type="line"/>
      <point x="399" y="1447" type="line"/>
      <point x="432" y="1175" type="line"/>
      <point x="184" y="1286" type="line"/>
      <point x="162" y="1199" type="line"/>
      <point x="428" y="1153" type="line"/>
      <point x="242" y="932" type="line"/>
      <point x="304" y="880" type="line"/>
      <point x="436" y="1130" type="line"/>
    </contour>
  </outline>
</glyph>
<glyph name="plus" format="2">
  <advance width="1303"/>
  <unicode hex="002B"/>
  <outline>
    <contour>
      <point x="692" y="109" type="line"/>
      <point x="692" y="601" type="line"/>
      <point x="1161" y="601" type="line"/>
      <point x="1161" y="682" type="line"/>
      <point x="692" y="682" type="line"/>
      <point x="692" y="1169" type="line"/>
      <point x="610" y="1169" type="line"/>
      <point x="610" y="682" type="line"/>
      <point x="142" y="682" type="line"/>
      <point x="142" y="601" type="line"/>
      <point x="610" y="601" type="line"/>
      <point x="610" y="109" type="line"/>
    </contour>
  </outline>
</glyph>
<glyph name="comma" format="2">
  <advance width="614"/>
  <unicode hex="002C"/>
  <outline>
    <contour>
      <point x="224" y="-344" type="line"/>
      <point x="469" y="266" type="line"/>
      <point x="313" y="266" type="line"/>
      <point x="165" y="-344" type="line"/>
    </contour>
  </outline>
</glyph>
<glyph name="hyphen" format="2">
  <advance width="843"/>
  <unicode hex="002D"/>
  <outline>
    <contour>
      <point x="668" y="625" type="line"/>
      <point x="668" y="707" type="line"/>
      <point x="176" y="707" type="line"/>
      <point x="176" y="625" type="line"/>
    </contour>
  </outline>
</glyph>
<glyph name="slash" format="2">
  <advance width="948"/>
  <unicode hex="002F"/>
  <outline>
    <contour>
      <point x="156" y="-441" type="line"/>
      <point x="914" y="1552" type="line"/>
      <point x="795" y="1552" type="line"/>
      <point x="34" y="-441" type="line"/>
    </contour>
  </outline>
</glyph>
<glyph name="zero" format="2">
  <advance width="1229"/>
  <unicode hex="0030"/>
  <outline>
    <contour>
      <point x="604" y="-20" type="curve" smooth="yes"/>
      <point x="971" y="-20"/>
      <point x="1123" y="424"/>
      <point x="1123" y="722" type="curve" smooth="yes"/>
      <point x="1123" y="1030"/>
      <point x="988" y="1470"/>
      <point x="607" y="1470" type="curve" smooth="yes"/>
      <point x="225" y="1470"/>
      <point x="104" y="1034"/>
      <point x="104" y="722" type="curve" smooth="yes"/>
      <point x="104" y="402"/>
      <point x="213" y="-20"/>
    </contour>
    <contour>
      <point x="606" y="79" type="curve" smooth="yes"/>
      <point x="285" y="79"/>
      <point x="215" y="470"/>
      <point x="215" y="724" type="curve" smooth="yes"/>
      <point x="215" y="960"/>
      <point x="297" y="1365"/>
      <point x="606" y="1365" type="curve" smooth="yes"/>
      <point x="914" y="1365"/>
      <point x="999" y="957"/>
      <point x="999" y="718" type="curve" smooth="yes"/>
      <point x="999" y="482"/>
      <point x="910" y="79"/>
    </contour>
  </outline>
</glyph>
<glyph name="one" format="2">
  <advance width="1229"/>
  <unicode hex="0031"/>
  <outline>
    <contour>
      <point x="638" y="0" type="line"/>
      <point x="755" y="0" type="line"/>
      <point x="755" y="1447" type="line"/>
      <point x="653" y="1447" type="line"/>
      <point x="653" y="1443" type="line" smooth="yes"/>
      <point x="653" y="1307"/>
      <point x="587" y="1234"/>
      <point x="461" y="1234" type="curve" smooth="yes"/>
      <point x="248" y="1234" type="line"/>
      <point x="248" y="1139" type="line"/>
      <point x="638" y="1139" type="line"/>
    </contour>
  </outline>
</glyph>
<glyph name="two" format="2">
  <advance width="1229"/>
  <unicode hex="0032"/>
  <outline>
    <contour>
      <point x="127" y="0" type="line"/>
      <point x="1084" y="0" type="line"/>
      <point x="1084" y="93" type="line"/>
      <point x="255" y="93" type="line"/>
      <point x="552" y="317"/>
      <point x="1013" y="655"/>
      <point x="1013" y="1061" type="curve" smooth="yes"/>
      <point x="1013" y="1313"/>
      <point x="857" y="1466"/>
      <point x="605" y="1466" type="curve" smooth="yes"/>
      <point x="334" y="1466"/>
      <point x="192" y="1265"/>
      <point x="195" y="1005" type="curve"/>
      <point x="304" y="993" type="line"/>
      <point x="303" y="1183"/>
      <point x="399" y="1364"/>
      <point x="611" y="1364" type="curve" smooth="yes"/>
      <point x="790" y="1364"/>
      <point x="891" y="1236"/>
      <point x="891" y="1061" type="curve" smooth="yes"/>
      <point x="891" y="710"/>
      <point x="433" y="315"/>
      <point x="162" y="140" type="curve" smooth="yes"/>
      <point x="127" y="117" type="line"/>
    </contour>
  </outline>
</glyph>
<glyph name="three" format="2">
  <advance width="1229"/>
  <unicode hex="0033"/>
  <outline>
    <contour>
      <point x="125" y="385" type="line"/>
      <point x="125" y="110"/>
      <point x="335" y="-20"/>
      <point x="590" y="-20" type="curve" smooth="yes"/>
      <point x="852" y="-20"/>
      <point x="1055" y="123"/>
      <point x="1055" y="402" type="curve" smooth="yes"/>
      <point x="1055" y="588"/>
      <point x="962" y="724"/>
      <point x="784" y="777" type="curve"/>
      <point x="917" y="848"/>
      <point x="977" y="963"/>
      <point x="977" y="1110" type="curve" smooth="yes"/>
      <point x="977" y="1330"/>
      <point x="797" y="1468"/>
      <point x="586" y="1468" type="curve" smooth="yes"/>
      <point x="373" y="1468"/>
      <point x="192" y="1340"/>
      <point x="192" y="1113" type="curve"/>
      <point x="293" y="1096" type="line"/>
      <point x="292" y="1261"/>
      <point x="429" y="1370"/>
      <point x="587" y="1370" type="curve" smooth="yes"/>
      <point x="747" y="1370"/>
      <point x="872" y="1250"/>
      <point x="872" y="1088" type="curve" smooth="yes"/>
      <point x="872" y="928"/>
      <point x="767" y="819"/>
      <point x="611" y="819" type="curve" smooth="yes"/>
      <point x="532" y="819" type="line"/>
      <point x="532" y="716" type="line"/>
      <point x="580" y="716" type="line" smooth="yes"/>
      <point x="777" y="716"/>
      <point x="952" y="632"/>
      <point x="952" y="396" type="curve" smooth="yes"/>
      <point x="952" y="198"/>
      <point x="778" y="74"/>
      <point x="591" y="74" type="curve" smooth="yes"/>
      <point x="402" y="74"/>
      <point x="226" y="190"/>
      <point x="226" y="398" type="curve"/>
    </contour>
  </outline>
</glyph>
<glyph name="four" format="2">
  <advance width="1229"/>
  <unicode hex="0034"/>
  <outline>
    <contour>
      <point x="89" y="413" type="line"/>
      <point x="760" y="413" type="line"/>
      <point x="760" y="0" type="line"/>
      <point x="873" y="0" type="line"/>
      <point x="873" y="413" type="line"/>
      <point x="1102" y="413" type="line"/>
      <point x="1102" y="504" type="line"/>
      <point x="873" y="504" type="line"/>
      <point x="873" y="1447" type="line"/>
      <point x="762" y="1447" type="line"/>
      <point x="89" y="477" type="line"/>
    </contour>
    <contour>
      <point x="212" y="504" type="line"/>
      <point x="760" y="1277" type="line"/>
      <point x="760" y="504" type="line"/>
    </contour>
  </outline>
</glyph>
<glyph name="five" format="2">
  <advance width="1229"/>
  <unicode hex="0035"/>
  <outline>
    <contour>
      <point x="162" y="362" type="line"/>
      <point x="217" y="124"/>
      <point x="386" y="-20"/>
      <point x="612" y="-20" type="curve" smooth="yes"/>
      <point x="873" y="-20"/>
      <point x="1075" y="191"/>
      <point x="1075" y="463" type="curve" smooth="yes"/>
      <point x="1075" y="726"/>
      <point x="892" y="923"/>
      <point x="648" y="923" type="curve" smooth="yes"/>
      <point x="505" y="923"/>
      <point x="407" y="881"/>
      <point x="331" y="790" type="curve"/>
      <point x="422" y="1351" type="line"/>
      <point x="1010" y="1351" type="line"/>
      <point x="1010" y="1447" type="line"/>
      <point x="336" y="1447" type="line"/>
      <point x="215" y="732" type="line"/>
      <point x="310" y="665" type="line"/>
      <point x="379" y="772"/>
      <point x="491" y="830"/>
      <point x="633" y="830" type="curve" smooth="yes"/>
      <point x="827" y="830"/>
      <point x="960" y="681"/>
      <point x="960" y="463" type="curve" smooth="yes"/>
      <point x="960" y="234"/>
      <point x="816" y="76"/>
      <point x="608" y="76" type="curve" smooth="yes"/>
      <point x="424" y="76"/>
      <point x="302" y="191"/>
      <point x="262" y="402" type="curve"/>
    </contour>
  </outline>
</glyph>
<glyph name="six" format="2">
  <advance width="1229"/>
  <unicode hex="0036"/>
  <outline>
    <contour>
      <point x="604" y="-20" type="curve" smooth="yes"/>
      <point x="878" y="-20"/>
      <point x="1068" y="195"/>
      <point x="1068" y="462" type="curve" smooth="yes"/>
      <point x="1068" y="724"/>
      <point x="868" y="901"/>
      <point x="616" y="901" type="curve" smooth="yes"/>
      <point x="551" y="901"/>
      <point x="481" y="887"/>
      <point x="418" y="865" type="curve"/>
      <point x="424" y="854" type="line"/>
      <point x="758" y="1447" type="line"/>
      <point x="640" y="1447" type="line"/>
      <point x="220" y="700" type="line" smooth="yes"/>
      <point x="175" y="617"/>
      <point x="156" y="540"/>
      <point x="156" y="446" type="curve" smooth="yes"/>
      <point x="156" y="198"/>
      <point x="352" y="-20"/>
    </contour>
    <contour>
      <point x="617" y="80" type="curve" smooth="yes"/>
      <point x="420" y="80"/>
      <point x="267" y="251"/>
      <point x="267" y="445" type="curve" smooth="yes"/>
      <point x="267" y="649"/>
      <point x="401" y="809"/>
      <point x="611" y="809" type="curve" smooth="yes"/>
      <point x="810" y="809"/>
      <point x="960" y="655"/>
      <point x="960" y="457" type="curve" smooth="yes"/>
      <point x="960" y="267"/>
      <point x="819" y="80"/>
    </contour>
  </outline>
</glyph>
<glyph name="seven" format="2">
  <advance width="1229"/>
  <unicode hex="0037"/>
  <outline>
    <contour>
      <point x="323" y="0" type="line"/>
      <point x="452" y="0" type="line"/>
      <point x="1069" y="1391" type="line"/>
      <point x="1069" y="1447" type="line"/>
      <point x="144" y="1447" type="line"/>
      <point x="144" y="1349" type="line"/>
      <point x="942" y="1349" type="line"/>
    </contour>
  </outline>
</glyph>
<glyph name="eight" format="2">
  <advance width="1229"/>
  <unicode hex="0038"/>
  <outline>
    <contour>
      <point x="614" y="-20" type="curve" smooth="yes"/>
      <point x="894" y="-20"/>
      <point x="1078" y="139"/>
      <point x="1078" y="384" type="curve" smooth="yes"/>
      <point x="1078" y="576"/>
      <point x="986" y="708"/>
      <point x="805" y="780" type="curve"/>
      <point x="934" y="844"/>
      <point x="1005" y="959"/>
      <point x="1005" y="1106" type="curve" smooth="yes"/>
      <point x="1005" y="1319"/>
      <point x="845" y="1468"/>
      <point x="616" y="1468" type="curve" smooth="yes"/>
      <point x="385" y="1468"/>
      <point x="222" y="1321"/>
      <point x="222" y="1112" type="curve" smooth="yes"/>
      <point x="222" y="962"/>
      <point x="291" y="848"/>
      <point x="425" y="780" type="curve"/>
      <point x="240" y="703"/>
      <point x="149" y="577"/>
      <point x="149" y="390" type="curve" smooth="yes"/>
      <point x="149" y="140"/>
      <point x="331" y="-20"/>
    </contour>
    <contour>
      <point x="622" y="808" type="curve" smooth="yes"/>
      <point x="448" y="808"/>
      <point x="337" y="923"/>
      <point x="337" y="1102" type="curve" smooth="yes"/>
      <point x="337" y="1254"/>
      <point x="459" y="1371"/>
      <point x="618" y="1371" type="curve" smooth="yes"/>
      <point x="780" y="1371"/>
      <point x="899" y="1250"/>
      <point x="899" y="1085" type="curve" smooth="yes"/>
      <point x="899" y="925"/>
      <point x="782" y="808"/>
    </contour>
    <contour>
      <point x="614" y="70" type="curve" smooth="yes"/>
      <point x="403" y="70"/>
      <point x="259" y="206"/>
      <point x="259" y="403" type="curve" smooth="yes"/>
      <point x="259" y="595"/>
      <point x="408" y="733"/>
      <point x="614" y="733" type="curve" smooth="yes"/>
      <point x="814" y="733"/>
      <point x="961" y="594"/>
      <point x="961" y="403" type="curve" smooth="yes"/>
      <point x="961" y="209"/>
      <point x="816" y="70"/>
    </contour>
  </outline>
</glyph>
<glyph name="nine" format="2">
  <advance width="1229"/>
  <unicode hex="0039"/>
  <outline>
    <contour>
      <point x="463" y="0" type="line"/>
      <point x="579" y="0" type="line"/>
      <point x="1000" y="747" type="line" smooth="yes"/>
      <point x="1046" y="830"/>
      <point x="1063" y="907"/>
      <point x="1063" y="1001" type="curve" smooth="yes"/>
      <point x="1063" y="1251"/>
      <point x="863" y="1468"/>
      <point x="610" y="1468" type="curve" smooth="yes"/>
      <point x="337" y="1468"/>
      <point x="151" y="1248"/>
      <point x="151" y="985" type="curve" smooth="yes"/>
      <point x="151" y="724"/>
      <point x="345" y="546"/>
      <point x="610" y="546" type="curve" smooth="yes"/>
      <point x="672" y="546"/>
      <point x="739" y="555"/>
      <point x="802" y="573" type="curve"/>
      <point x="796" y="595" type="line"/>
    </contour>
    <contour>
      <point x="608" y="638" type="curve" smooth="yes"/>
      <point x="409" y="638"/>
      <point x="258" y="791"/>
      <point x="258" y="989" type="curve" smooth="yes"/>
      <point x="258" y="1181"/>
      <point x="399" y="1368"/>
      <point x="602" y="1368" type="curve" smooth="yes"/>
      <point x="798" y="1368"/>
      <point x="953" y="1195"/>
      <point x="953" y="1002" type="curve" smooth="yes"/>
      <point x="953" y="800"/>
      <point x="818" y="638"/>
    </contour>
  </outline>
</glyph>
<glyph name="semicolon" format="2">
  <advance width="614"/>
  <unicode hex="003B"/>
  <outline>
    <contour>
      <point x="450" y="812" type="line"/>
      <point x="450" y="976" type="line"/>
      <point x="283" y="976" type="line"/>
      <point x="283" y="812" type="line"/>
    </contour>
    <contour>
      <point x="207" y="-344" type="line"/>
      <point x="453" y="266" type="line"/>
      <point x="296" y="266" type="line"/>
      <point x="147" y="-344" type="line"/>
    </contour>
  </outline>
</glyph>
<glyph name="less" format="2">
  <advance width="1231"/>
  <unicode hex="003C"/>
  <outline>
    <contour>
      <point x="1013" y="182" type="line"/>
      <point x="1066" y="273" type="line"/>
      <point x="319" y="690" type="line"/>
      <point x="1066" y="1106" type="line"/>
      <point x="1013" y="1197" type="line"/>
      <point x="134" y="690" type="line"/>
    </contour>
  </outline>
</glyph>
<glyph name="equal" format="2">
  <advance width="1293"/>
  <unicode hex="003D"/>
  <outline>
    <contour>
      <point x="1018" y="804" type="line"/>
      <point x="1018" y="911" type="line"/>
      <point x="274" y="911" type="line"/>
      <point x="274" y="804" type="line"/>
    </contour>
    <contour>
      <point x="1018" y="465" type="line"/>
      <point x="1018" y="569" type="line"/>
      <point x="274" y="569" type="line"/>
      <point x="274" y="465" type="line"/>
    </contour>
  </outline>
</glyph>
<glyph name="greater" format="2">
  <advance width="1231"/>
  <unicode hex="003E"/>
  <outline>
    <contour>
      <point x="217" y="182" type="line"/>
      <point x="1096" y="690" type="line"/>
      <point x="217" y="1197" type="line"/>
      <point x="165" y="1106" type="line"/>
      <point x="912" y="690" type="line"/>
      <point x="165" y="273" type="line"/>
    </contour>
  </outline>
</glyph>
<glyph name="question" format="2">
  <advance width="1058"/>
  <unicode hex="003F"/>
  <outline>
    <contour>
      <point x="574" y="366" type="line"/>
      <point x="574" y="633" type="line" smooth="yes"/>
      <point x="574" y="729"/>
      <point x="639" y="769"/>
      <point x="707" y="807" type="curve" smooth="yes"/>
      <point x="795" y="857"/>
      <point x="923" y="941"/>
      <point x="923" y="1111" type="curve" smooth="yes"/>
      <point x="923" y="1347"/>
      <point x="729" y="1468"/>
      <point x="513" y="1468" type="curve" smooth="yes"/>
      <point x="317" y="1468"/>
      <point x="116" y="1327"/>
      <point x="116" y="1121" type="curve"/>
      <point x="230" y="1121" type="line"/>
      <point x="230" y="1272"/>
      <point x="381" y="1367"/>
      <point x="521" y="1367" type="curve" smooth="yes"/>
      <point x="678" y="1367"/>
      <point x="812" y="1284"/>
      <point x="812" y="1114" type="curve" smooth="yes"/>
      <point x="812" y="973"/>
      <point x="735" y="917"/>
      <point x="656" y="871" type="curve" smooth="yes"/>
      <point x="575" y="824"/>
      <point x="468" y="763"/>
      <point x="468" y="635" type="curve" smooth="yes"/>
      <point x="468" y="366" type="line"/>
    </contour>
    <contour>
      <point x="606" y="0" type="line"/>
      <point x="606" y="164" type="line"/>
      <point x="440" y="164" type="line"/>
      <point x="440" y="0" type="line"/>
    </contour>
  </outline>
</glyph>
<glyph name="at" format="2">
  <advance width="2144"/>
  <unicode hex="0040"/>
  <outline>
    <contour>
      <point x="178" y="524" type="curve" smooth="yes"/>
      <point x="178" y="4"/>
      <point x="542" y="-357"/>
      <point x="1065" y="-357" type="curve" smooth="yes"/>
      <point x="1173" y="-357"/>
      <point x="1275" y="-340"/>
      <point x="1369" y="-306" type="curve"/>
      <point x="1323" y="-188" type="line"/>
      <point x="1246" y="-215"/>
      <point x="1158" y="-228"/>
      <point x="1067" y="-228" type="curve" smooth="yes"/>
      <point x="609" y="-228"/>
      <point x="299" y="78"/>
      <point x="299" y="528" type="curve" smooth="yes"/>
      <point x="299" y="1009"/>
      <point x="623" y="1347"/>
      <point x="1086" y="1347" type="curve" smooth="yes"/>
      <point x="1529" y="1347"/>
      <point x="1848" y="1022"/>
      <point x="1848" y="569" type="curve" smooth="yes"/>
      <point x="1848" y="266"/>
      <point x="1717" y="69"/>
      <point x="1517" y="69" type="curve" smooth="yes"/>
      <point x="1427" y="69"/>
      <point x="1366" y="142"/>
      <point x="1366" y="250" type="curve" smooth="yes"/>
      <point x="1366" y="332"/>
      <point x="1377" y="418"/>
      <point x="1404" y="535" type="curve" smooth="yes"/>
      <point x="1443" y="709" type="line" smooth="yes"/>
      <point x="1476" y="848"/>
      <point x="1496" y="932"/>
      <point x="1515" y="1002" type="curve"/>
      <point x="1385" y="1002" type="line"/>
      <point x="1365" y="893" type="line"/>
      <point x="1324" y="995"/>
      <point x="1220" y="1052"/>
      <point x="1069" y="1052" type="curve" smooth="yes"/>
      <point x="804" y="1052"/>
      <point x="578" y="772"/>
      <point x="578" y="442" type="curve" smooth="yes"/>
      <point x="578" y="220"/>
      <point x="703" y="78"/>
      <point x="896" y="78" type="curve" smooth="yes"/>
      <point x="1046" y="78"/>
      <point x="1170" y="140"/>
      <point x="1258" y="259" type="curve"/>
      <point x="1223" y="91"/>
      <point x="1343" y="-44"/>
      <point x="1522" y="-44" type="curve" smooth="yes"/>
      <point x="1790" y="-44"/>
      <point x="1971" y="207"/>
      <point x="1971" y="578" type="curve" smooth="yes"/>
      <point x="1971" y="1093"/>
      <point x="1600" y="1466"/>
      <point x="1086" y="1466" type="curve" smooth="yes"/>
      <point x="561" y="1466"/>
      <point x="178" y="1070"/>
    </contour>
    <contour>
      <point x="937" y="206" type="curve" smooth="yes"/>
      <point x="796" y="206"/>
      <point x="725" y="290"/>
      <point x="725" y="456" type="curve" smooth="yes"/>
      <point x="725" y="722"/>
      <point x="894" y="946"/>
      <point x="1097" y="946" type="curve" smooth="yes"/>
      <point x="1232" y="946"/>
      <point x="1306" y="858"/>
      <point x="1306" y="697" type="curve" smooth="yes"/>
      <point x="1306" y="430"/>
      <point x="1139" y="206"/>
    </contour>
  </outline>
</glyph>
<glyph name="A" format="2">
  <advance width="1323"/>
  <unicode hex="0041"/>
  <anchor x="666" y="1620" name="top"/>
  <anchor x="1234" y="-0" name="ogonek"/>
  <anchor x="666" y="1548" name="center"/>
  <anchor x="666" y="-150" name="bottom"/>
  <outline>
    <contour>
      <point x="89" y="0" type="line" name=".av02"/>
      <point x="216" y="0" type="line"/>
      <point x="684" y="1305" type="line"/>
      <point x="650" y="1305" type="line"/>
      <point x="1111" y="0" type="line"/>
      <point x="1234" y="0" type="line" name=".av01"/>
      <point x="710" y="1448" type="line"/>
      <point x="617" y="1448" type="line"/>
    </contour>
    <contour>
      <point x="296" y="386" type="line" name=".dv01"/>
      <point x="1029" y="386" type="line"/>
      <point x="990" y="487" type="line" name=".av03"/>
      <point x="334" y="487" type="line" name=".dv02"/>
    </contour>
  </outline>
</glyph>
<glyph name="B" format="2">
  <advance width="1262"/>
  <unicode hex="0042"/>
  <outline>
    <contour>
      <point x="232" y="0" type="line"/>
      <point x="669" y="0" type="line" smooth="yes"/>
      <point x="961" y="0"/>
      <point x="1123" y="132"/>
      <point x="1123" y="371" type="curve" smooth="yes"/>
      <point x="1123" y="592"/>
      <point x="1025" y="722"/>
      <point x="817" y="776" type="curve"/>
      <point x="820" y="746" type="line"/>
      <point x="981" y="809"/>
      <point x="1051" y="919"/>
      <point x="1051" y="1103" type="curve" smooth="yes"/>
      <point x="1051" y="1315"/>
      <point x="873" y="1448"/>
      <point x="588" y="1448" type="curve" smooth="yes"/>
      <point x="232" y="1448" type="line"/>
    </contour>
    <contour>
      <point x="344" y="786" type="line"/>
      <point x="344" y="1344" type="line"/>
      <point x="590" y="1344" type="line" smooth="yes"/>
      <point x="812" y="1344"/>
      <point x="916" y="1258"/>
      <point x="916" y="1079" type="curve" smooth="yes"/>
      <point x="916" y="896"/>
      <point x="789" y="786"/>
      <point x="578" y="786" type="curve" smooth="yes"/>
    </contour>
    <contour>
      <point x="344" y="106" type="line"/>
      <point x="344" y="677" type="line"/>
      <point x="681" y="677" type="line" smooth="yes"/>
      <point x="899" y="677"/>
      <point x="1006" y="575"/>
      <point x="1006" y="372" type="curve" smooth="yes"/>
      <point x="1006" y="195"/>
      <point x="894" y="106"/>
      <point x="673" y="106" type="curve" smooth="yes"/>
    </contour>
  </outline>
</glyph>
<glyph name="C" format="2">
  <advance width="1451"/>
  <unicode hex="0043"/>
  <anchor x="775" y="1620" name="top"/>
  <outline>
    <contour>
      <point x="776" y="-20" type="curve" smooth="yes"/>
      <point x="1036" y="-20"/>
      <point x="1235" y="118"/>
      <point x="1343" y="354" type="curve"/>
      <point x="1236" y="404" type="line"/>
      <point x="1166" y="183"/>
      <point x="992" y="92"/>
      <point x="776" y="92" type="curve" smooth="yes"/>
      <point x="401" y="92"/>
      <point x="270" y="406"/>
      <point x="270" y="734" type="curve" smooth="yes"/>
      <point x="270" y="1053"/>
      <point x="407" y="1356"/>
      <point x="772" y="1356" type="curve" smooth="yes"/>
      <point x="979" y="1356"/>
      <point x="1172" y="1271"/>
      <point x="1236" y="1048" type="curve"/>
      <point x="1341" y="1097" type="line"/>
      <point x="1229" y="1340"/>
      <point x="1038" y="1468"/>
      <point x="774" y="1468" type="curve" smooth="yes"/>
      <point x="336" y="1468"/>
      <point x="147" y="1117"/>
      <point x="147" y="724" type="curve" smooth="yes"/>
      <point x="147" y="327"/>
      <point x="335" y="-20"/>
    </contour>
  </outline>
</glyph>
<glyph name="D" format="2">
  <advance width="1442"/>
  <unicode hex="0044"/>
  <outline>
    <contour>
      <point x="232" y="0" type="line"/>
      <point x="577" y="0" type="line" smooth="yes"/>
      <point x="1034" y="0"/>
      <point x="1298" y="252"/>
      <point x="1298" y="713" type="curve" smooth="yes"/>
      <point x="1298" y="1177"/>
      <point x="1045" y="1448"/>
      <point x="579" y="1448" type="curve" smooth="yes"/>
      <point x="232" y="1448" type="line"/>
    </contour>
    <contour>
      <point x="351" y="106" type="line"/>
      <point x="351" y="1346" type="line"/>
      <point x="575" y="1346" type="line" smooth="yes"/>
      <point x="969" y="1346"/>
      <point x="1180" y="1108"/>
      <point x="1180" y="724" type="curve" smooth="yes"/>
      <point x="1180" y="342"/>
      <point x="932" y="106"/>
      <point x="552" y="106" type="curve" smooth="yes"/>
    </contour>
  </outline>
</glyph>
<glyph name="E" format="2">
  <advance width="1269"/>
  <unicode hex="0045"/>
  <anchor x="693" y="1618" name="top"/>
  <anchor x="1157" y="-0" name="ogonek"/>
  <outline>
    <contour>
      <point x="1157" y="0" type="line"/>
      <point x="1157" y="104" type="line"/>
      <point x="351" y="104" type="line"/>
      <point x="351" y="681" type="line"/>
      <point x="1032" y="681" type="line"/>
      <point x="1032" y="769" type="line"/>
      <point x="351" y="769" type="line"/>
      <point x="351" y="1353" type="line"/>
      <point x="1157" y="1353" type="line"/>
      <point x="1157" y="1448" type="line"/>
      <point x="232" y="1448" type="line"/>
      <point x="232" y="0" type="line"/>
    </contour>
  </outline>
</glyph>
<glyph name="F" format="2">
  <advance width="1210"/>
  <unicode hex="0046"/>
  <anchor x="682" y="1618" name="top"/>
  <outline>
    <contour>
      <point x="351" y="0" type="line"/>
      <point x="351" y="681" type="line"/>
      <point x="1027" y="681" type="line"/>
      <point x="1027" y="769" type="line"/>
      <point x="351" y="769" type="line"/>
      <point x="351" y="1353" type="line"/>
      <point x="1118" y="1353" type="line"/>
      <point x="1118" y="1448" type="line"/>
      <point x="232" y="1448" type="line"/>
      <point x="232" y="0" type="line"/>
    </contour>
  </outline>
</glyph>
<glyph name="G" format="2">
  <advance width="1538"/>
  <unicode hex="0047"/>
  <anchor x="788" y="1618" name="top"/>
  <outline>
    <contour>
      <point x="776" y="-20" type="curve" smooth="yes"/>
      <point x="1011" y="-20"/>
      <point x="1205" y="105"/>
      <point x="1271" y="300" type="curve"/>
      <point x="1265" y="0" type="line"/>
      <point x="1364" y="0" type="line"/>
      <point x="1364" y="708" type="line"/>
      <point x="824" y="708" type="line"/>
      <point x="824" y="620" type="line"/>
      <point x="1258" y="620" type="line"/>
      <point x="1264" y="307"/>
      <point x="1067" y="92"/>
      <point x="776" y="92" type="curve" smooth="yes"/>
      <point x="447" y="92"/>
      <point x="264" y="316"/>
      <point x="264" y="724" type="curve" smooth="yes"/>
      <point x="264" y="1126"/>
      <point x="449" y="1356"/>
      <point x="772" y="1356" type="curve" smooth="yes"/>
      <point x="970" y="1356"/>
      <point x="1139" y="1244"/>
      <point x="1232" y="1053" type="curve"/>
      <point x="1342" y="1103" type="line"/>
      <point x="1232" y="1345"/>
      <point x="1039" y="1468"/>
      <point x="774" y="1468" type="curve" smooth="yes"/>
      <point x="374" y="1468"/>
      <point x="147" y="1198"/>
      <point x="147" y="724" type="curve" smooth="yes"/>
      <point x="147" y="245"/>
      <point x="371" y="-20"/>
    </contour>
  </outline>
</glyph>
<glyph name="H" format="2">
  <advance width="1477"/>
  <unicode hex="0048"/>
  <anchor x="738" y="1618" name="top"/>
  <outline>
    <contour>
      <point x="1246" y="0" type="line"/>
      <point x="1246" y="1448" type="line"/>
      <point x="1128" y="1448" type="line"/>
      <point x="1128" y="768" type="line"/>
      <point x="350" y="768" type="line"/>
      <point x="350" y="1448" type="line"/>
      <point x="232" y="1448" type="line"/>
      <point x="232" y="0" type="line"/>
      <point x="350" y="0" type="line"/>
      <point x="350" y="680" type="line"/>
      <point x="1128" y="680" type="line"/>
      <point x="1128" y="0" type="line"/>
    </contour>
  </outline>
</glyph>
<glyph name="I" format="2">
  <advance width="568"/>
  <unicode hex="0049"/>
  <anchor x="284" y="1618" name="top"/>
  <anchor x="343" y="-0" name="ogonek"/>
  <outline>
    <contour>
      <point x="343" y="0" type="line"/>
      <point x="343" y="1448" type="line"/>
      <point x="225" y="1448" type="line"/>
      <point x="225" y="0" type="line"/>
    </contour>
  </outline>
</glyph>
<glyph name="J" format="2">
  <advance width="1140"/>
  <unicode hex="004A"/>
  <anchor x="871" y="1618" name="top"/>
  <outline>
    <contour>
      <point x="93" y="383" type="line" name=".sh01"/>
      <point x="108" y="130"/>
      <point x="272" y="-20"/>
      <point x="525" y="-20" type="curve" smooth="yes" name=".sv01"/>
      <point x="837" y="-20"/>
      <point x="929" y="244"/>
      <point x="929" y="510" type="curve" smooth="yes"/>
      <point x="929" y="1448" type="line" name=".sh02"/>
      <point x="812" y="1448" type="line" name=".ah01"/>
      <point x="812" y="479" type="line" smooth="yes"/>
      <point x="812" y="265"/>
      <point x="758" y="76"/>
      <point x="506" y="76" type="curve" smooth="yes" name=".av01"/>
      <point x="321" y="76"/>
      <point x="214" y="229"/>
      <point x="206" y="400" type="curve" name=".sh03"/>
    </contour>
  </outline>
</glyph>
<glyph name="K" format="2">
  <advance width="1474"/>
  <unicode hex="004B"/>
  <outline>
    <contour>
      <point x="1379" y="0" type="line"/>
      <point x="807" y="887" type="line"/>
      <point x="1340" y="1448" type="line"/>
      <point x="1190" y="1448" type="line"/>
      <point x="351" y="559" type="line"/>
      <point x="351" y="1448" type="line"/>
      <point x="232" y="1448" type="line"/>
      <point x="232" y="0" type="line"/>
      <point x="351" y="0" type="line"/>
      <point x="351" y="408" type="line"/>
      <point x="727" y="798" type="line"/>
      <point x="1242" y="0" type="line"/>
    </contour>
  </outline>
</glyph>
<glyph name="L" format="2">
  <advance width="1052"/>
  <unicode hex="004C"/>
  <anchor x="291" y="1618" name="top"/>
  <anchor x="815" y="770" name="center"/>
  <outline>
    <contour>
      <point x="970" y="0" type="line"/>
      <point x="970" y="104" type="line"/>
      <point x="351" y="104" type="line"/>
      <point x="351" y="1448" type="line"/>
      <point x="232" y="1448" type="line"/>
      <point x="232" y="0" type="line"/>
    </contour>
  </outline>
</glyph>
<glyph name="M" format="2">
  <advance width="1792"/>
  <unicode hex="004D"/>
  <outline>
    <contour>
      <point x="1561" y="0" type="line"/>
      <point x="1561" y="1448" type="line"/>
      <point x="1347" y="1448" type="line"/>
      <point x="880" y="192" type="line"/>
      <point x="902" y="192" type="line"/>
      <point x="446" y="1448" type="line"/>
      <point x="232" y="1448" type="line"/>
      <point x="232" y="0" type="line"/>
      <point x="354" y="0" type="line"/>
      <point x="354" y="1416" type="line"/>
      <point x="343" y="1414" type="line"/>
      <point x="825" y="126" type="line"/>
      <point x="967" y="126" type="line"/>
      <point x="1453" y="1414" type="line"/>
      <point x="1442" y="1416" type="line"/>
      <point x="1442" y="0" type="line"/>
    </contour>
  </outline>
</glyph>
<glyph name="N" format="2">
  <advance width="1439"/>
  <unicode hex="004E"/>
  <outline>
    <contour>
      <point x="1208" y="0" type="line"/>
      <point x="1208" y="1448" type="line"/>
      <point x="1087" y="1448" type="line"/>
      <point x="1087" y="48" type="line"/>
      <point x="1100" y="51" type="line"/>
      <point x="442" y="1448" type="line"/>
      <point x="232" y="1448" type="line"/>
      <point x="232" y="0" type="line"/>
      <point x="354" y="0" type="line"/>
      <point x="354" y="1401" type="line"/>
      <point x="342" y="1398" type="line"/>
      <point x="993" y="0" type="line"/>
    </contour>
  </outline>
</glyph>
<glyph name="O" format="2">
  <advance width="1575"/>
  <unicode hex="004F"/>
  <anchor x="788" y="1618" name="top"/>
  <anchor x="1546" y="1448" name="horn"/>
  <anchor x="899" y="-0" name="ogonek"/>
  <outline>
    <contour>
      <point x="788" y="-20" type="curve" smooth="yes" name=".dv01"/>
      <point x="1173" y="-20"/>
      <point x="1428" y="259"/>
      <point x="1428" y="724" type="curve" smooth="yes" name=".dh04"/>
      <point x="1428" y="1189"/>
      <point x="1173" y="1468"/>
      <point x="788" y="1468" type="curve" smooth="yes" name=".dv04"/>
      <point x="403" y="1468"/>
      <point x="147" y="1188"/>
      <point x="147" y="724" type="curve" smooth="yes" name=".dh01"/>
      <point x="147" y="260"/>
      <point x="403" y="-20"/>
    </contour>
    <contour>
      <point x="788" y="92" type="curve" smooth="yes" name=".dv02"/>
      <point x="478" y="92"/>
      <point x="264" y="319"/>
      <point x="264" y="724" type="curve" smooth="yes" name=".dh02"/>
      <point x="264" y="1126"/>
      <point x="477" y="1356"/>
      <point x="788" y="1356" type="curve" smooth="yes" name=".dv03"/>
      <point x="1098" y="1356"/>
      <point x="1310" y="1127"/>
      <point x="1310" y="724" type="curve" smooth="yes" name=".dh03"/>
      <point x="1310" y="321"/>
      <point x="1099" y="92"/>
    </contour>
  </outline>
</glyph>
<glyph name="P" format="2">
  <advance width="1170"/>
  <unicode hex="0050"/>
  <outline>
    <contour>
      <point x="232" y="0" type="line"/>
      <point x="350" y="0" type="line"/>
      <point x="350" y="677" type="line"/>
      <point x="524" y="677" type="line" smooth="yes"/>
      <point x="787" y="677"/>
      <point x="1058" y="720"/>
      <point x="1058" y="1061" type="curve" smooth="yes"/>
      <point x="1058" y="1320"/>
      <point x="859" y="1448"/>
      <point x="617" y="1448" type="curve" smooth="yes"/>
      <point x="232" y="1448" type="line"/>
    </contour>
    <contour>
      <point x="350" y="775" type="line"/>
      <point x="350" y="1349" type="line"/>
      <point x="617" y="1349" type="line" smooth="yes"/>
      <point x="791" y="1349"/>
      <point x="943" y="1261"/>
      <point x="943" y="1061" type="curve" smooth="yes"/>
      <point x="943" y="851"/>
      <point x="798" y="775"/>
      <point x="617" y="775" type="curve" smooth="yes"/>
    </contour>
  </outline>
</glyph>
<glyph name="Q" format="2">
  <advance width="1562"/>
  <unicode hex="0051"/>
  <anchor x="1546" y="1448" name="horn"/>
  <anchor x="899" y="-0" name="ogonek"/>
  <anchor x="788" y="1618" name="top"/>
  <outline>
    <component base="O"/>
    <contour>
      <point x="1106" y="164" type="line"/>
      <point x="1175" y="242" type="line"/>
      <point x="941" y="487" type="line"/>
      <point x="875" y="408" type="line"/>
    </contour>
    <contour>
      <point x="1140" y="134" type="line"/>
      <point x="1354" y="-90" type="line"/>
      <point x="1425" y="-14" type="line"/>
      <point x="1209" y="211" type="line"/>
    </contour>
  </outline>
</glyph>
<glyph name="R" format="2">
  <advance width="1230"/>
  <unicode hex="0052"/>
  <outline>
    <contour>
      <point x="232" y="0" type="line"/>
      <point x="351" y="0" type="line"/>
      <point x="351" y="663" type="line"/>
      <point x="617" y="663" type="line"/>
      <point x="983" y="0" type="line"/>
      <point x="1124" y="0" type="line"/>
      <point x="735" y="683" type="line"/>
      <point x="929" y="712"/>
      <point x="1055" y="861"/>
      <point x="1055" y="1055" type="curve" smooth="yes"/>
      <point x="1055" y="1306"/>
      <point x="858" y="1448"/>
      <point x="622" y="1448" type="curve" smooth="yes"/>
      <point x="232" y="1448" type="line"/>
    </contour>
    <contour>
      <point x="353" y="784" type="line"/>
      <point x="353" y="1346" type="line"/>
      <point x="624" y="1346" type="line" smooth="yes"/>
      <point x="799" y="1346"/>
      <point x="942" y="1244"/>
      <point x="942" y="1059" type="curve" smooth="yes"/>
      <point x="942" y="888"/>
      <point x="806" y="784"/>
      <point x="650" y="784" type="curve" smooth="yes"/>
    </contour>
  </outline>
</glyph>
<glyph name="S" format="2">
  <advance width="1127"/>
  <unicode hex="0053"/>
  <anchor x="553" y="1618" name="top"/>
  <outline>
    <contour>
      <point x="102" y="350" type="line"/>
      <point x="138" y="130"/>
      <point x="322" y="-16"/>
      <point x="580" y="-16" type="curve" smooth="yes"/>
      <point x="836" y="-16"/>
      <point x="1008" y="154"/>
      <point x="1008" y="389" type="curve" smooth="yes"/>
      <point x="1008" y="839"/>
      <point x="310" y="769"/>
      <point x="310" y="1126" type="curve" smooth="yes"/>
      <point x="310" y="1260"/>
      <point x="417" y="1370"/>
      <point x="566" y="1370" type="curve" smooth="yes"/>
      <point x="698" y="1370"/>
      <point x="806" y="1312"/>
      <point x="868" y="1199" type="curve"/>
      <point x="949" y="1256" type="line"/>
      <point x="861" y="1397"/>
      <point x="732" y="1468"/>
      <point x="566" y="1468" type="curve" smooth="yes"/>
      <point x="353" y="1468"/>
      <point x="198" y="1311"/>
      <point x="198" y="1115" type="curve" smooth="yes"/>
      <point x="198" y="712"/>
      <point x="896" y="748"/>
      <point x="896" y="384" type="curve" smooth="yes"/>
      <point x="896" y="196"/>
      <point x="788" y="88"/>
      <point x="580" y="88" type="curve" smooth="yes"/>
      <point x="379" y="88"/>
      <point x="224" y="208"/>
      <point x="205" y="385" type="curve"/>
    </contour>
  </outline>
</glyph>
<glyph name="T" format="2">
  <advance width="1290"/>
  <unicode hex="0054"/>
  <anchor x="631" y="-0" name="cedilla"/>
  <outline>
    <contour>
      <point x="584" y="0" type="line"/>
      <point x="706" y="0" type="line"/>
      <point x="706" y="1360" type="line"/>
      <point x="1210" y="1360" type="line"/>
      <point x="1210" y="1448" type="line"/>
      <point x="81" y="1448" type="line"/>
      <point x="81" y="1360" type="line"/>
      <point x="584" y="1360" type="line"/>
    </contour>
  </outline>
</glyph>
<glyph name="U" format="2">
  <advance width="1376"/>
  <unicode hex="0055"/>
  <anchor x="689" y="1618" name="top"/>
  <anchor x="817" y="-0" name="ogonek"/>
  <anchor x="1394" y="1448" name="horn"/>
  <outline>
    <contour>
      <point x="687" y="-20" type="curve" smooth="yes" name=".dv01"/>
      <point x="1009" y="-20"/>
      <point x="1172" y="228"/>
      <point x="1172" y="527" type="curve" smooth="yes"/>
      <point x="1172" y="1448" type="line" name=".av01"/>
      <point x="1056" y="1448" type="line" name=".ah01"/>
      <point x="1056" y="568" type="line" smooth="yes"/>
      <point x="1056" y="328"/>
      <point x="981" y="88"/>
      <point x="687" y="88" type="curve" smooth="yes" name=".dv02"/>
      <point x="397" y="88"/>
      <point x="324" y="324"/>
      <point x="324" y="568" type="curve" smooth="yes"/>
      <point x="324" y="1448" type="line" name=".av02"/>
      <point x="206" y="1448" type="line" name=".sh01"/>
      <point x="206" y="515" type="line" smooth="yes"/>
      <point x="206" y="215"/>
      <point x="366" y="-20"/>
    </contour>
  </outline>
</glyph>
<glyph name="V" format="2">
  <advance width="1350"/>
  <unicode hex="0056"/>
  <outline>
    <contour>
      <point x="734" y="0" type="line"/>
      <point x="1261" y="1448" type="line"/>
      <point x="1143" y="1448" type="line"/>
      <point x="677" y="125" type="line"/>
      <point x="211" y="1448" type="line"/>
      <point x="89" y="1448" type="line"/>
      <point x="619" y="0" type="line"/>
    </contour>
  </outline>
</glyph>
<glyph name="W" format="2">
  <advance width="2012"/>
  <unicode hex="0057"/>
  <anchor x="1008" y="1618" name="top"/>
  <outline>
    <contour>
      <point x="1517" y="0" type="line"/>
      <point x="1913" y="1448" type="line"/>
      <point x="1794" y="1448" type="line"/>
      <point x="1436" y="118" type="line"/>
      <point x="1055" y="1448" type="line"/>
      <point x="957" y="1448" type="line"/>
      <point x="579" y="118" type="line"/>
      <point x="216" y="1448" type="line"/>
      <point x="100" y="1448" type="line"/>
      <point x="493" y="0" type="line"/>
      <point x="645" y="0" type="line"/>
      <point x="1008" y="1252" type="line"/>
      <point x="1367" y="0" type="line"/>
    </contour>
  </outline>
</glyph>
<glyph name="X" format="2">
  <advance width="1256"/>
  <unicode hex="0058"/>
  <outline>
    <contour>
      <point x="1157" y="0" type="line"/>
      <point x="686" y="724" type="line"/>
      <point x="1155" y="1448" type="line"/>
      <point x="1023" y="1448" type="line"/>
      <point x="630" y="826" type="line"/>
      <point x="238" y="1448" type="line"/>
      <point x="99" y="1448" type="line"/>
      <point x="575" y="724" type="line"/>
      <point x="97" y="0" type="line"/>
      <point x="236" y="0" type="line"/>
      <point x="627" y="609" type="line"/>
      <point x="1025" y="0" type="line"/>
    </contour>
  </outline>
</glyph>
<glyph name="Y" format="2">
  <advance width="1349"/>
  <unicode hex="0059"/>
  <anchor x="674" y="1618" name="top"/>
  <outline>
    <contour>
      <point x="729" y="0" type="line"/>
      <point x="729" y="566" type="line"/>
      <point x="1269" y="1448" type="line"/>
      <point x="1137" y="1448" type="line"/>
      <point x="674" y="692" type="line"/>
      <point x="212" y="1448" type="line"/>
      <point x="80" y="1448" type="line"/>
      <point x="621" y="566" type="line"/>
      <point x="621" y="0" type="line"/>
    </contour>
  </outline>
</glyph>
<glyph name="Z" format="2">
  <advance width="1308"/>
  <unicode hex="005A"/>
  <anchor x="672" y="1618" name="top"/>
  <outline>
    <contour>
      <point x="1194" y="0" type="line"/>
      <point x="1194" y="107" type="line"/>
      <point x="230" y="107" type="line"/>
      <point x="1194" y="1340" type="line"/>
      <point x="1194" y="1448" type="line"/>
      <point x="149" y="1448" type="line"/>
      <point x="149" y="1353" type="line"/>
      <point x="1070" y="1353" type="line"/>
      <point x="103" y="102" type="line"/>
      <point x="103" y="0" type="line"/>
    </contour>
  </outline>
</glyph>
<glyph name="bracketleft" format="2">
  <advance width="647"/>
  <unicode hex="005B"/>
  <outline>
    <contour>
      <point x="560" y="-65" type="line"/>
      <point x="560" y="-4" type="line"/>
      <point x="318" y="-4" type="line"/>
      <point x="318" y="1451" type="line"/>
      <point x="560" y="1451" type="line"/>
      <point x="560" y="1510" type="line"/>
      <point x="223" y="1510" type="line"/>
      <point x="223" y="-65" type="line"/>
    </contour>
  </outline>
</glyph>
<glyph name="bracketright" format="2">
  <advance width="645"/>
  <unicode hex="005D"/>
  <outline>
    <contour>
      <point x="421" y="-65" type="line"/>
      <point x="421" y="1510" type="line"/>
      <point x="85" y="1510" type="line"/>
      <point x="85" y="1451" type="line"/>
      <point x="326" y="1451" type="line"/>
      <point x="326" y="-4" type="line"/>
      <point x="85" y="-4" type="line"/>
      <point x="85" y="-65" type="line"/>
    </contour>
  </outline>
</glyph>
<glyph name="asciicircum" format="2">
  <advance width="997"/>
  <unicode hex="005E"/>
  <outline>
    <contour>
      <point x="843" y="876" type="line"/>
      <point x="497" y="1430" type="line"/>
      <point x="156" y="876" type="line"/>
      <point x="279" y="876" type="line"/>
      <point x="497" y="1235" type="line"/>
      <point x="722" y="876" type="line"/>
    </contour>
  </outline>
</glyph>
<glyph name="underscore" format="2">
  <advance width="1264"/>
  <unicode hex="005F"/>
  <outline>
    <contour>
      <point x="1013" y="-86" type="line"/>
      <point x="1013" y="-4" type="line"/>
      <point x="249" y="-4" type="line"/>
      <point x="249" y="-86" type="line"/>
    </contour>
  </outline>
</glyph>
<glyph name="grave" format="2">
  <advance width="551"/>
  <unicode hex="0060"/>
  <outline>
    <contour>
      <point x="458" y="1192" type="line"/>
      <point x="241" y="1483" type="line"/>
      <point x="78" y="1483" type="line"/>
      <point x="333" y="1192" type="line"/>
    </contour>
  </outline>
</glyph>
<glyph name="a" format="2">
  <advance width="1059"/>
  <unicode hex="0061"/>
  <anchor x="903" y="-0" name="ogonek"/>
  <anchor x="509" y="1192" name="top"/>
  <anchor x="509" y="1363" name="center"/>
  <anchor x="509" y="-150" name="bottom"/>
  <outline>
    <contour>
      <point x="419" y="-20" type="curve" smooth="yes" name=".dv01"/>
      <point x="601" y="-20"/>
      <point x="738" y="68"/>
      <point x="812" y="235" type="curve" name=".sh01"/>
      <point x="809" y="0" type="line"/>
      <point x="903" y="0" type="line"/>
      <point x="903" y="656" type="line" smooth="yes" name=".dh03"/>
      <point x="903" y="913"/>
      <point x="767" y="1084"/>
      <point x="509" y="1084" type="curve" smooth="yes" name=".dv06"/>
      <point x="353" y="1084"/>
      <point x="222" y="1023"/>
      <point x="131" y="894" type="curve"/>
      <point x="206" y="829" type="line"/>
      <point x="281" y="937"/>
      <point x="392" y="992"/>
      <point x="521" y="992" type="curve" smooth="yes" name=".dv05"/>
      <point x="759" y="992"/>
      <point x="809" y="792"/>
      <point x="809" y="594" type="curve" name=".av01"/>
      <point x="577" y="594" type="line" smooth="yes" name=".dv04"/>
      <point x="364" y="594"/>
      <point x="95" y="550"/>
      <point x="95" y="281" type="curve" smooth="yes" name=".dh01"/>
      <point x="95" y="86"/>
      <point x="232" y="-20"/>
    </contour>
    <contour>
      <point x="427" y="69" type="curve" smooth="yes" name=".dv02"/>
      <point x="292" y="69"/>
      <point x="207" y="141"/>
      <point x="207" y="279" type="curve" smooth="yes" name=".dh02"/>
      <point x="207" y="504"/>
      <point x="445" y="509"/>
      <point x="612" y="509" type="curve" smooth="yes" name=".dv03"/>
      <point x="809" y="509" type="line" name=".sh02"/>
      <point x="811" y="293"/>
      <point x="657" y="69"/>
    </contour>
  </outline>
</glyph>
<glyph name="b" format="2">
  <advance width="1161"/>
  <unicode hex="0062"/>
  <outline>
    <contour>
      <point x="642" y="-20" type="curve" smooth="yes"/>
      <point x="941" y="-20"/>
      <point x="1055" y="277"/>
      <point x="1055" y="531" type="curve" smooth="yes"/>
      <point x="1055" y="783"/>
      <point x="939" y="1084"/>
      <point x="642" y="1084" type="curve" smooth="yes"/>
      <point x="493" y="1084"/>
      <point x="380" y="1021"/>
      <point x="297" y="897" type="curve"/>
      <point x="297" y="1448" type="line"/>
      <point x="194" y="1448" type="line"/>
      <point x="194" y="0" type="line"/>
      <point x="297" y="0" type="line"/>
      <point x="297" y="164" type="line"/>
      <point x="380" y="35"/>
      <point x="493" y="-20"/>
    </contour>
    <contour>
      <point x="614" y="69" type="curve" smooth="yes"/>
      <point x="365" y="69"/>
      <point x="289" y="330"/>
      <point x="289" y="531" type="curve" smooth="yes"/>
      <point x="289" y="730"/>
      <point x="366" y="992"/>
      <point x="608" y="992" type="curve" smooth="yes"/>
      <point x="859" y="992"/>
      <point x="949" y="743"/>
      <point x="949" y="531" type="curve" smooth="yes"/>
      <point x="949" y="324"/>
      <point x="860" y="69"/>
    </contour>
  </outline>
</glyph>
<glyph name="c" format="2">
  <advance width="1013"/>
  <unicode hex="0063"/>
  <anchor x="548" y="1192" name="top"/>
  <outline>
    <contour>
      <point x="553" y="-20" type="curve" smooth="yes"/>
      <point x="735" y="-20"/>
      <point x="865" y="71"/>
      <point x="930" y="243" type="curve"/>
      <point x="836" y="289" type="line"/>
      <point x="796" y="159"/>
      <point x="678" y="73"/>
      <point x="549" y="73" type="curve" smooth="yes"/>
      <point x="356" y="73"/>
      <point x="227" y="242"/>
      <point x="227" y="530" type="curve" smooth="yes"/>
      <point x="227" y="812"/>
      <point x="360" y="989"/>
      <point x="549" y="989" type="curve" smooth="yes"/>
      <point x="680" y="989"/>
      <point x="803" y="896"/>
      <point x="836" y="774" type="curve"/>
      <point x="942" y="824" type="line"/>
      <point x="868" y="989"/>
      <point x="724" y="1084"/>
      <point x="551" y="1084" type="curve" smooth="yes"/>
      <point x="287" y="1084"/>
      <point x="115" y="871"/>
      <point x="115" y="529" type="curve" smooth="yes"/>
      <point x="115" y="193"/>
      <point x="298" y="-20"/>
    </contour>
  </outline>
</glyph>
<glyph name="d" format="2">
  <advance width="1166"/>
  <unicode hex="0064"/>
  <outline>
    <component base="a.cv01" xOffset="21"/>
    <contour>
      <point x="875" y="1000" type="line"/>
      <point x="982" y="1000" type="line"/>
      <point x="982" y="1448" type="line"/>
      <point x="875" y="1448" type="line"/>
    </contour>
  </outline>
</glyph>
<glyph name="e" format="2">
  <advance width="1071"/>
  <unicode hex="0065"/>
  <anchor x="550" y="1192" name="top"/>
  <anchor x="652" y="-0" name="ogonek"/>
  <outline>
    <contour>
      <point x="558.08" y="-12.288" type="curve" smooth="yes"/>
      <point x="722.944" y="-12.288"/>
      <point x="854.016" y="37.888"/>
      <point x="949.248" y="137.216" type="curve"/>
      <point x="878.592" y="194.56" type="line"/>
      <point x="793.6" y="107.52"/>
      <point x="679.936" y="79.872"/>
      <point x="561.152" y="79.872" type="curve" smooth="yes"/>
      <point x="357.376" y="79.872"/>
      <point x="225.28" y="244.736"/>
      <point x="228.352" y="495.616" type="curve"/>
      <point x="967.68" y="495.616" type="line"/>
      <point x="970.752" y="507.904"/>
      <point x="970.752" y="520.192"/>
      <point x="970.752" y="531.456" type="curve" smooth="yes"/>
      <point x="970.752" y="909.312"/>
      <point x="834.56" y="1084.42"/>
      <point x="545.792" y="1084.42" type="curve" smooth="yes"/>
      <point x="294.912" y="1084.42"/>
      <point x="115.712" y="854.016"/>
      <point x="115.712" y="525.312" type="curve" smooth="yes"/>
      <point x="115.712" y="203.776"/>
      <point x="292.864" y="-12.288"/>
    </contour>
    <contour>
      <point x="228.352" y="595.968" type="line"/>
      <point x="235.52" y="833.536"/>
      <point x="359.424" y="983.04"/>
      <point x="545.792" y="983.04" type="curve" smooth="yes"/>
      <point x="747.52" y="983.04"/>
      <point x="878.592" y="832.512"/>
      <point x="875.52" y="595.968" type="curve"/>
    </contour>
  </outline>
</glyph>
<glyph name="f" format="2">
  <advance width="711"/>
  <unicode hex="0066"/>
  <outline>
    <contour>
      <point x="235" y="0" type="line"/>
      <point x="354" y="0" type="line"/>
      <point x="354" y="977" type="line"/>
      <point x="672" y="977" type="line"/>
      <point x="672" y="1064" type="line"/>
      <point x="354" y="1064" type="line"/>
      <point x="354" y="1230" type="line" smooth="yes"/>
      <point x="354" y="1334"/>
      <point x="403" y="1377"/>
      <point x="503" y="1377" type="curve" smooth="yes"/>
      <point x="552" y="1377"/>
      <point x="592" y="1367"/>
      <point x="627" y="1346" type="curve"/>
      <point x="663" y="1432" type="line"/>
      <point x="612" y="1455"/>
      <point x="556" y="1468"/>
      <point x="499" y="1468" type="curve" smooth="yes"/>
      <point x="356" y="1468"/>
      <point x="235" y="1395"/>
      <point x="235" y="1235" type="curve" smooth="yes"/>
      <point x="235" y="1064" type="line"/>
      <point x="41" y="1064" type="line"/>
      <point x="41" y="977" type="line"/>
      <point x="235" y="977" type="line"/>
    </contour>
  </outline>
</glyph>
<glyph name="g" format="2">
  <advance width="1063"/>
  <unicode hex="0067"/>
  <anchor x="504" y="1192" name="top"/>
  <outline>
    <contour>
      <point x="300" y="101" type="curve"/>
      <point x="133" y="-79" type="line"/>
      <point x="131" y="-91"/>
      <point x="130" y="-103"/>
      <point x="130" y="-116" type="curve" smooth="yes"/>
      <point x="130" y="-343"/>
      <point x="361" y="-465"/>
      <point x="565" y="-465" type="curve" smooth="yes"/>
      <point x="744" y="-465"/>
      <point x="966" y="-375"/>
      <point x="966" y="-164" type="curve" smooth="yes"/>
      <point x="966" y="62"/>
      <point x="757" y="102"/>
      <point x="565" y="131" type="curve" smooth="yes"/>
      <point x="402" y="155"/>
      <point x="253" y="179"/>
      <point x="253" y="317" type="curve" smooth="yes"/>
      <point x="253" y="355"/>
      <point x="276" y="391"/>
      <point x="306" y="412" type="curve"/>
      <point x="367" y="382"/>
      <point x="436" y="367"/>
      <point x="505" y="367" type="curve" smooth="yes"/>
      <point x="717" y="367"/>
      <point x="878" y="506"/>
      <point x="878" y="724" type="curve" smooth="yes"/>
      <point x="878" y="780"/>
      <point x="868" y="841"/>
      <point x="842" y="894" type="curve"/>
      <point x="1016" y="1031" type="line"/>
      <point x="955" y="1100" type="line"/>
      <point x="795" y="974" type="line"/>
      <point x="718" y="1053"/>
      <point x="616" y="1084"/>
      <point x="512" y="1084" type="curve" smooth="yes"/>
      <point x="299" y="1084"/>
      <point x="134" y="939"/>
      <point x="134" y="720" type="curve" smooth="yes"/>
      <point x="134" y="631"/>
      <point x="159" y="539"/>
      <point x="221" y="474" type="curve"/>
      <point x="175" y="433"/>
      <point x="154" y="380"/>
      <point x="154" y="318" type="curve" smooth="yes"/>
      <point x="154" y="219"/>
      <point x="210" y="145"/>
    </contour>
    <contour>
      <point x="504" y="457" type="curve" smooth="yes"/>
      <point x="344" y="457"/>
      <point x="242" y="567"/>
      <point x="242" y="727" type="curve" smooth="yes"/>
      <point x="242" y="875"/>
      <point x="355" y="998"/>
      <point x="504" y="998" type="curve" smooth="yes"/>
      <point x="654" y="998"/>
      <point x="769" y="876"/>
      <point x="769" y="727" type="curve" smooth="yes"/>
      <point x="769" y="568"/>
      <point x="662" y="457"/>
    </contour>
    <contour>
      <point x="582" y="-358" type="curve" smooth="yes"/>
      <point x="442" y="-358"/>
      <point x="235" y="-286"/>
      <point x="239" y="-117" type="curve"/>
      <point x="396" y="62" type="line"/>
      <point x="429" y="53"/>
      <point x="474" y="42"/>
      <point x="523" y="35" type="curve" smooth="yes"/>
      <point x="677" y="14"/>
      <point x="874" y="-30"/>
      <point x="874" y="-165" type="curve" smooth="yes"/>
      <point x="874" y="-307"/>
      <point x="700" y="-358"/>
    </contour>
  </outline>
</glyph>
<glyph name="i" format="2">
  <advance width="500"/>
  <unicode hex="0069"/>
  <anchor x="311" y="-0" name="ogonek"/>
  <outline>
    <contour>
      <point x="181" y="1268" type="line"/>
      <point x="319" y="1268" type="line"/>
      <point x="319" y="1448" type="line"/>
      <point x="181" y="1448" type="line"/>
    </contour>
    <contour>
      <point x="190" y="0" type="line"/>
      <point x="309" y="0" type="line"/>
      <point x="309" y="1064" type="line"/>
      <point x="190" y="1064" type="line"/>
    </contour>
  </outline>
</glyph>
<glyph name="j" format="2">
  <advance width="496"/>
  <unicode hex="006A"/>
  <outline>
    <contour>
      <point x="185" y="1268" type="line"/>
      <point x="322" y="1268" type="line"/>
      <point x="322" y="1448" type="line"/>
      <point x="185" y="1448" type="line"/>
    </contour>
    <contour>
      <point x="-65" y="-323" type="curve"/>
      <point x="-89" y="-420" type="line"/>
      <point x="-54" y="-434"/>
      <point x="22" y="-450"/>
      <point x="60" y="-450" type="curve" smooth="yes"/>
      <point x="233" y="-450"/>
      <point x="315" y="-338"/>
      <point x="315" y="-172" type="curve" smooth="yes"/>
      <point x="315" y="1064" type="line"/>
      <point x="193" y="1064" type="line"/>
      <point x="193" y="-148" type="line" smooth="yes"/>
      <point x="193" y="-236"/>
      <point x="179" y="-342"/>
      <point x="63" y="-342" type="curve" smooth="yes"/>
      <point x="17" y="-342"/>
      <point x="-24" y="-335"/>
    </contour>
  </outline>
</glyph>
<glyph name="k" format="2">
  <advance width="1066"/>
  <unicode hex="006B"/>
  <outline>
    <contour>
      <point x="192" y="0" type="line"/>
      <point x="299" y="0" type="line"/>
      <point x="299" y="310" type="line"/>
      <point x="551" y="583" type="line"/>
      <point x="886" y="0" type="line"/>
      <point x="1021" y="0" type="line"/>
      <point x="620" y="677" type="line"/>
      <point x="946" y="1064" type="line"/>
      <point x="811" y="1064" type="line"/>
      <point x="299" y="463" type="line"/>
      <point x="299" y="1448" type="line"/>
      <point x="192" y="1448" type="line"/>
    </contour>
  </outline>
</glyph>
<glyph name="l" format="2">
  <advance width="497"/>
  <unicode hex="006C"/>
  <anchor x="252" y="1618" name="top"/>
  <anchor x="596" y="770" name="center"/>
  <outline>
    <contour>
      <point x="349" y="-20" type="curve" smooth="yes"/>
      <point x="392" y="-20"/>
      <point x="432" y="-13"/>
      <point x="469" y="-1" type="curve"/>
      <point x="469" y="84" type="line"/>
      <point x="435" y="78"/>
      <point x="397" y="72"/>
      <point x="360" y="72" type="curve" smooth="yes"/>
      <point x="330" y="72"/>
      <point x="311" y="94"/>
      <point x="311" y="124" type="curve" smooth="yes"/>
      <point x="311" y="1448" type="line"/>
      <point x="192" y="1448" type="line"/>
      <point x="192" y="151" type="line" smooth="yes"/>
      <point x="192" y="34"/>
      <point x="251" y="-20"/>
    </contour>
  </outline>
</glyph>
<glyph name="m" format="2">
  <advance width="1769"/>
  <unicode hex="006D"/>
  <outline>
    <contour>
      <point x="192" y="0" type="line"/>
      <point x="301" y="0" type="line"/>
      <point x="301" y="619" type="line" smooth="yes"/>
      <point x="301" y="797"/>
      <point x="391" y="1000"/>
      <point x="597" y="1000" type="curve" smooth="yes"/>
      <point x="792" y="1000"/>
      <point x="848" y="812"/>
      <point x="848" y="649" type="curve" smooth="yes"/>
      <point x="848" y="0" type="line"/>
      <point x="957" y="0" type="line"/>
      <point x="957" y="619" type="line" smooth="yes"/>
      <point x="957" y="793"/>
      <point x="1047" y="1000"/>
      <point x="1249" y="1000" type="curve" smooth="yes"/>
      <point x="1447" y="1000"/>
      <point x="1503" y="811"/>
      <point x="1503" y="645" type="curve" smooth="yes"/>
      <point x="1503" y="0" type="line"/>
      <point x="1612" y="0" type="line"/>
      <point x="1612" y="651" type="line" smooth="yes"/>
      <point x="1612" y="883"/>
      <point x="1514" y="1082"/>
      <point x="1256" y="1082" type="curve" smooth="yes"/>
      <point x="1091" y="1082"/>
      <point x="993" y="989"/>
      <point x="936" y="843" type="curve"/>
      <point x="888" y="1008"/>
      <point x="769" y="1084"/>
      <point x="602" y="1084" type="curve" smooth="yes"/>
      <point x="445" y="1084"/>
      <point x="340" y="984"/>
      <point x="301" y="839" type="curve"/>
      <point x="301" y="1064" type="line"/>
      <point x="192" y="1064" type="line"/>
    </contour>
  </outline>
</glyph>
<glyph name="n" format="2">
  <advance width="1152"/>
  <unicode hex="006E"/>
  <anchor x="584" y="1192" name="top"/>
  <outline>
    <contour>
      <point x="192" y="0" type="line"/>
      <point x="297" y="0" type="line" name=".av02"/>
      <point x="297" y="628" type="line" smooth="yes"/>
      <point x="297" y="815"/>
      <point x="457" y="979"/>
      <point x="638" y="979" type="curve" smooth="yes"/>
      <point x="801" y="979"/>
      <point x="890" y="862"/>
      <point x="890" y="647" type="curve" smooth="yes"/>
      <point x="890" y="0" type="line"/>
      <point x="997" y="0" type="line" name=".av03"/>
      <point x="997" y="653" type="line" smooth="yes"/>
      <point x="997" y="929"/>
      <point x="869" y="1084"/>
      <point x="644" y="1084" type="curve" smooth="yes"/>
      <point x="502" y="1084"/>
      <point x="369" y="1007"/>
      <point x="297" y="878" type="curve"/>
      <point x="297" y="1064" type="line"/>
      <point x="192" y="1064" type="line"/>
    </contour>
  </outline>
</glyph>
<glyph name="o" format="2">
  <advance width="1160"/>
  <unicode hex="006F"/>
  <anchor x="579" y="1192" name="top"/>
  <anchor x="1227" y="1064" name="horn"/>
  <anchor x="677" y="-0" name="ogonek"/>
  <outline>
    <contour>
      <point x="579" y="-20" type="curve" smooth="yes" name=".dv01"/>
      <point x="883" y="-20"/>
      <point x="1062" y="189"/>
      <point x="1062" y="532" type="curve" smooth="yes" name=".sh01"/>
      <point x="1062" y="870"/>
      <point x="873" y="1084"/>
      <point x="579" y="1084" type="curve" smooth="yes" name=".dv04"/>
      <point x="284" y="1084"/>
      <point x="98" y="871"/>
      <point x="98" y="532" type="curve" smooth="yes" name=".sh02"/>
      <point x="98" y="193"/>
      <point x="287" y="-20"/>
    </contour>
    <contour>
      <point x="579" y="81" type="curve" smooth="yes" name=".dv02"/>
      <point x="376" y="81"/>
      <point x="220" y="265"/>
      <point x="220" y="532" type="curve" smooth="yes" name=".sh03"/>
      <point x="220" y="803"/>
      <point x="370" y="983"/>
      <point x="579" y="983" type="curve" smooth="yes" name=".dv03"/>
      <point x="792" y="983"/>
      <point x="939" y="808"/>
      <point x="939" y="532" type="curve" smooth="yes" name=".ah01"/>
      <point x="939" y="254"/>
      <point x="797" y="81"/>
    </contour>
  </outline>
</glyph>
<glyph name="p" format="2">
  <advance width="1166"/>
  <unicode hex="0070"/>
  <outline>
    <contour>
      <point x="194" y="-450" type="line"/>
      <point x="301" y="-450" type="line"/>
      <point x="301" y="164" type="line"/>
      <point x="382" y="40"/>
      <point x="493" y="-20"/>
      <point x="645" y="-20" type="curve" smooth="yes"/>
      <point x="889" y="-20"/>
      <point x="1058" y="204"/>
      <point x="1058" y="531" type="curve" smooth="yes"/>
      <point x="1058" y="855"/>
      <point x="887" y="1084"/>
      <point x="645" y="1084" type="curve" smooth="yes"/>
      <point x="491" y="1084"/>
      <point x="380" y="1024"/>
      <point x="301" y="899" type="curve"/>
      <point x="301" y="1064" type="line"/>
      <point x="194" y="1064" type="line"/>
    </contour>
    <contour>
      <point x="615" y="69" type="curve" smooth="yes"/>
      <point x="422" y="69"/>
      <point x="289" y="257"/>
      <point x="289" y="532" type="curve" smooth="yes"/>
      <point x="289" y="801"/>
      <point x="424" y="991"/>
      <point x="615" y="991" type="curve" smooth="yes"/>
      <point x="819" y="991"/>
      <point x="951" y="810"/>
      <point x="951" y="532" type="curve" smooth="yes"/>
      <point x="951" y="251"/>
      <point x="820" y="69"/>
    </contour>
  </outline>
</glyph>
<glyph name="q" format="2">
  <advance width="1169"/>
  <unicode hex="0071"/>
  <outline>
    <contour>
      <point x="985" y="-450" type="line"/>
      <point x="985" y="1064" type="line"/>
      <point x="875" y="1064" type="line"/>
      <point x="875" y="900" type="line"/>
      <point x="793" y="1023"/>
      <point x="681" y="1084"/>
      <point x="532" y="1084" type="curve" smooth="yes"/>
      <point x="286" y="1084"/>
      <point x="119" y="860"/>
      <point x="119" y="531" type="curve" smooth="yes"/>
      <point x="119" y="211"/>
      <point x="289" y="-20"/>
      <point x="523" y="-20" type="curve" smooth="yes"/>
      <point x="683" y="-20"/>
      <point x="788" y="35"/>
      <point x="875" y="164" type="curve"/>
      <point x="875" y="-450" type="line"/>
    </contour>
    <contour>
      <point x="557" y="69" type="curve" smooth="yes"/>
      <point x="361" y="69"/>
      <point x="229" y="254"/>
      <point x="229" y="532" type="curve" smooth="yes"/>
      <point x="229" y="807"/>
      <point x="359" y="991"/>
      <point x="557" y="991" type="curve" smooth="yes"/>
      <point x="754" y="991"/>
      <point x="886" y="807"/>
      <point x="886" y="532" type="curve" smooth="yes"/>
      <point x="886" y="251"/>
      <point x="756" y="69"/>
    </contour>
  </outline>
</glyph>
<glyph name="r" format="2">
  <advance width="826"/>
  <unicode hex="0072"/>
  <outline>
    <contour>
      <point x="192" y="0" type="line"/>
      <point x="305" y="0" type="line"/>
      <point x="305" y="442" type="line" smooth="yes"/>
      <point x="305" y="634"/>
      <point x="360" y="997"/>
      <point x="616" y="997" type="curve" smooth="yes"/>
      <point x="668" y="997"/>
      <point x="721" y="979"/>
      <point x="765" y="944" type="curve"/>
      <point x="791" y="1047" type="line"/>
      <point x="742" y="1071"/>
      <point x="688" y="1084"/>
      <point x="633" y="1084" type="curve" smooth="yes"/>
      <point x="484" y="1084"/>
      <point x="340" y="989"/>
      <point x="308" y="839" type="curve"/>
      <point x="308" y="1064" type="line"/>
      <point x="192" y="1064" type="line"/>
    </contour>
  </outline>
</glyph>
<glyph name="s" format="2">
  <advance width="892"/>
  <unicode hex="0073"/>
  <outline>
    <contour>
      <point x="95" y="221" type="line"/>
      <point x="146" y="78"/>
      <point x="299" y="-20"/>
      <point x="495" y="-20" type="curve" smooth="yes"/>
      <point x="678" y="-20"/>
      <point x="806" y="117"/>
      <point x="806" y="277" type="curve"/>
      <point x="806" y="408"/>
      <point x="726" y="503"/>
      <point x="567" y="557" type="curve" smooth="yes"/>
      <point x="459" y="595" type="line" smooth="yes"/>
      <point x="297" y="650"/>
      <point x="237" y="699"/>
      <point x="237" y="799" type="curve" smooth="yes"/>
      <point x="237" y="903"/>
      <point x="302" y="973"/>
      <point x="429" y="973" type="curve" smooth="yes"/>
      <point x="538" y="973"/>
      <point x="622" y="926"/>
      <point x="669" y="833" type="curve"/>
      <point x="760" y="889" type="line"/>
      <point x="690" y="1020"/>
      <point x="577" y="1084"/>
      <point x="418" y="1084" type="curve" smooth="yes"/>
      <point x="252" y="1084"/>
      <point x="124" y="960"/>
      <point x="124" y="804" type="curve" smooth="yes"/>
      <point x="124" y="651"/>
      <point x="206" y="563"/>
      <point x="428" y="488" type="curve" smooth="yes"/>
      <point x="540" y="450" type="line" smooth="yes"/>
      <point x="638" y="416"/>
      <point x="694" y="349"/>
      <point x="694" y="269" type="curve" smooth="yes"/>
      <point x="694" y="166"/>
      <point x="590" y="81"/>
      <point x="484" y="81" type="curve" smooth="yes"/>
      <point x="344" y="81"/>
      <point x="227" y="170"/>
      <point x="191" y="287" type="curve"/>
    </contour>
  </outline>
</glyph>
<glyph name="t" format="2">
  <advance width="670"/>
  <unicode hex="0074"/>
  <anchor x="404" y="-0" name="cedilla"/>
  <outline>
    <contour>
      <point x="448" y="-20" type="curve" smooth="yes"/>
      <point x="487" y="-20"/>
      <point x="526" y="-20"/>
      <point x="568" y="-5" type="curve"/>
      <point x="568" y="81" type="line"/>
      <point x="539" y="68"/>
      <point x="512" y="61"/>
      <point x="481" y="61" type="curve" smooth="yes"/>
      <point x="371" y="61"/>
      <point x="336" y="161"/>
      <point x="336" y="253" type="curve" smooth="yes"/>
      <point x="336" y="977" type="line"/>
      <point x="607" y="977" type="line"/>
      <point x="607" y="1064" type="line"/>
      <point x="336" y="1064" type="line"/>
      <point x="336" y="1368" type="line"/>
      <point x="222" y="1260" type="line"/>
      <point x="222" y="1064" type="line"/>
      <point x="57" y="1064" type="line"/>
      <point x="57" y="977" type="line"/>
      <point x="223" y="977" type="line"/>
      <point x="223" y="278" type="line" smooth="yes"/>
      <point x="223" y="117"/>
      <point x="258" y="-20"/>
    </contour>
  </outline>
</glyph>
<glyph name="u" format="2">
  <advance width="1147"/>
  <unicode hex="0075"/>
  <anchor x="569" y="1192" name="top"/>
  <anchor x="968" y="-0" name="ogonek"/>
  <anchor x="1187" y="1064" name="horn"/>
  <outline>
    <contour>
      <point x="518" y="-19" type="curve" smooth="yes" name=".dv01"/>
      <point x="666" y="-19"/>
      <point x="816" y="76"/>
      <point x="865" y="215" type="curve"/>
      <point x="865" y="0" type="line" name=".ah01"/>
      <point x="968" y="0" type="line" name=".sh01"/>
      <point x="968" y="1064" type="line" name=".av01"/>
      <point x="865" y="1064" type="line" name=".sh02"/>
      <point x="865" y="436" type="line" smooth="yes"/>
      <point x="865" y="257"/>
      <point x="701" y="64"/>
      <point x="518" y="64" type="curve" smooth="yes" name=".dv02"/>
      <point x="320" y="64"/>
      <point x="273" y="256"/>
      <point x="273" y="418" type="curve" smooth="yes"/>
      <point x="273" y="1064" type="line" name=".av02"/>
      <point x="167" y="1064" type="line" name=".sh03"/>
      <point x="167" y="435" type="line" smooth="yes"/>
      <point x="167" y="204"/>
      <point x="253" y="-19"/>
    </contour>
  </outline>
</glyph>
<glyph name="v" format="2">
  <advance width="984"/>
  <unicode hex="0076"/>
  <outline>
    <contour>
      <point x="550" y="0" type="line"/>
      <point x="929" y="1064" type="line"/>
      <point x="811" y="1064" type="line"/>
      <point x="496" y="144" type="line"/>
      <point x="185" y="1064" type="line"/>
      <point x="61" y="1064" type="line"/>
      <point x="443" y="0" type="line"/>
    </contour>
  </outline>
</glyph>
<glyph name="w" format="2">
  <advance width="1489"/>
  <unicode hex="0077"/>
  <anchor x="752" y="1192" name="top"/>
  <outline>
    <contour>
      <point x="477" y="0" type="line"/>
      <point x="752" y="918" type="line"/>
      <point x="1017" y="0" type="line"/>
      <point x="1136" y="0" type="line"/>
      <point x="1423" y="1064" type="line"/>
      <point x="1301" y="1064" type="line"/>
      <point x="1068" y="148" type="line"/>
      <point x="804" y="1064" type="line"/>
      <point x="694" y="1064" type="line"/>
      <point x="427" y="146" type="line"/>
      <point x="192" y="1064" type="line"/>
      <point x="72" y="1064" type="line"/>
      <point x="358" y="0" type="line"/>
    </contour>
  </outline>
</glyph>
<glyph name="x" format="2">
  <advance width="927"/>
  <unicode hex="0078"/>
  <outline>
    <contour>
      <point x="744" y="0" type="line"/>
      <point x="876" y="0" type="line"/>
      <point x="524" y="543" type="line"/>
      <point x="489" y="613" type="line"/>
      <point x="207" y="1064" type="line"/>
      <point x="68" y="1064" type="line"/>
      <point x="424" y="537" type="line"/>
      <point x="467" y="447" type="line"/>
    </contour>
    <contour>
      <point x="68" y="0" type="line"/>
      <point x="207" y="0" type="line"/>
      <point x="493" y="459" type="line"/>
      <point x="441" y="562" type="line"/>
    </contour>
    <contour>
      <point x="459" y="610" type="line"/>
      <point x="513" y="509" type="line"/>
      <point x="881" y="1064" type="line"/>
      <point x="745" y="1064" type="line"/>
    </contour>
  </outline>
</glyph>
<glyph name="y" format="2">
  <advance width="1011"/>
  <unicode hex="0079"/>
  <anchor x="516" y="1192" name="top"/>
  <outline>
    <contour>
      <point x="405" y="-441" type="line"/>
      <point x="960" y="1064" type="line"/>
      <point x="833" y="1064" type="line"/>
      <point x="516" y="145" type="line"/>
      <point x="186" y="1064" type="line"/>
      <point x="58" y="1064" type="line"/>
      <point x="466" y="5" type="line"/>
      <point x="290" y="-441" type="line"/>
    </contour>
  </outline>
</glyph>
<glyph name="z" format="2">
  <advance width="952"/>
  <unicode hex="007A"/>
  <outline>
    <contour>
      <point x="871" y="0" type="line"/>
      <point x="871" y="95" type="line"/>
      <point x="202" y="95" type="line"/>
      <point x="871" y="956" type="line"/>
      <point x="871" y="1064" type="line"/>
      <point x="108" y="1064" type="line"/>
      <point x="108" y="971" type="line"/>
      <point x="753" y="971" type="line"/>
      <point x="79" y="97" type="line"/>
      <point x="79" y="0" type="line"/>
    </contour>
  </outline>
</glyph>
<glyph name="braceleft" format="2">
  <advance width="606"/>
  <unicode hex="007B"/>
  <outline>
    <contour>
      <point x="236" y="91" type="line" smooth="yes"/>
      <point x="236" y="-47"/>
      <point x="301" y="-113"/>
      <point x="443" y="-113" type="curve" smooth="yes"/>
      <point x="520" y="-113" type="line"/>
      <point x="520" y="-57" type="line"/>
      <point x="497" y="-57" type="line" smooth="yes"/>
      <point x="394" y="-57"/>
      <point x="342" y="-5"/>
      <point x="342" y="108" type="curve" smooth="yes"/>
      <point x="342" y="484" type="line" smooth="yes"/>
      <point x="342" y="570"/>
      <point x="299" y="611"/>
      <point x="178" y="654" type="curve"/>
      <point x="298" y="682"/>
      <point x="342" y="762"/>
      <point x="342" y="850" type="curve" smooth="yes"/>
      <point x="342" y="1348" type="line" smooth="yes"/>
      <point x="342" y="1424"/>
      <point x="382" y="1456"/>
      <point x="476" y="1456" type="curve" smooth="yes"/>
      <point x="520" y="1456" type="line"/>
      <point x="520" y="1511" type="line"/>
      <point x="443" y="1511" type="line" smooth="yes"/>
      <point x="300" y="1511"/>
      <point x="236" y="1447"/>
      <point x="236" y="1309" type="curve" smooth="yes"/>
      <point x="236" y="870" type="line" smooth="yes"/>
      <point x="236" y="780"/>
      <point x="188" y="722"/>
      <point x="102" y="706" type="curve"/>
      <point x="102" y="609" type="line"/>
      <point x="188" y="577"/>
      <point x="236" y="526"/>
      <point x="236" y="469" type="curve" smooth="yes"/>
    </contour>
  </outline>
</glyph>
<glyph name="asciitilde" format="2">
  <advance width="1192"/>
  <unicode hex="007E"/>
  <outline>
    <contour>
      <point x="233" y="417" type="curve"/>
      <point x="300" y="417" type="line"/>
      <point x="300" y="497"/>
      <point x="319" y="597"/>
      <point x="416" y="597" type="curve" smooth="yes"/>
      <point x="545" y="597"/>
      <point x="592" y="385"/>
      <point x="755" y="385" type="curve" smooth="yes"/>
      <point x="912" y="385"/>
      <point x="962" y="524"/>
      <point x="962" y="658" type="curve"/>
      <point x="885" y="658" type="line"/>
      <point x="885" y="574"/>
      <point x="871" y="458"/>
      <point x="764" y="458" type="curve" smooth="yes"/>
      <point x="636" y="458"/>
      <point x="607" y="665"/>
      <point x="415" y="665" type="curve" smooth="yes"/>
      <point x="283" y="665"/>
      <point x="233" y="528"/>
    </contour>
  </outline>
</glyph>
<glyph name="exclamdown" format="2">
  <advance width="642"/>
  <unicode hex="00A1"/>
  <outline>
    <contour>
      <point x="403" y="859" type="line"/>
      <point x="403" y="1022" type="line"/>
      <point x="236" y="1022" type="line"/>
      <point x="236" y="859" type="line"/>
    </contour>
    <contour>
      <point x="390" y="-448" type="line"/>
      <point x="361" y="653" type="line"/>
      <point x="278" y="653" type="line"/>
      <point x="250" y="-448" type="line"/>
    </contour>
  </outline>
</glyph>
<glyph name="cent" format="2">
  <advance width="1229"/>
  <unicode hex="00A2"/>
  <outline>
    <contour>
      <point x="690" y="-211" type="line"/>
      <point x="690" y="-16" type="line"/>
      <point x="852" y="-2"/>
      <point x="958" y="81"/>
      <point x="1020" y="236" type="curve"/>
      <point x="915" y="282" type="line"/>
      <point x="879" y="173"/>
      <point x="771" y="96"/>
      <point x="654" y="96" type="curve" smooth="yes"/>
      <point x="468" y="96"/>
      <point x="349" y="257"/>
      <point x="349" y="509" type="curve" smooth="yes"/>
      <point x="349" y="757"/>
      <point x="471" y="921"/>
      <point x="654" y="921" type="curve" smooth="yes"/>
      <point x="770" y="921"/>
      <point x="883" y="841"/>
      <point x="915" y="736" type="curve"/>
      <point x="1032" y="786" type="line"/>
      <point x="969" y="927"/>
      <point x="850" y="1012"/>
      <point x="690" y="1034" type="curve"/>
      <point x="690" y="1228" type="line"/>
      <point x="611" y="1228" type="line"/>
      <point x="611" y="1034" type="line"/>
      <point x="375" y="1009"/>
      <point x="222" y="802"/>
      <point x="222" y="509" type="curve" smooth="yes"/>
      <point x="222" y="214"/>
      <point x="379" y="2"/>
      <point x="611" y="-14" type="curve"/>
      <point x="611" y="-211" type="line"/>
    </contour>
  </outline>
</glyph>
<glyph name="sterling" format="2">
  <advance width="1229"/>
  <unicode hex="00A3"/>
  <outline>
    <contour>
      <point x="148" y="0" type="line"/>
      <point x="1178" y="0" type="line"/>
      <point x="1178" y="102" type="line"/>
      <point x="307" y="102" type="line"/>
      <point x="446" y="228"/>
      <point x="499" y="328"/>
      <point x="499" y="475" type="curve" smooth="yes"/>
      <point x="499" y="540"/>
      <point x="491" y="607"/>
      <point x="473" y="668" type="curve"/>
      <point x="928" y="668" type="line"/>
      <point x="928" y="769" type="line"/>
      <point x="444" y="769" type="line"/>
      <point x="418" y="827"/>
      <point x="391" y="968"/>
      <point x="391" y="1033" type="curve" smooth="yes"/>
      <point x="391" y="1211"/>
      <point x="491" y="1361"/>
      <point x="679" y="1361" type="curve" smooth="yes"/>
      <point x="814" y="1361"/>
      <point x="903" y="1261"/>
      <point x="946" y="1147" type="curve"/>
      <point x="1042" y="1183" type="line"/>
      <point x="983" y="1344"/>
      <point x="846" y="1461"/>
      <point x="673" y="1461" type="curve" smooth="yes"/>
      <point x="429" y="1461"/>
      <point x="289" y="1259"/>
      <point x="289" y="1030" type="curve" smooth="yes"/>
      <point x="289" y="977"/>
      <point x="316" y="814"/>
      <point x="345" y="769" type="curve"/>
      <point x="151" y="769" type="line"/>
      <point x="151" y="668" type="line"/>
      <point x="370" y="668" type="line"/>
      <point x="385" y="605"/>
      <point x="399" y="539"/>
      <point x="399" y="467" type="curve" smooth="yes"/>
      <point x="399" y="361"/>
      <point x="286" y="187"/>
      <point x="148" y="75" type="curve"/>
    </contour>
  </outline>
</glyph>
<glyph name="currency" format="2">
  <advance width="1229"/>
  <unicode hex="00A4"/>
  <outline>
    <contour>
      <point x="166" y="649" type="curve" smooth="yes"/>
      <point x="166" y="546"/>
      <point x="199" y="455"/>
      <point x="262" y="374" type="curve"/>
      <point x="157" y="269" type="line"/>
      <point x="233" y="188" type="line"/>
      <point x="336" y="295" type="line"/>
      <point x="416" y="232"/>
      <point x="508" y="199"/>
      <point x="613" y="199" type="curve" smooth="yes"/>
      <point x="717" y="199"/>
      <point x="806" y="232"/>
      <point x="887" y="295" type="curve"/>
      <point x="993" y="188" type="line"/>
      <point x="1068" y="269" type="line"/>
      <point x="966" y="372" type="line"/>
      <point x="1029" y="451"/>
      <point x="1061" y="542"/>
      <point x="1061" y="646" type="curve" smooth="yes"/>
      <point x="1061" y="747"/>
      <point x="1029" y="838"/>
      <point x="966" y="920" type="curve"/>
      <point x="1068" y="1023" type="line"/>
      <point x="991" y="1100" type="line"/>
      <point x="887" y="997" type="line"/>
      <point x="808" y="1059"/>
      <point x="718" y="1093"/>
      <point x="617" y="1093" type="curve" smooth="yes"/>
      <point x="513" y="1093"/>
      <point x="420" y="1060"/>
      <point x="338" y="994" type="curve"/>
      <point x="235" y="1102" type="line"/>
      <point x="159" y="1019" type="line"/>
      <point x="262" y="916" type="line"/>
      <point x="199" y="838"/>
      <point x="166" y="749"/>
    </contour>
    <contour>
      <point x="273" y="642" type="curve" smooth="yes"/>
      <point x="273" y="827"/>
      <point x="428" y="982"/>
      <point x="614" y="982" type="curve" smooth="yes"/>
      <point x="796" y="982"/>
      <point x="950" y="826"/>
      <point x="950" y="644" type="curve" smooth="yes"/>
      <point x="950" y="459"/>
      <point x="798" y="306"/>
      <point x="612" y="306" type="curve" smooth="yes"/>
      <point x="425" y="306"/>
      <point x="273" y="456"/>
    </contour>
  </outline>
</glyph>
<glyph name="yen" format="2">
  <advance width="1229"/>
  <unicode hex="00A5"/>
  <outline>
    <contour>
      <point x="672" y="0" type="line"/>
      <point x="672" y="350" type="line"/>
      <point x="981" y="350" type="line"/>
      <point x="981" y="436" type="line"/>
      <point x="672" y="436" type="line"/>
      <point x="672" y="561" type="line"/>
      <point x="981" y="561" type="line"/>
      <point x="981" y="649" type="line"/>
      <point x="713" y="649" type="line"/>
      <point x="1201" y="1447" type="line"/>
      <point x="1071" y="1447" type="line"/>
      <point x="616" y="712" type="line"/>
      <point x="160" y="1447" type="line"/>
      <point x="28" y="1447" type="line"/>
      <point x="516" y="646" type="line"/>
      <point x="251" y="646" type="line"/>
      <point x="251" y="561" type="line"/>
      <point x="557" y="561" type="line"/>
      <point x="557" y="436" type="line"/>
      <point x="251" y="436" type="line"/>
      <point x="251" y="350" type="line"/>
      <point x="557" y="350" type="line"/>
      <point x="557" y="0" type="line"/>
    </contour>
  </outline>
</glyph>
<glyph name="brokenbar" format="2">
  <advance width="624"/>
  <unicode hex="00A6"/>
  <outline>
    <contour>
      <point x="344" y="750" type="line"/>
      <point x="344" y="1510" type="line"/>
      <point x="278" y="1510" type="line"/>
      <point x="278" y="750" type="line"/>
    </contour>
    <contour>
      <point x="344" y="-315" type="line"/>
      <point x="344" y="428" type="line"/>
      <point x="278" y="428" type="line"/>
      <point x="278" y="-315" type="line"/>
    </contour>
  </outline>
</glyph>
<glyph name="section" format="2">
  <advance width="1132"/>
  <unicode hex="00A7"/>
  <outline>
    <contour>
      <point x="209" y="228" type="line"/>
      <point x="264" y="69"/>
      <point x="404" y="-18"/>
      <point x="588" y="-18" type="curve" smooth="yes"/>
      <point x="791" y="-18"/>
      <point x="920" y="97"/>
      <point x="920" y="275" type="curve" smooth="yes"/>
      <point x="920" y="375"/>
      <point x="877" y="449"/>
      <point x="788" y="500" type="curve"/>
      <point x="788" y="467" type="line"/>
      <point x="877" y="521"/>
      <point x="920" y="602"/>
      <point x="920" y="705" type="curve" smooth="yes"/>
      <point x="920" y="862"/>
      <point x="832" y="942"/>
      <point x="600" y="992" type="curve" smooth="yes"/>
      <point x="567" y="999" type="line" smooth="yes"/>
      <point x="441" y="1025"/>
      <point x="303" y="1045"/>
      <point x="303" y="1166" type="curve" smooth="yes"/>
      <point x="303" y="1281"/>
      <point x="429" y="1373"/>
      <point x="566" y="1373" type="curve" smooth="yes"/>
      <point x="701" y="1373"/>
      <point x="815" y="1317"/>
      <point x="865" y="1224" type="curve"/>
      <point x="932" y="1287" type="line"/>
      <point x="868" y="1402"/>
      <point x="736" y="1468"/>
      <point x="573" y="1468" type="curve" smooth="yes"/>
      <point x="379" y="1468"/>
      <point x="204" y="1338"/>
      <point x="204" y="1168" type="curve" smooth="yes"/>
      <point x="204" y="1077"/>
      <point x="251" y="1001"/>
      <point x="342" y="957" type="curve"/>
      <point x="337" y="987" type="line"/>
      <point x="253" y="933"/>
      <point x="202" y="842"/>
      <point x="202" y="744" type="curve" smooth="yes"/>
      <point x="202" y="586"/>
      <point x="296" y="511"/>
      <point x="562" y="454" type="curve"/>
      <point x="594" y="445" type="line"/>
      <point x="755" y="410"/>
      <point x="818" y="354"/>
      <point x="818" y="247" type="curve" smooth="yes"/>
      <point x="818" y="139"/>
      <point x="735" y="79"/>
      <point x="586" y="79" type="curve" smooth="yes"/>
      <point x="447" y="79"/>
      <point x="346" y="147"/>
      <point x="301" y="276" type="curve"/>
    </contour>
    <contour>
      <point x="307" y="745" type="curve" smooth="yes"/>
      <point x="307" y="843"/>
      <point x="368" y="917"/>
      <point x="473" y="947" type="curve"/>
      <point x="419" y="944" type="line"/>
      <point x="442" y="934"/>
      <point x="474" y="925"/>
      <point x="536" y="914" type="curve"/>
      <point x="570" y="909" type="line" smooth="yes"/>
      <point x="735" y="881"/>
      <point x="818" y="817"/>
      <point x="818" y="715" type="curve" smooth="yes"/>
      <point x="818" y="613"/>
      <point x="761" y="546"/>
      <point x="651" y="514" type="curve"/>
      <point x="718" y="512" type="line"/>
      <point x="700" y="522"/>
      <point x="657" y="533"/>
      <point x="629" y="538" type="curve"/>
      <point x="595" y="545" type="line" smooth="yes"/>
      <point x="407" y="583"/>
      <point x="307" y="651"/>
    </contour>
  </outline>
</glyph>
<glyph name="dieresis" format="2">
  <advance width="665"/>
  <unicode hex="00A8"/>
  <outline>
    <contour>
      <point x="84" y="1241" type="line"/>
      <point x="237" y="1241" type="line"/>
      <point x="237" y="1419" type="line"/>
      <point x="84" y="1419" type="line"/>
    </contour>
    <contour>
      <point x="428" y="1241" type="line"/>
      <point x="581" y="1241" type="line"/>
      <point x="581" y="1419" type="line"/>
      <point x="428" y="1419" type="line"/>
    </contour>
  </outline>
</glyph>
<glyph name="copyright" format="2">
  <advance width="1801"/>
  <unicode hex="00A9"/>
  <outline>
    <contour>
      <point x="901" y="-52" type="curve" smooth="yes"/>
      <point x="1326" y="-52"/>
      <point x="1655" y="306"/>
      <point x="1655" y="724" type="curve" smooth="yes"/>
      <point x="1655" y="1142"/>
      <point x="1323" y="1499"/>
      <point x="901" y="1499" type="curve" smooth="yes"/>
      <point x="477" y="1499"/>
      <point x="146" y="1141"/>
      <point x="146" y="724" type="curve" smooth="yes"/>
      <point x="146" y="302"/>
      <point x="474" y="-52"/>
    </contour>
    <contour>
      <point x="901" y="35" type="curve" smooth="yes"/>
      <point x="533" y="35"/>
      <point x="232" y="362"/>
      <point x="232" y="724" type="curve" smooth="yes"/>
      <point x="232" y="1084"/>
      <point x="537" y="1411"/>
      <point x="901" y="1411" type="curve" smooth="yes"/>
      <point x="1266" y="1411"/>
      <point x="1568" y="1084"/>
      <point x="1568" y="724" type="curve" smooth="yes"/>
      <point x="1568" y="362"/>
      <point x="1269" y="35"/>
    </contour>
    <contour>
      <point x="1209" y="495" type="curve"/>
      <point x="1128" y="529" type="line"/>
      <point x="1087" y="452"/>
      <point x="999" y="412"/>
      <point x="916" y="412" type="curve" smooth="yes"/>
      <point x="734" y="412"/>
      <point x="657" y="559"/>
      <point x="657" y="722" type="curve" smooth="yes"/>
      <point x="657" y="883"/>
      <point x="737" y="1032"/>
      <point x="918" y="1032" type="curve" smooth="yes"/>
      <point x="1004" y="1032"/>
      <point x="1086" y="992"/>
      <point x="1130" y="917" type="curve"/>
      <point x="1209" y="950" type="line"/>
      <point x="1160" y="1054"/>
      <point x="1035" y="1119"/>
      <point x="918" y="1119" type="curve" smooth="yes"/>
      <point x="685" y="1119"/>
      <point x="573" y="941"/>
      <point x="573" y="722" type="curve" smooth="yes"/>
      <point x="573" y="506"/>
      <point x="681" y="323"/>
      <point x="918" y="323" type="curve" smooth="yes"/>
      <point x="1046" y="323"/>
      <point x="1156" y="383"/>
    </contour>
  </outline>
</glyph>
<glyph name="ordfeminine" format="2">
  <advance width="826"/>
  <unicode hex="00AA"/>
  <outline>
    <contour>
      <point x="327" y="727" type="curve" smooth="yes"/>
      <point x="446" y="727"/>
      <point x="527" y="777"/>
      <point x="589" y="881" type="curve"/>
      <point x="597" y="741" type="line"/>
      <point x="676" y="741" type="line"/>
      <point x="676" y="1182" type="line" smooth="yes"/>
      <point x="676" y="1355"/>
      <point x="579" y="1468"/>
      <point x="402" y="1468" type="curve" smooth="yes"/>
      <point x="284" y="1468"/>
      <point x="198" y="1429"/>
      <point x="131" y="1335" type="curve"/>
      <point x="209" y="1288" type="line"/>
      <point x="248" y="1347"/>
      <point x="322" y="1388"/>
      <point x="398" y="1388" type="curve" smooth="yes"/>
      <point x="548" y="1388"/>
      <point x="586" y="1276"/>
      <point x="586" y="1147" type="curve"/>
      <point x="358" y="1147" type="line" smooth="yes"/>
      <point x="219" y="1147"/>
      <point x="101" y="1098"/>
      <point x="101" y="939" type="curve" smooth="yes"/>
      <point x="101" y="809"/>
      <point x="203" y="727"/>
    </contour>
    <contour>
      <point x="354" y="811" type="curve" smooth="yes"/>
      <point x="282" y="811"/>
      <point x="208" y="863"/>
      <point x="208" y="939" type="curve" smooth="yes"/>
      <point x="208" y="1040"/>
      <point x="308" y="1068"/>
      <point x="386" y="1068" type="curve" smooth="yes"/>
      <point x="586" y="1068" type="line"/>
      <point x="588" y="936"/>
      <point x="485" y="811"/>
    </contour>
  </outline>
</glyph>
<glyph name="guillemotleft" format="2">
  <advance width="991"/>
  <unicode hex="00AB"/>
  <outline>
    <contour>
      <point x="436" y="206" type="line"/>
      <point x="436" y="344" type="line"/>
      <point x="232" y="523" type="line"/>
      <point x="436" y="700" type="line"/>
      <point x="436" y="840" type="line"/>
      <point x="88" y="523" type="line"/>
    </contour>
    <contour>
      <point x="812" y="206" type="line"/>
      <point x="812" y="344" type="line"/>
      <point x="603" y="523" type="line"/>
      <point x="812" y="700" type="line"/>
      <point x="812" y="840" type="line"/>
      <point x="460" y="523" type="line"/>
    </contour>
  </outline>
</glyph>
<glyph name="logicalnot" format="2">
  <advance width="1311"/>
  <unicode hex="00AC"/>
  <outline>
    <contour>
      <point x="1034" y="298" type="line"/>
      <point x="1034" y="814" type="line"/>
      <point x="168" y="814" type="line"/>
      <point x="168" y="716" type="line"/>
      <point x="934" y="716" type="line"/>
      <point x="934" y="298" type="line"/>
    </contour>
  </outline>
</glyph>
<glyph name="uni00AD" format="2">
  <advance width="991"/>
  <unicode hex="00AD"/>
  <outline>
    <contour>
      <point x="815" y="625" type="line"/>
      <point x="815" y="707" type="line"/>
      <point x="176" y="707" type="line"/>
      <point x="176" y="625" type="line"/>
    </contour>
  </outline>
</glyph>
<glyph name="registered" format="2">
  <advance width="1801"/>
  <unicode hex="00AE"/>
  <outline>
    <contour>
      <point x="901" y="-50" type="curve" smooth="yes"/>
      <point x="1326" y="-50"/>
      <point x="1655" y="308"/>
      <point x="1655" y="726" type="curve" smooth="yes"/>
      <point x="1655" y="1144"/>
      <point x="1323" y="1501"/>
      <point x="901" y="1501" type="curve" smooth="yes"/>
      <point x="477" y="1501"/>
      <point x="146" y="1143"/>
      <point x="146" y="726" type="curve" smooth="yes"/>
      <point x="146" y="304"/>
      <point x="474" y="-50"/>
    </contour>
    <contour>
      <point x="901" y="29" type="curve" smooth="yes"/>
      <point x="524" y="29"/>
      <point x="223" y="355"/>
      <point x="223" y="726" type="curve" smooth="yes"/>
      <point x="223" y="1096"/>
      <point x="526" y="1422"/>
      <point x="901" y="1422" type="curve" smooth="yes"/>
      <point x="1275" y="1422"/>
      <point x="1576" y="1095"/>
      <point x="1576" y="726" type="curve" smooth="yes"/>
      <point x="1576" y="355"/>
      <point x="1276" y="29"/>
    </contour>
    <contour>
      <point x="656" y="317" type="line"/>
      <point x="750" y="317" type="line"/>
      <point x="750" y="668" type="line"/>
      <point x="943" y="668" type="line"/>
      <point x="1128" y="317" type="line"/>
      <point x="1238" y="317" type="line"/>
      <point x="1029" y="673" type="line"/>
      <point x="1156" y="690"/>
      <point x="1211" y="771"/>
      <point x="1211" y="891" type="curve" smooth="yes"/>
      <point x="1211" y="1057"/>
      <point x="1112" y="1118"/>
      <point x="956" y="1118" type="curve" smooth="yes"/>
      <point x="656" y="1118" type="line"/>
    </contour>
    <contour>
      <point x="956" y="750" type="curve" smooth="yes"/>
      <point x="740" y="750" type="line"/>
      <point x="740" y="1034" type="line"/>
      <point x="956" y="1034" type="line" smooth="yes"/>
      <point x="1051" y="1034"/>
      <point x="1128" y="1003"/>
      <point x="1128" y="889" type="curve" smooth="yes"/>
      <point x="1128" y="781"/>
      <point x="1046" y="750"/>
    </contour>
  </outline>
</glyph>
<glyph name="macron" format="2">
  <advance width="671"/>
  <unicode hex="00AF"/>
  <outline>
    <contour>
      <point x="64" y="1269" type="line"/>
      <point x="607" y="1269" type="line"/>
      <point x="607" y="1379" type="line"/>
      <point x="64" y="1379" type="line"/>
    </contour>
  </outline>
</glyph>
<glyph name="degree" format="2">
  <advance width="1007"/>
  <unicode hex="00B0"/>
  <outline>
    <contour>
      <point x="505" y="869" type="curve" smooth="yes"/>
      <point x="669" y="869"/>
      <point x="805" y="1006"/>
      <point x="805" y="1169" type="curve" smooth="yes"/>
      <point x="805" y="1329"/>
      <point x="666" y="1468"/>
      <point x="505" y="1468" type="curve" smooth="yes"/>
      <point x="341" y="1468"/>
      <point x="206" y="1333"/>
      <point x="206" y="1169" type="curve" smooth="yes"/>
      <point x="206" y="1003"/>
      <point x="337" y="869"/>
    </contour>
    <contour>
      <point x="505" y="930" type="curve" smooth="yes"/>
      <point x="375" y="930"/>
      <point x="266" y="1039"/>
      <point x="266" y="1169" type="curve" smooth="yes"/>
      <point x="266" y="1298"/>
      <point x="377" y="1408"/>
      <point x="505" y="1408" type="curve" smooth="yes"/>
      <point x="631" y="1408"/>
      <point x="743" y="1295"/>
      <point x="743" y="1169" type="curve" smooth="yes"/>
      <point x="743" y="1042"/>
      <point x="633" y="930"/>
    </contour>
  </outline>
</glyph>
<glyph name="plusminus" format="2">
  <advance width="1350"/>
  <unicode hex="00B1"/>
  <outline>
    <contour>
      <point x="717" y="109" type="line"/>
      <point x="717" y="601" type="line"/>
      <point x="1185" y="601" type="line"/>
      <point x="1185" y="682" type="line"/>
      <point x="717" y="682" type="line"/>
      <point x="717" y="1169" type="line"/>
      <point x="635" y="1169" type="line"/>
      <point x="635" y="682" type="line"/>
      <point x="165" y="682" type="line"/>
      <point x="165" y="601" type="line"/>
      <point x="635" y="601" type="line"/>
      <point x="635" y="109" type="line"/>
    </contour>
    <contour>
      <point x="1185" y="-86" type="line"/>
      <point x="1185" y="-4" type="line"/>
      <point x="165" y="-4" type="line"/>
      <point x="165" y="-86" type="line"/>
    </contour>
  </outline>
</glyph>
<glyph name="twosuperior" format="2">
  <advance width="884"/>
  <unicode hex="00B2"/>
  <outline>
    <contour>
      <point x="108" y="932" type="line"/>
      <point x="758" y="932" type="line" name=".dv01"/>
      <point x="758" y="999" type="line" name=".dv02"/>
      <point x="203" y="999" type="line" name=".sh03"/>
      <point x="557" y="1224"/>
      <point x="710" y="1422"/>
      <point x="710" y="1629" type="curve" smooth="yes" name=".sh04"/>
      <point x="710" y="1798"/>
      <point x="602" y="1900"/>
      <point x="433" y="1900" type="curve" smooth="yes" name=".dv04"/>
      <point x="263" y="1900"/>
      <point x="152" y="1776"/>
      <point x="154" y="1588" type="curve" name=".sh01"/>
      <point x="235" y="1577" type="line" name=".sh02"/>
      <point x="233" y="1728"/>
      <point x="315" y="1826"/>
      <point x="438" y="1826" type="curve" smooth="yes" name=".dv03"/>
      <point x="553" y="1826"/>
      <point x="622" y="1754"/>
      <point x="622" y="1626" type="curve" smooth="yes" name=".ah01"/>
      <point x="622" y="1455"/>
      <point x="460" y="1256"/>
      <point x="108" y="1019" type="curve"/>
    </contour>
  </outline>
</glyph>
<glyph name="threesuperior" format="2">
  <advance width="853"/>
  <unicode hex="00B3"/>
  <outline>
    <contour>
      <point x="429" y="898" type="curve" smooth="yes" name=".dv01"/>
      <point x="635" y="898"/>
      <point x="753" y="1015"/>
      <point x="753" y="1185" type="curve" smooth="yes" name=".sh01"/>
      <point x="753" y="1322"/>
      <point x="674" y="1417"/>
      <point x="531" y="1443" type="curve" name=".iv01"/>
      <point x="534" y="1421" type="line"/>
      <point x="639" y="1460"/>
      <point x="699" y="1546"/>
      <point x="699" y="1653" type="curve" smooth="yes" name=".dh04"/>
      <point x="699" y="1793"/>
      <point x="594" y="1900"/>
      <point x="427" y="1900" type="curve" smooth="yes" name=".dv04"/>
      <point x="262" y="1900"/>
      <point x="153" y="1796"/>
      <point x="153" y="1658" type="curve" name=".ih02"/>
      <point x="227" y="1648" type="line" name=".sh02"/>
      <point x="227" y="1751"/>
      <point x="309" y="1827"/>
      <point x="427" y="1827" type="curve" smooth="yes" name=".dv03"/>
      <point x="539" y="1827"/>
      <point x="621" y="1743"/>
      <point x="621" y="1644" type="curve" smooth="yes" name=".dh03"/>
      <point x="621" y="1532"/>
      <point x="553" y="1467"/>
      <point x="440" y="1467" type="curve" smooth="yes"/>
      <point x="390" y="1467" type="line" name=".dv06"/>
      <point x="390" y="1390" type="line" name=".dv05"/>
      <point x="419" y="1390" type="line" smooth="yes"/>
      <point x="583" y="1390"/>
      <point x="677" y="1314"/>
      <point x="677" y="1183" type="curve" smooth="yes" name=".ih01"/>
      <point x="677" y="1061"/>
      <point x="574" y="967"/>
      <point x="430" y="967" type="curve" smooth="yes" name=".dv02"/>
      <point x="280" y="967"/>
      <point x="179" y="1062"/>
      <point x="179" y="1182" type="curve" name=".dh02"/>
      <point x="106" y="1173" type="line" name=".dh01"/>
      <point x="106" y="1010"/>
      <point x="223" y="898"/>
    </contour>
  </outline>
</glyph>
<glyph name="uni00B5" format="2">
  <advance width="1171"/>
  <unicode hex="00B5"/>
  <outline>
    <contour>
      <point x="514" y="-24" type="curve" smooth="yes" name=".dv01"/>
      <point x="664" y="-24"/>
      <point x="809" y="72"/>
      <point x="867" y="218" type="curve" name=".iv02"/>
      <point x="867" y="0" type="line" name=".dh01"/>
      <point x="992" y="0" type="line" name=".dh02"/>
      <point x="992" y="1064" type="line" name=".av01"/>
      <point x="867" y="1064" type="line" name=".sh01"/>
      <point x="867" y="440" type="line" smooth="yes"/>
      <point x="867" y="259"/>
      <point x="714" y="85"/>
      <point x="529" y="85" type="curve" smooth="yes" name=".dv02"/>
      <point x="333" y="85"/>
      <point x="293" y="258"/>
      <point x="293" y="420" type="curve" smooth="yes"/>
      <point x="293" y="1064" type="line" name=".av02"/>
      <point x="167" y="1064" type="line" name=".dh03"/>
      <point x="167" y="-273" type="line"/>
      <point x="272" y="-273" type="line" name=".av03"/>
      <point x="298" y="69" type="line" name=".iv01"/>
      <point x="269" y="57" type="line"/>
      <point x="344" y="4"/>
      <point x="426" y="-24"/>
    </contour>
  </outline>
</glyph>
<glyph name="paragraph" format="2">
  <advance width="1398"/>
  <unicode hex="00B6"/>
  <outline>
    <contour>
      <point x="734" y="-253" type="line"/>
      <point x="734" y="1448" type="line"/>
      <point x="611" y="1448" type="line" smooth="yes"/>
      <point x="381" y="1448"/>
      <point x="148" y="1298"/>
      <point x="148" y="1049" type="curve" smooth="yes"/>
      <point x="148" y="787"/>
      <point x="370" y="639"/>
      <point x="613" y="639" type="curve"/>
      <point x="613" y="-253" type="line"/>
    </contour>
    <contour>
      <point x="1118" y="-253" type="line"/>
      <point x="1118" y="1448" type="line"/>
      <point x="998" y="1448" type="line"/>
      <point x="998" y="-253" type="line"/>
    </contour>
  </outline>
</glyph>
<glyph name="periodcentered" format="2">
  <advance width="671"/>
  <unicode hex="00B7"/>
  <anchor x="334" y="853" name="_center"/>
  <outline>
    <contour>
      <point x="334" y="737" type="curve" smooth="yes"/>
      <point x="399" y="737"/>
      <point x="450" y="789"/>
      <point x="450" y="853" type="curve" smooth="yes"/>
      <point x="450" y="919"/>
      <point x="400" y="970"/>
      <point x="334" y="970" type="curve" smooth="yes"/>
      <point x="266" y="970"/>
      <point x="217" y="922"/>
      <point x="217" y="853" type="curve" smooth="yes"/>
      <point x="217" y="787"/>
      <point x="268" y="737"/>
    </contour>
  </outline>
</glyph>
<glyph name="cedilla" format="2">
  <advance width="598"/>
  <unicode hex="00B8"/>
  <outline>
    <contour>
      <point x="251" y="0" type="line"/>
      <point x="153" y="-187" type="line"/>
      <point x="249" y="-187" type="line" smooth="yes"/>
      <point x="342" y="-187"/>
      <point x="390" y="-241"/>
      <point x="390" y="-314" type="curve" smooth="yes"/>
      <point x="390" y="-376"/>
      <point x="350" y="-424"/>
      <point x="300" y="-424" type="curve" smooth="yes"/>
      <point x="236" y="-424"/>
      <point x="191" y="-390"/>
      <point x="180" y="-348" type="curve"/>
      <point x="97" y="-388" type="line"/>
      <point x="121" y="-457"/>
      <point x="198" y="-510"/>
      <point x="291" y="-510" type="curve" smooth="yes"/>
      <point x="406" y="-510"/>
      <point x="482" y="-429"/>
      <point x="482" y="-306" type="curve" smooth="yes"/>
      <point x="482" y="-188"/>
      <point x="400" y="-134"/>
      <point x="290" y="-132" type="curve"/>
      <point x="359" y="0" type="line"/>
    </contour>
  </outline>
</glyph>
<glyph name="onesuperior" format="2">
  <advance width="613"/>
  <unicode hex="00B9"/>
  <outline>
    <contour>
      <point x="411" y="931" type="line" name=".av01"/>
      <point x="411" y="1900" type="line" name=".av02"/>
      <point x="337" y="1900" type="line"/>
      <point x="337" y="1888" type="line" smooth="yes" name=".av03"/>
      <point x="337" y="1811"/>
      <point x="297" y="1757"/>
      <point x="209" y="1757" type="curve" smooth="yes"/>
      <point x="65" y="1757" type="line" name=".dv02"/>
      <point x="65" y="1689" type="line" name=".dv01"/>
      <point x="326" y="1689" type="line" name=".dh01"/>
      <point x="326" y="931" type="line"/>
    </contour>
  </outline>
</glyph>
<glyph name="ordmasculine" format="2">
  <advance width="880"/>
  <unicode hex="00BA"/>
  <outline>
    <contour>
      <point x="442" y="729" type="curve" smooth="yes"/>
      <point x="646" y="729"/>
      <point x="779" y="904"/>
      <point x="779" y="1100" type="curve" smooth="yes"/>
      <point x="779" y="1295"/>
      <point x="647" y="1468"/>
      <point x="442" y="1468" type="curve" smooth="yes"/>
      <point x="234" y="1468"/>
      <point x="102" y="1298"/>
      <point x="102" y="1100" type="curve" smooth="yes"/>
      <point x="102" y="901"/>
      <point x="234" y="729"/>
    </contour>
    <contour>
      <point x="442" y="821" type="curve" smooth="yes"/>
      <point x="277" y="821"/>
      <point x="216" y="954"/>
      <point x="216" y="1100" type="curve" smooth="yes"/>
      <point x="216" y="1245"/>
      <point x="279" y="1377"/>
      <point x="442" y="1377" type="curve" smooth="yes"/>
      <point x="602" y="1377"/>
      <point x="663" y="1240"/>
      <point x="663" y="1100" type="curve" smooth="yes"/>
      <point x="663" y="955"/>
      <point x="607" y="821"/>
    </contour>
  </outline>
</glyph>
<glyph name="guillemotright" format="2">
  <advance width="991"/>
  <unicode hex="00BB"/>
  <outline>
    <contour>
      <point x="178" y="206" type="line"/>
      <point x="526" y="523" type="line"/>
      <point x="178" y="840" type="line"/>
      <point x="178" y="700" type="line"/>
      <point x="384" y="523" type="line"/>
      <point x="178" y="344" type="line"/>
    </contour>
    <contour>
      <point x="550" y="206" type="line"/>
      <point x="901" y="523" type="line"/>
      <point x="550" y="840" type="line"/>
      <point x="550" y="700" type="line"/>
      <point x="754" y="523" type="line"/>
      <point x="550" y="344" type="line"/>
    </contour>
  </outline>
</glyph>
<glyph name="questiondown" format="2">
  <advance width="1057"/>
  <unicode hex="00BF"/>
  <outline>
    <contour>
      <point x="616" y="859" type="line"/>
      <point x="616" y="1022" type="line"/>
      <point x="449" y="1022" type="line"/>
      <point x="449" y="859" type="line"/>
    </contour>
    <contour>
      <point x="542" y="-445" type="curve" smooth="yes"/>
      <point x="763" y="-445"/>
      <point x="939" y="-309"/>
      <point x="939" y="-81" type="curve"/>
      <point x="826" y="-81" type="line"/>
      <point x="826" y="-245"/>
      <point x="696" y="-345"/>
      <point x="537" y="-345" type="curve" smooth="yes"/>
      <point x="382" y="-345"/>
      <point x="245" y="-267"/>
      <point x="245" y="-95" type="curve" smooth="yes"/>
      <point x="245" y="13"/>
      <point x="294" y="92"/>
      <point x="414" y="153" type="curve" smooth="yes"/>
      <point x="496" y="194"/>
      <point x="589" y="244"/>
      <point x="589" y="416" type="curve" smooth="yes"/>
      <point x="589" y="657" type="line"/>
      <point x="484" y="657" type="line"/>
      <point x="484" y="410" type="line" smooth="yes"/>
      <point x="484" y="327"/>
      <point x="463" y="277"/>
      <point x="365" y="223" type="curve" smooth="yes"/>
      <point x="189" y="124"/>
      <point x="134" y="43"/>
      <point x="134" y="-91" type="curve" smooth="yes"/>
      <point x="134" y="-330"/>
      <point x="323" y="-445"/>
    </contour>
  </outline>
</glyph>
<glyph name="AE" format="2">
  <advance width="1842"/>
  <unicode hex="00C6"/>
  <anchor x="1058" y="1618" name="top"/>
  <outline>
    <contour>
      <point x="1728" y="0" type="line" name=".dv01"/>
      <point x="1728" y="99" type="line" name=".dv02"/>
      <point x="960" y="99" type="line" name=".dh02"/>
      <point x="960" y="673" type="line" name=".dv07"/>
      <point x="1637" y="673" type="line"/>
      <point x="1637" y="772" type="line"/>
      <point x="960" y="772" type="line" name=".dv08"/>
      <point x="960" y="1355" type="line" name=".sv01"/>
      <point x="1728" y="1355" type="line"/>
      <point x="1728" y="1447" type="line" name=".av01"/>
      <point x="614" y="1447" type="line" name=".dv04"/>
      <point x="89" y="0" type="line" name=".sv02"/>
      <point x="213" y="0" type="line"/>
      <point x="327" y="314" type="line" name=".dv05"/>
      <point x="838" y="314" type="line"/>
      <point x="838" y="0" type="line" name=".dh01"/>
    </contour>
    <contour>
      <point x="838" y="431" type="line" name=".sh01"/>
      <point x="363" y="431" type="line" name=".dv06"/>
      <point x="690" y="1355" type="line" name=".dv03"/>
      <point x="838" y="1355" type="line"/>
    </contour>
  </outline>
</glyph>
<glyph name="Eth" format="2">
  <advance width="1458"/>
  <unicode hex="00D0"/>
  <outline>
    <contour>
      <point x="91" y="772" type="line"/>
      <point x="91" y="687" type="line"/>
      <point x="728" y="687" type="line"/>
      <point x="728" y="772" type="line"/>
    </contour>
    <contour>
      <point x="248" y="0" type="line"/>
      <point x="593" y="0" type="line" smooth="yes"/>
      <point x="1050" y="0"/>
      <point x="1314" y="252"/>
      <point x="1314" y="713" type="curve" smooth="yes"/>
      <point x="1314" y="1177"/>
      <point x="1061" y="1448"/>
      <point x="595" y="1448" type="curve" smooth="yes"/>
      <point x="248" y="1448" type="line"/>
    </contour>
    <contour>
      <point x="367" y="106" type="line"/>
      <point x="367" y="1346" type="line"/>
      <point x="591" y="1346" type="line" smooth="yes"/>
      <point x="985" y="1346"/>
      <point x="1196" y="1108"/>
      <point x="1196" y="724" type="curve" smooth="yes"/>
      <point x="1196" y="342"/>
      <point x="948" y="106"/>
      <point x="568" y="106" type="curve" smooth="yes"/>
    </contour>
  </outline>
</glyph>
<glyph name="multiply" format="2">
  <advance width="1140"/>
  <unicode hex="00D7"/>
  <outline>
    <contour>
      <point x="239" y="250" type="line"/>
      <point x="571" y="581" type="line"/>
      <point x="916" y="234" type="line"/>
      <point x="974" y="294" type="line"/>
      <point x="629" y="640" type="line"/>
      <point x="962" y="971" type="line"/>
      <point x="901" y="1028" type="line"/>
      <point x="571" y="697" type="line"/>
      <point x="223" y="1044" type="line"/>
      <point x="166" y="984" type="line"/>
      <point x="512" y="640" type="line"/>
      <point x="180" y="307" type="line"/>
    </contour>
  </outline>
</glyph>
<glyph name="Oslash" format="2">
  <advance width="1548"/>
  <unicode hex="00D8"/>
  <anchor x="776" y="1618" name="top"/>
  <outline>
    <contour>
      <point x="773" y="-20" type="curve" smooth="yes"/>
      <point x="1207" y="-20"/>
      <point x="1403" y="332"/>
      <point x="1403" y="724" type="curve" smooth="yes"/>
      <point x="1403" y="947"/>
      <point x="1335" y="1186"/>
      <point x="1162" y="1337" type="curve"/>
      <point x="1222" y="1447" type="line"/>
      <point x="1119" y="1447" type="line"/>
      <point x="1087" y="1391" type="line"/>
      <point x="989" y="1446"/>
      <point x="881" y="1468"/>
      <point x="773" y="1468" type="curve" smooth="yes"/>
      <point x="341" y="1468"/>
      <point x="146" y="1112"/>
      <point x="146" y="724" type="curve" smooth="yes"/>
      <point x="146" y="504"/>
      <point x="208" y="259"/>
      <point x="384" y="112" type="curve"/>
      <point x="321" y="0" type="line"/>
      <point x="424" y="0" type="line"/>
      <point x="457" y="58" type="line"/>
      <point x="554" y="2"/>
      <point x="663" y="-20"/>
    </contour>
    <contour>
      <point x="437" y="212" type="line"/>
      <point x="297" y="348"/>
      <point x="251" y="543"/>
      <point x="251" y="724" type="curve" smooth="yes"/>
      <point x="251" y="1047"/>
      <point x="408" y="1356"/>
      <point x="773" y="1356" type="curve" smooth="yes"/>
      <point x="862" y="1356"/>
      <point x="952" y="1337"/>
      <point x="1034" y="1292" type="curve"/>
    </contour>
    <contour>
      <point x="773" y="91" type="curve" smooth="yes"/>
      <point x="683" y="91"/>
      <point x="592" y="109"/>
      <point x="511" y="157" type="curve"/>
      <point x="1109" y="1237" type="line"/>
      <point x="1252" y="1106"/>
      <point x="1299" y="903"/>
      <point x="1299" y="724" type="curve" smooth="yes"/>
      <point x="1299" y="393"/>
      <point x="1141" y="91"/>
    </contour>
  </outline>
</glyph>
<glyph name="Thorn" format="2">
  <advance width="1179"/>
  <unicode hex="00DE"/>
  <outline>
    <contour>
      <point x="356" y="0" type="line"/>
      <point x="356" y="460" type="line"/>
      <point x="623" y="460" type="line" smooth="yes"/>
      <point x="857" y="460"/>
      <point x="1067" y="575"/>
      <point x="1067" y="840" type="curve" smooth="yes"/>
      <point x="1067" y="1111"/>
      <point x="858" y="1239"/>
      <point x="616" y="1239" type="curve" smooth="yes"/>
      <point x="356" y="1239" type="line"/>
      <point x="356" y="1447" type="line"/>
      <point x="234" y="1447" type="line"/>
      <point x="234" y="0" type="line"/>
    </contour>
    <contour>
      <point x="623" y="574" type="curve" smooth="yes"/>
      <point x="356" y="574" type="line"/>
      <point x="356" y="1109" type="line"/>
      <point x="623" y="1109" type="line" smooth="yes"/>
      <point x="791" y="1109"/>
      <point x="945" y="1036"/>
      <point x="945" y="840" type="curve" smooth="yes"/>
      <point x="945" y="640"/>
      <point x="791" y="574"/>
    </contour>
  </outline>
</glyph>
<glyph name="germandbls" format="2">
  <advance width="1223"/>
  <unicode hex="00DF"/>
  <outline>
    <contour>
      <point x="194" y="0" type="line"/>
      <point x="302" y="0" type="line"/>
      <point x="302" y="1000" type="line" smooth="yes"/>
      <point x="302" y="1210"/>
      <point x="375" y="1363"/>
      <point x="640" y="1363" type="curve" smooth="yes"/>
      <point x="795" y="1363"/>
      <point x="882" y="1298"/>
      <point x="882" y="1183" type="curve" smooth="yes"/>
      <point x="882" y="1091"/>
      <point x="822" y="1012"/>
      <point x="760" y="967" type="curve" smooth="yes"/>
      <point x="703" y="925"/>
      <point x="661" y="868"/>
      <point x="661" y="794" type="curve" smooth="yes"/>
      <point x="661" y="680"/>
      <point x="715" y="602"/>
      <point x="807" y="547" type="curve" smooth="yes"/>
      <point x="909" y="486"/>
      <point x="981" y="409"/>
      <point x="981" y="288" type="curve" smooth="yes"/>
      <point x="981" y="179"/>
      <point x="849" y="100"/>
      <point x="755" y="100" type="curve" smooth="yes"/>
      <point x="665" y="100"/>
      <point x="581" y="127"/>
      <point x="504" y="172" type="curve"/>
      <point x="450" y="61" type="line"/>
      <point x="547" y="13"/>
      <point x="645" y="-18"/>
      <point x="753" y="-18" type="curve" smooth="yes"/>
      <point x="937" y="-18"/>
      <point x="1093" y="113"/>
      <point x="1093" y="307" type="curve" smooth="yes"/>
      <point x="1093" y="465"/>
      <point x="986" y="546"/>
      <point x="904" y="601" type="curve" smooth="yes"/>
      <point x="829" y="651"/>
      <point x="766" y="711"/>
      <point x="766" y="794" type="curve" smooth="yes"/>
      <point x="766" y="877"/>
      <point x="821" y="913"/>
      <point x="877" y="950" type="curve" smooth="yes"/>
      <point x="934" y="988"/>
      <point x="1003" y="1063"/>
      <point x="1003" y="1169" type="curve" smooth="yes"/>
      <point x="1003" y="1350"/>
      <point x="858" y="1468"/>
      <point x="638" y="1468" type="curve" smooth="yes"/>
      <point x="307" y="1468"/>
      <point x="194" y="1271"/>
      <point x="194" y="978" type="curve" smooth="yes"/>
    </contour>
  </outline>
</glyph>
<glyph name="ae" format="2">
  <advance width="1748"/>
  <unicode hex="00E6"/>
  <anchor x="874" y="1192" name="top"/>
  <outline>
    <contour>
      <point x="417" y="-20" type="curve" smooth="yes"/>
      <point x="657" y="-20"/>
      <point x="824" y="117"/>
      <point x="867" y="352" type="curve"/>
      <point x="828" y="351" type="line"/>
      <point x="874" y="114"/>
      <point x="1021" y="-12"/>
      <point x="1249" y="-12" type="curve" smooth="yes"/>
      <point x="1413" y="-12"/>
      <point x="1527" y="32"/>
      <point x="1634" y="138" type="curve"/>
      <point x="1564" y="196" type="line"/>
      <point x="1488" y="116"/>
      <point x="1392" y="81"/>
      <point x="1247" y="81" type="curve" smooth="yes"/>
      <point x="1038" y="81"/>
      <point x="911" y="239"/>
      <point x="915" y="496" type="curve"/>
      <point x="1653" y="496" type="line"/>
      <point x="1655" y="505"/>
      <point x="1655" y="508"/>
      <point x="1655" y="525" type="curve" smooth="yes"/>
      <point x="1655" y="904"/>
      <point x="1521" y="1084"/>
      <point x="1226" y="1084" type="curve" smooth="yes"/>
      <point x="1078" y="1084"/>
      <point x="960" y="1011"/>
      <point x="874" y="863" type="curve"/>
      <point x="830" y="994"/>
      <point x="690" y="1084"/>
      <point x="530" y="1084" type="curve" smooth="yes"/>
      <point x="358" y="1084"/>
      <point x="237" y="1023"/>
      <point x="137" y="891" type="curve"/>
      <point x="226" y="834" type="line"/>
      <point x="293" y="932"/>
      <point x="408" y="997"/>
      <point x="523" y="997" type="curve" smooth="yes"/>
      <point x="713" y="997"/>
      <point x="816" y="856"/>
      <point x="816" y="594" type="curve"/>
      <point x="466" y="594" type="line" smooth="yes"/>
      <point x="226" y="594"/>
      <point x="97" y="486"/>
      <point x="97" y="282" type="curve" smooth="yes"/>
      <point x="97" y="112"/>
      <point x="237" y="-20"/>
    </contour>
    <contour>
      <point x="914" y="597" type="line"/>
      <point x="911" y="824"/>
      <point x="1046" y="1001"/>
      <point x="1230" y="1001" type="curve" smooth="yes"/>
      <point x="1430" y="1001"/>
      <point x="1558" y="836"/>
      <point x="1554" y="597" type="curve"/>
    </contour>
    <contour>
      <point x="457" y="75" type="curve" smooth="yes"/>
      <point x="337" y="75"/>
      <point x="217" y="173"/>
      <point x="217" y="273" type="curve" smooth="yes"/>
      <point x="217" y="411"/>
      <point x="311" y="496"/>
      <point x="460" y="496" type="curve" smooth="yes"/>
      <point x="820" y="496" type="line"/>
      <point x="776" y="207"/>
      <point x="664" y="75"/>
    </contour>
  </outline>
</glyph>
<glyph name="eth" format="2">
  <advance width="1204"/>
  <unicode hex="00F0"/>
  <outline>
    <contour>
      <point x="593" y="-16" type="curve" smooth="yes"/>
      <point x="886" y="-16"/>
      <point x="1080" y="238"/>
      <point x="1080" y="518" type="curve" smooth="yes"/>
      <point x="1080" y="896"/>
      <point x="991" y="1200"/>
      <point x="665" y="1423" type="curve"/>
      <point x="728" y="1507" type="line"/>
      <point x="636" y="1559" type="line"/>
      <point x="571" y="1473" type="line"/>
      <point x="508" y="1505"/>
      <point x="444" y="1527"/>
      <point x="381" y="1553" type="curve"/>
      <point x="317" y="1476" type="line"/>
      <point x="381" y="1450"/>
      <point x="445" y="1421"/>
      <point x="510" y="1389" type="curve"/>
      <point x="407" y="1254" type="line"/>
      <point x="495" y="1202" type="line"/>
      <point x="598" y="1336" type="line"/>
      <point x="722" y="1252"/>
      <point x="848" y="1139"/>
      <point x="878" y="979" type="curve"/>
      <point x="806" y="1057"/>
      <point x="675" y="1085"/>
      <point x="580" y="1085" type="curve" smooth="yes"/>
      <point x="278" y="1085"/>
      <point x="110" y="829"/>
      <point x="110" y="549" type="curve" smooth="yes"/>
      <point x="110" y="256"/>
      <point x="284" y="-16"/>
    </contour>
    <contour>
      <point x="602" y="91" type="curve" smooth="yes"/>
      <point x="342" y="91"/>
      <point x="242" y="323"/>
      <point x="242" y="549" type="curve" smooth="yes"/>
      <point x="242" y="766"/>
      <point x="339" y="996"/>
      <point x="591" y="996" type="curve" smooth="yes"/>
      <point x="846" y="996"/>
      <point x="949" y="774"/>
      <point x="949" y="550" type="curve" smooth="yes"/>
      <point x="949" y="336"/>
      <point x="852" y="91"/>
    </contour>
  </outline>
</glyph>
<glyph name="divide" format="2">
  <advance width="848"/>
  <unicode hex="00F7"/>
  <outline>
    <contour>
      <point x="501" y="956" type="line"/>
      <point x="501" y="1120" type="line"/>
      <point x="334" y="1120" type="line"/>
      <point x="334" y="956" type="line"/>
    </contour>
    <contour>
      <point x="688" y="601" type="line"/>
      <point x="688" y="683" type="line"/>
      <point x="148" y="683" type="line"/>
      <point x="148" y="601" type="line"/>
    </contour>
    <contour>
      <point x="501" y="145" type="line"/>
      <point x="501" y="309" type="line"/>
      <point x="334" y="309" type="line"/>
      <point x="334" y="145" type="line"/>
    </contour>
  </outline>
</glyph>
<glyph name="oslash" format="2">
  <advance width="1170"/>
  <unicode hex="00F8"/>
  <anchor x="589" y="1192" name="top"/>
  <outline>
    <contour>
      <point x="587" y="-20" type="curve" smooth="yes"/>
      <point x="858" y="-20"/>
      <point x="1072" y="224"/>
      <point x="1072" y="533" type="curve" smooth="yes"/>
      <point x="1072" y="719"/>
      <point x="999" y="889"/>
      <point x="874" y="989" type="curve"/>
      <point x="919" y="1070" type="line"/>
      <point x="843" y="1070" type="line"/>
      <point x="816" y="1026" type="line"/>
      <point x="749" y="1064"/>
      <point x="672" y="1084"/>
      <point x="591" y="1084" type="curve" smooth="yes"/>
      <point x="320" y="1084"/>
      <point x="107" y="841"/>
      <point x="107" y="528" type="curve" smooth="yes"/>
      <point x="107" y="344"/>
      <point x="177" y="184"/>
      <point x="301" y="76" type="curve"/>
      <point x="258" y="1" type="line"/>
      <point x="333" y="1" type="line"/>
      <point x="355" y="39" type="line"/>
      <point x="424" y="0"/>
      <point x="501" y="-20"/>
    </contour>
    <contour>
      <point x="354" y="176" type="line"/>
      <point x="271" y="257"/>
      <point x="230" y="373"/>
      <point x="230" y="531" type="curve" smooth="yes"/>
      <point x="230" y="797"/>
      <point x="377" y="981"/>
      <point x="589" y="981" type="curve" smooth="yes"/>
      <point x="654" y="981"/>
      <point x="716" y="965"/>
      <point x="769" y="935" type="curve"/>
    </contour>
    <contour>
      <point x="589" y="81" type="curve" smooth="yes"/>
      <point x="521" y="81"/>
      <point x="460" y="99"/>
      <point x="407" y="133" type="curve"/>
      <point x="821" y="894" type="line"/>
      <point x="906" y="804"/>
      <point x="950" y="684"/>
      <point x="950" y="531" type="curve" smooth="yes"/>
      <point x="950" y="263"/>
      <point x="804" y="81"/>
    </contour>
  </outline>
</glyph>
<glyph name="thorn" format="2">
  <advance width="1189"/>
  <unicode hex="00FE"/>
  <outline>
    <contour>
      <point x="324" y="-450" type="line"/>
      <point x="324" y="177" type="line"/>
      <point x="403" y="43"/>
      <point x="516" y="-20"/>
      <point x="678" y="-20" type="curve" smooth="yes"/>
      <point x="917" y="-20"/>
      <point x="1082" y="205"/>
      <point x="1082" y="531" type="curve" smooth="yes"/>
      <point x="1082" y="856"/>
      <point x="916" y="1085"/>
      <point x="683" y="1085" type="curve" smooth="yes"/>
      <point x="516" y="1085"/>
      <point x="402" y="1023"/>
      <point x="324" y="887" type="curve"/>
      <point x="324" y="1448" type="line"/>
      <point x="196" y="1448" type="line"/>
      <point x="196" y="-450" type="line"/>
    </contour>
    <contour>
      <point x="637" y="85" type="curve" smooth="yes"/>
      <point x="440" y="85"/>
      <point x="308" y="264"/>
      <point x="308" y="532" type="curve" smooth="yes"/>
      <point x="308" y="795"/>
      <point x="441" y="979"/>
      <point x="631" y="979" type="curve" smooth="yes"/>
      <point x="830" y="979"/>
      <point x="960" y="801"/>
      <point x="960" y="532" type="curve" smooth="yes"/>
      <point x="960" y="260"/>
      <point x="833" y="85"/>
    </contour>
  </outline>
</glyph>
<glyph name="dcaron" format="2">
  <advance width="1228"/>
  <unicode hex="010F"/>
  <outline>
    <contour>
      <point x="1200" y="1111" type="line"/>
      <point x="1411" y="1447" type="line"/>
      <point x="1209" y="1447" type="line"/>
      <point x="1105" y="1111" type="line"/>
    </contour>
    <contour>
      <point x="522" y="-20" type="curve" smooth="yes"/>
      <point x="680" y="-20"/>
      <point x="785" y="31"/>
      <point x="874" y="163" type="curve"/>
      <point x="872" y="0" type="line"/>
      <point x="982" y="0" type="line"/>
      <point x="982" y="1448" type="line"/>
      <point x="875" y="1448" type="line"/>
      <point x="875" y="900" type="line"/>
      <point x="793" y="1027"/>
      <point x="678" y="1084"/>
      <point x="530" y="1084" type="curve" smooth="yes"/>
      <point x="231" y="1084"/>
      <point x="119" y="783"/>
      <point x="119" y="531" type="curve" smooth="yes"/>
      <point x="119" y="284"/>
      <point x="231" y="-20"/>
    </contour>
    <contour>
      <point x="557" y="76" type="curve" smooth="yes"/>
      <point x="305" y="76"/>
      <point x="229" y="327"/>
      <point x="229" y="532" type="curve" smooth="yes"/>
      <point x="229" y="738"/>
      <point x="312" y="984"/>
      <point x="557" y="984" type="curve" smooth="yes"/>
      <point x="805" y="984"/>
      <point x="886" y="739"/>
      <point x="886" y="532" type="curve" smooth="yes"/>
      <point x="886" y="328"/>
      <point x="809" y="76"/>
    </contour>
  </outline>
</glyph>
<glyph name="dcroat" format="2">
  <advance width="1174"/>
  <unicode hex="0111"/>
  <outline>
    <contour>
      <point x="542" y="1314" type="line"/>
      <point x="542" y="1217" type="line"/>
      <point x="1210" y="1217" type="line"/>
      <point x="1210" y="1314" type="line"/>
    </contour>
    <contour>
      <point x="522" y="-20" type="curve" smooth="yes"/>
      <point x="680" y="-20"/>
      <point x="785" y="31"/>
      <point x="874" y="163" type="curve"/>
      <point x="872" y="0" type="line"/>
      <point x="982" y="0" type="line"/>
      <point x="982" y="1448" type="line"/>
      <point x="875" y="1448" type="line"/>
      <point x="875" y="900" type="line"/>
      <point x="793" y="1027"/>
      <point x="678" y="1084"/>
      <point x="530" y="1084" type="curve" smooth="yes"/>
      <point x="231" y="1084"/>
      <point x="119" y="783"/>
      <point x="119" y="531" type="curve" smooth="yes"/>
      <point x="119" y="284"/>
      <point x="231" y="-20"/>
    </contour>
    <contour>
      <point x="557" y="76" type="curve" smooth="yes"/>
      <point x="305" y="76"/>
      <point x="229" y="327"/>
      <point x="229" y="532" type="curve" smooth="yes"/>
      <point x="229" y="738"/>
      <point x="312" y="984"/>
      <point x="557" y="984" type="curve" smooth="yes"/>
      <point x="805" y="984"/>
      <point x="886" y="739"/>
      <point x="886" y="532" type="curve" smooth="yes"/>
      <point x="886" y="328"/>
      <point x="809" y="76"/>
    </contour>
  </outline>
</glyph>
<glyph name="Hbar" format="2">
  <advance width="1477"/>
  <unicode hex="0126"/>
  <outline>
    <contour>
      <point x="108" y="1176" type="line"/>
      <point x="108" y="1111" type="line"/>
      <point x="1364" y="1111" type="line"/>
      <point x="1364" y="1176" type="line"/>
    </contour>
    <contour>
      <point x="1246" y="0" type="line"/>
      <point x="1246" y="1448" type="line"/>
      <point x="1128" y="1448" type="line"/>
      <point x="1128" y="768" type="line"/>
      <point x="350" y="768" type="line"/>
      <point x="350" y="1448" type="line"/>
      <point x="232" y="1448" type="line"/>
      <point x="232" y="0" type="line"/>
      <point x="350" y="0" type="line"/>
      <point x="350" y="680" type="line"/>
      <point x="1128" y="680" type="line"/>
      <point x="1128" y="0" type="line"/>
    </contour>
  </outline>
</glyph>
<glyph name="hbar" format="2">
  <advance width="1165"/>
  <unicode hex="0127"/>
  <outline>
    <contour>
      <point x="-14" y="1285" type="line"/>
      <point x="-14" y="1191" type="line"/>
      <point x="653" y="1191" type="line"/>
      <point x="653" y="1285" type="line"/>
    </contour>
    <contour>
      <point x="194" y="0" type="line"/>
      <point x="297" y="0" type="line"/>
      <point x="297" y="593" type="line" smooth="yes"/>
      <point x="297" y="806"/>
      <point x="455" y="982"/>
      <point x="647" y="982" type="curve" smooth="yes"/>
      <point x="799" y="982"/>
      <point x="893" y="855"/>
      <point x="893" y="647" type="curve" smooth="yes"/>
      <point x="893" y="0" type="line"/>
      <point x="1001" y="0" type="line"/>
      <point x="1001" y="667" type="line" smooth="yes"/>
      <point x="1001" y="924"/>
      <point x="872" y="1084"/>
      <point x="662" y="1084" type="curve" smooth="yes"/>
      <point x="513" y="1084"/>
      <point x="372" y="1002"/>
      <point x="297" y="868" type="curve"/>
      <point x="297" y="1448" type="line"/>
      <point x="194" y="1448" type="line"/>
    </contour>
  </outline>
</glyph>
<glyph name="dotlessi" format="2">
  <advance width="491"/>
  <unicode hex="0131"/>
  <anchor x="245" y="1192" name="top"/>
  <anchor x="305" y="-0" name="ogonek"/>
  <outline>
    <contour>
      <point x="186" y="0" type="line"/>
      <point x="305" y="0" type="line"/>
      <point x="305" y="1064" type="line"/>
      <point x="186" y="1064" type="line"/>
    </contour>
  </outline>
</glyph>
<glyph name="kgreenlandic" format="2">
  <advance width="1070"/>
  <unicode hex="0138"/>
  <outline>
    <contour>
      <point x="1023" y="0" type="line"/>
      <point x="623" y="677" type="line"/>
      <point x="948" y="1064" type="line"/>
      <point x="813" y="1064" type="line"/>
      <point x="302" y="463" type="line"/>
      <point x="302" y="1064" type="line"/>
      <point x="193" y="1064" type="line"/>
      <point x="193" y="0" type="line"/>
      <point x="302" y="0" type="line"/>
      <point x="302" y="310" type="line"/>
      <point x="554" y="583" type="line"/>
      <point x="888" y="0" type="line"/>
    </contour>
  </outline>
</glyph>
<glyph name="Lcaron" format="2">
  <advance width="1056"/>
  <unicode hex="013D"/>
  <outline>
    <contour>
      <point x="679" y="1070" type="line"/>
      <point x="882" y="1447" type="line"/>
      <point x="689" y="1447" type="line"/>
      <point x="589" y="1070" type="line"/>
    </contour>
    <contour>
      <point x="970" y="0" type="line"/>
      <point x="970" y="104" type="line"/>
      <point x="351" y="104" type="line"/>
      <point x="351" y="1448" type="line"/>
      <point x="232" y="1448" type="line"/>
      <point x="232" y="0" type="line"/>
    </contour>
  </outline>
</glyph>
<glyph name="Lslash" format="2">
  <advance width="1072"/>
  <unicode hex="0141"/>
  <outline>
    <contour>
      <point x="53" y="592" type="line"/>
      <point x="53" y="455" type="line"/>
      <point x="720" y="901" type="line"/>
      <point x="720" y="1039" type="line"/>
    </contour>
    <contour>
      <point x="984" y="-1" type="line"/>
      <point x="984" y="103" type="line"/>
      <point x="365" y="103" type="line"/>
      <point x="365" y="1447" type="line"/>
      <point x="246" y="1447" type="line"/>
      <point x="246" y="-1" type="line"/>
    </contour>
  </outline>
</glyph>
<glyph name="lslash" format="2">
  <advance width="541"/>
  <unicode hex="0142"/>
  <outline>
    <contour>
      <point x="64" y="592" type="line"/>
      <point x="64" y="478" type="line"/>
      <point x="520" y="783" type="line"/>
      <point x="520" y="898" type="line"/>
    </contour>
    <contour>
      <point x="349" y="-20" type="curve" smooth="yes"/>
      <point x="392" y="-20"/>
      <point x="432" y="-13"/>
      <point x="469" y="-1" type="curve"/>
      <point x="469" y="84" type="line"/>
      <point x="435" y="78"/>
      <point x="397" y="72"/>
      <point x="360" y="72" type="curve" smooth="yes"/>
      <point x="330" y="72"/>
      <point x="311" y="94"/>
      <point x="311" y="124" type="curve" smooth="yes"/>
      <point x="311" y="1448" type="line"/>
      <point x="192" y="1448" type="line"/>
      <point x="192" y="151" type="line" smooth="yes"/>
      <point x="192" y="34"/>
      <point x="251" y="-20"/>
    </contour>
  </outline>
</glyph>
<glyph name="napostrophe" format="2">
  <advance width="1269"/>
  <unicode hex="0149"/>
  <outline>
    <contour>
      <point x="185" y="984" type="line" name=".sv01"/>
      <point x="400" y="1448" type="line" name=".av01"/>
      <point x="239" y="1448" type="line"/>
      <point x="124" y="984" type="line"/>
    </contour>
    <contour>
      <point x="309" y="0" type="line"/>
      <point x="414" y="0" type="line" name=".av02"/>
      <point x="414" y="628" type="line" smooth="yes"/>
      <point x="414" y="815"/>
      <point x="574" y="979"/>
      <point x="755" y="979" type="curve" smooth="yes"/>
      <point x="918" y="979"/>
      <point x="1007" y="862"/>
      <point x="1007" y="647" type="curve" smooth="yes"/>
      <point x="1007" y="0" type="line"/>
      <point x="1114" y="0" type="line" name=".av03"/>
      <point x="1114" y="653" type="line" smooth="yes"/>
      <point x="1114" y="929"/>
      <point x="986" y="1084"/>
      <point x="761" y="1084" type="curve" smooth="yes"/>
      <point x="619" y="1084"/>
      <point x="486" y="1007"/>
      <point x="414" y="878" type="curve"/>
      <point x="414" y="1064" type="line"/>
      <point x="309" y="1064" type="line"/>
    </contour>
  </outline>
</glyph>
<glyph name="Eng" format="2">
  <advance width="1440"/>
  <unicode hex="014A"/>
  <outline>
    <contour>
      <point x="1017" y="-379" type="line" smooth="yes"/>
      <point x="1146" y="-379"/>
      <point x="1209" y="-306"/>
      <point x="1209" y="-212" type="curve" smooth="yes"/>
      <point x="1209" y="1447" type="line"/>
      <point x="1087" y="1447" type="line"/>
      <point x="1087" y="80" type="line"/>
      <point x="444" y="1447" type="line"/>
      <point x="232" y="1447" type="line"/>
      <point x="232" y="0" type="line"/>
      <point x="353" y="0" type="line"/>
      <point x="353" y="1369" type="line"/>
      <point x="1084" y="-157" type="line"/>
      <point x="1082" y="-156"/>
      <point x="1087" y="-177"/>
      <point x="1087" y="-184" type="curve" smooth="yes"/>
      <point x="1087" y="-256"/>
      <point x="1077" y="-280"/>
      <point x="1016" y="-280" type="curve" smooth="yes"/>
      <point x="942" y="-280" type="line"/>
      <point x="942" y="-379" type="line"/>
    </contour>
  </outline>
</glyph>
<glyph name="eng" format="2">
  <advance width="1156"/>
  <unicode hex="014B"/>
  <outline>
    <contour>
      <point x="727" y="-379" type="line" smooth="yes"/>
      <point x="918" y="-379"/>
      <point x="1001" y="-291"/>
      <point x="1001" y="-88" type="curve" smooth="yes"/>
      <point x="1001" y="656" type="line" smooth="yes"/>
      <point x="1001" y="887"/>
      <point x="904" y="1084"/>
      <point x="648" y="1084" type="curve" smooth="yes"/>
      <point x="505" y="1084"/>
      <point x="375" y="1004"/>
      <point x="304" y="884" type="curve"/>
      <point x="304" y="1064" type="line"/>
      <point x="192" y="1064" type="line"/>
      <point x="192" y="9" type="line"/>
      <point x="304" y="9" type="line"/>
      <point x="304" y="623" type="line" smooth="yes"/>
      <point x="304" y="807"/>
      <point x="458" y="970"/>
      <point x="642" y="970" type="curve" smooth="yes"/>
      <point x="836" y="970"/>
      <point x="888" y="818"/>
      <point x="888" y="651" type="curve" smooth="yes"/>
      <point x="888" y="-130" type="line" smooth="yes"/>
      <point x="888" y="-231"/>
      <point x="838" y="-281"/>
      <point x="763" y="-281" type="curve" smooth="yes"/>
      <point x="672" y="-281" type="line"/>
      <point x="672" y="-379" type="line"/>
    </contour>
  </outline>
</glyph>
<glyph name="OE" format="2">
  <advance width="2300"/>
  <unicode hex="0152"/>
  <outline>
    <contour>
      <point x="777" y="-20" type="curve" smooth="yes"/>
      <point x="1024" y="-20"/>
      <point x="1199" y="71"/>
      <point x="1286" y="320" type="curve"/>
      <point x="1286" y="0" type="line"/>
      <point x="2188" y="0" type="line"/>
      <point x="2188" y="104" type="line"/>
      <point x="1404" y="104" type="line"/>
      <point x="1404" y="680" type="line"/>
      <point x="2086" y="680" type="line"/>
      <point x="2086" y="768" type="line"/>
      <point x="1404" y="768" type="line"/>
      <point x="1404" y="1352" type="line"/>
      <point x="2188" y="1352" type="line"/>
      <point x="2188" y="1447" type="line"/>
      <point x="1286" y="1447" type="line"/>
      <point x="1286" y="1129" type="line"/>
      <point x="1191" y="1375"/>
      <point x="1024" y="1468"/>
      <point x="777" y="1468" type="curve" smooth="yes"/>
      <point x="339" y="1468"/>
      <point x="147" y="1110"/>
      <point x="147" y="724" type="curve" smooth="yes"/>
      <point x="147" y="338"/>
      <point x="338" y="-20"/>
    </contour>
    <contour>
      <point x="777" y="80" type="curve" smooth="yes"/>
      <point x="398" y="80"/>
      <point x="264" y="404"/>
      <point x="264" y="724" type="curve" smooth="yes"/>
      <point x="264" y="1044"/>
      <point x="400" y="1364"/>
      <point x="777" y="1364" type="curve" smooth="yes"/>
      <point x="1155" y="1364"/>
      <point x="1286" y="1038"/>
      <point x="1286" y="724" type="curve" smooth="yes"/>
      <point x="1286" y="414"/>
      <point x="1157" y="80"/>
    </contour>
  </outline>
</glyph>
<glyph name="oe" format="2">
  <advance width="1889"/>
  <unicode hex="0153"/>
  <outline>
    <contour>
      <point x="576" y="-20" type="curve" smooth="yes"/>
      <point x="785" y="-20"/>
      <point x="906" y="80"/>
      <point x="1008" y="275" type="curve"/>
      <point x="976" y="275" type="line"/>
      <point x="1049" y="77"/>
      <point x="1188" y="-12"/>
      <point x="1383" y="-12" type="curve" smooth="yes"/>
      <point x="1537" y="-12"/>
      <point x="1653" y="25"/>
      <point x="1763" y="134" type="curve"/>
      <point x="1694" y="188" type="line"/>
      <point x="1606" y="96"/>
      <point x="1503" y="76"/>
      <point x="1382" y="76" type="curve" smooth="yes"/>
      <point x="1142" y="76"/>
      <point x="1044" y="282"/>
      <point x="1048" y="496" type="curve"/>
      <point x="1787" y="496" type="line"/>
      <point x="1789" y="504"/>
      <point x="1789" y="507"/>
      <point x="1789" y="508" type="curve" smooth="yes"/>
      <point x="1789" y="903"/>
      <point x="1662" y="1077"/>
      <point x="1367" y="1077" type="curve" smooth="yes"/>
      <point x="1171" y="1077"/>
      <point x="1045" y="973"/>
      <point x="978" y="783" type="curve"/>
      <point x="1006" y="785" type="line"/>
      <point x="911" y="971"/>
      <point x="784" y="1077"/>
      <point x="579" y="1077" type="curve" smooth="yes"/>
      <point x="282" y="1077"/>
      <point x="98" y="799"/>
      <point x="98" y="527" type="curve" smooth="yes"/>
      <point x="98" y="256"/>
      <point x="278" y="-20"/>
    </contour>
    <contour>
      <point x="573" y="86" type="curve" smooth="yes"/>
      <point x="325" y="86"/>
      <point x="219" y="320"/>
      <point x="219" y="527" type="curve" smooth="yes"/>
      <point x="219" y="739"/>
      <point x="328" y="971"/>
      <point x="578" y="971" type="curve" smooth="yes"/>
      <point x="839" y="971"/>
      <point x="940" y="747"/>
      <point x="940" y="527" type="curve" smooth="yes"/>
      <point x="940" y="301"/>
      <point x="838" y="86"/>
    </contour>
    <contour>
      <point x="1692" y="596" type="curve"/>
      <point x="1048" y="596" type="line"/>
      <point x="1056" y="788"/>
      <point x="1143" y="980"/>
      <point x="1368" y="980" type="curve" smooth="yes"/>
      <point x="1596" y="980"/>
      <point x="1696" y="804"/>
    </contour>
  </outline>
</glyph>
<glyph name="tcaron" format="2">
  <advance width="678"/>
  <unicode hex="0165"/>
  <outline>
    <component base="t"/>
    <contour>
      <point x="562" y="1123" type="line"/>
      <point x="779" y="1451" type="line"/>
      <point x="587" y="1451" type="line"/>
      <point x="476" y="1123" type="line"/>
    </contour>
  </outline>
</glyph>
<glyph name="Tbar" format="2">
  <advance width="1290"/>
  <unicode hex="0166"/>
  <outline>
    <contour>
      <point x="706" y="0" type="line"/>
      <point x="706" y="674" type="line"/>
      <point x="975" y="674" type="line"/>
      <point x="975" y="769" type="line"/>
      <point x="706" y="769" type="line"/>
      <point x="706" y="1359" type="line"/>
      <point x="1210" y="1359" type="line"/>
      <point x="1210" y="1447" type="line"/>
      <point x="81" y="1447" type="line"/>
      <point x="81" y="1359" type="line"/>
      <point x="584" y="1359" type="line"/>
      <point x="584" y="769" type="line"/>
      <point x="327" y="769" type="line"/>
      <point x="327" y="674" type="line"/>
      <point x="584" y="674" type="line"/>
      <point x="584" y="0" type="line"/>
    </contour>
  </outline>
</glyph>
<glyph name="tbar" format="2">
  <advance width="676"/>
  <unicode hex="0167"/>
  <outline>
    <component base="t"/>
    <contour>
      <point x="-14" y="579" type="line"/>
      <point x="-14" y="483" type="line"/>
      <point x="655" y="483" type="line"/>
      <point x="655" y="579" type="line"/>
    </contour>
  </outline>
</glyph>
<glyph name="longs" format="2">
  <advance width="711"/>
  <unicode hex="017F"/>
  <outline>
    <contour>
      <point x="235" y="0" type="line"/>
      <point x="339" y="0" type="line" name=".av01"/>
      <point x="339" y="1210" type="line" smooth="yes" name=".dh01"/>
      <point x="339" y="1313"/>
      <point x="390" y="1383"/>
      <point x="502" y="1383" type="curve" smooth="yes" name=".dv01"/>
      <point x="551" y="1383"/>
      <point x="599" y="1368"/>
      <point x="643" y="1352" type="curve"/>
      <point x="662" y="1432" type="line"/>
      <point x="611" y="1455"/>
      <point x="555" y="1468"/>
      <point x="498" y="1468" type="curve" smooth="yes" name=".dv02"/>
      <point x="350" y="1468"/>
      <point x="235" y="1393"/>
      <point x="235" y="1235" type="curve" smooth="yes" name=".sh01"/>
      <point x="235" y="1062" type="line"/>
      <point x="41" y="1062" type="line" name=".dv04"/>
      <point x="41" y="977" type="line" name=".dv03"/>
      <point x="235" y="977" type="line" name=".sh02"/>
    </contour>
  </outline>
</glyph>
<glyph name="florin" format="2">
  <advance width="980"/>
  <unicode hex="0192"/>
  <outline>
    <contour>
      <point x="141" y="-371" type="curve"/>
      <point x="141" y="-469" type="line"/>
      <point x="422" y="-469"/>
      <point x="605" y="-304"/>
      <point x="605" y="-9" type="curve" smooth="yes"/>
      <point x="605" y="963" type="line"/>
      <point x="877" y="963" type="line"/>
      <point x="877" y="1064" type="line"/>
      <point x="605" y="1064" type="line"/>
      <point x="605" y="1232" type="line" smooth="yes"/>
      <point x="605" y="1326"/>
      <point x="673" y="1384"/>
      <point x="765" y="1384" type="curve" smooth="yes"/>
      <point x="803" y="1384"/>
      <point x="891" y="1368"/>
      <point x="929" y="1346" type="curve"/>
      <point x="965" y="1432" type="line"/>
      <point x="908" y="1469"/>
      <point x="843" y="1485"/>
      <point x="776" y="1485" type="curve" smooth="yes"/>
      <point x="631" y="1485"/>
      <point x="509" y="1379"/>
      <point x="509" y="1231" type="curve" smooth="yes"/>
      <point x="509" y="1064" type="line"/>
      <point x="319" y="1064" type="line"/>
      <point x="319" y="963" type="line"/>
      <point x="509" y="963" type="line"/>
      <point x="509" y="-15" type="line" smooth="yes"/>
      <point x="509" y="-269"/>
      <point x="375" y="-371"/>
    </contour>
  </outline>
</glyph>
<glyph name="uni01C3" format="2">
  <advance width="674"/>
  <unicode hex="01C3"/>
  <outline>
    <contour>
      <point x="383" y="368" type="line"/>
      <point x="413" y="1469" type="line"/>
      <point x="274" y="1469" type="line"/>
      <point x="304" y="368" type="line"/>
    </contour>
    <contour>
      <point x="425" y="0" type="line"/>
      <point x="425" y="162" type="line"/>
      <point x="262" y="162" type="line"/>
      <point x="262" y="0" type="line"/>
    </contour>
  </outline>
</glyph>
<glyph name="uni01C6" format="2">
  <advance width="2118"/>
  <unicode hex="01C6"/>
  <outline>
    <component base="a.cv01" xOffset="21"/>
    <component base="z" xOffset="1166"/>
    <component base="uni030C" xOffset="2039"/>
    <contour>
      <point x="875" y="1000" type="line"/>
      <point x="982" y="1000" type="line"/>
      <point x="982" y="1448" type="line"/>
      <point x="875" y="1448" type="line"/>
    </contour>
  </outline>
</glyph>
<glyph name="uni01DD" format="2">
  <advance width="1074"/>
  <unicode hex="01DD"/>
  <outline>
    <contour>
      <point x="530" y="-12" type="curve" smooth="yes"/>
      <point x="787" y="-12"/>
      <point x="965" y="208"/>
      <point x="965" y="539" type="curve" smooth="yes"/>
      <point x="965" y="864"/>
      <point x="775" y="1077"/>
      <point x="516" y="1077" type="curve" smooth="yes"/>
      <point x="344" y="1077"/>
      <point x="224" y="1031"/>
      <point x="128" y="922" type="curve"/>
      <point x="198" y="868" type="line"/>
      <point x="275" y="950"/>
      <point x="371" y="989"/>
      <point x="515" y="989" type="curve" smooth="yes"/>
      <point x="718" y="989"/>
      <point x="856" y="822"/>
      <point x="853" y="568" type="curve"/>
      <point x="110" y="568" type="line"/>
      <point x="109" y="550"/>
      <point x="109" y="529"/>
      <point x="109" y="520" type="curve" smooth="yes"/>
      <point x="109" y="174"/>
      <point x="267" y="-12"/>
    </contour>
    <contour>
      <point x="530" y="86" type="curve" smooth="yes"/>
      <point x="323" y="86"/>
      <point x="201" y="230"/>
      <point x="204" y="469" type="curve"/>
      <point x="853" y="469" type="line"/>
      <point x="858" y="237"/>
      <point x="725" y="86"/>
    </contour>
  </outline>
</glyph>
<glyph name="uni0237" format="2">
  <advance width="511"/>
  <unicode hex="0237"/>
  <anchor x="253" y="1192" name="top"/>
  <outline>
    <contour>
      <point x="-65" y="-323" type="curve"/>
      <point x="-89" y="-420" type="line"/>
      <point x="-54" y="-434"/>
      <point x="22" y="-450"/>
      <point x="60" y="-450" type="curve" smooth="yes"/>
      <point x="233" y="-450"/>
      <point x="315" y="-338"/>
      <point x="315" y="-172" type="curve" smooth="yes"/>
      <point x="315" y="1064" type="line"/>
      <point x="193" y="1064" type="line"/>
      <point x="193" y="-148" type="line" smooth="yes"/>
      <point x="193" y="-236"/>
      <point x="179" y="-342"/>
      <point x="63" y="-342" type="curve" smooth="yes"/>
      <point x="17" y="-342"/>
      <point x="-24" y="-335"/>
    </contour>
  </outline>
</glyph>
<glyph name="uni0250" format="2">
  <advance width="1058"/>
  <unicode hex="0250"/>
  <outline>
    <contour>
      <point x="545" y="-18" type="curve" smooth="yes"/>
      <point x="709" y="-18"/>
      <point x="833" y="40"/>
      <point x="928" y="173" type="curve"/>
      <point x="852" y="236" type="line"/>
      <point x="775" y="133"/>
      <point x="671" y="76"/>
      <point x="541" y="76" type="curve" smooth="yes"/>
      <point x="296" y="76"/>
      <point x="247" y="265"/>
      <point x="247" y="470" type="curve"/>
      <point x="531" y="470" type="line" smooth="yes"/>
      <point x="726" y="470"/>
      <point x="963" y="519"/>
      <point x="963" y="781" type="curve" smooth="yes"/>
      <point x="963" y="968"/>
      <point x="825" y="1083"/>
      <point x="643" y="1083" type="curve" smooth="yes"/>
      <point x="459" y="1083"/>
      <point x="334" y="1002"/>
      <point x="247" y="838" type="curve"/>
      <point x="244" y="1064" type="line"/>
      <point x="156" y="1064" type="line"/>
      <point x="156" y="407" type="line" smooth="yes"/>
      <point x="156" y="156"/>
      <point x="289" y="-18"/>
    </contour>
    <contour>
      <point x="443" y="561" type="curve" smooth="yes"/>
      <point x="247" y="561" type="line"/>
      <point x="246" y="769"/>
      <point x="404" y="989"/>
      <point x="625" y="989" type="curve" smooth="yes"/>
      <point x="759" y="989"/>
      <point x="851" y="925"/>
      <point x="851" y="783" type="curve" smooth="yes"/>
      <point x="851" y="556"/>
      <point x="608" y="561"/>
    </contour>
  </outline>
</glyph>
<glyph name="uni0254" format="2">
  <advance width="1006"/>
  <unicode hex="0254"/>
  <outline>
    <contour>
      <point x="71" y="242" type="line"/>
      <point x="139" y="68"/>
      <point x="270" y="-20"/>
      <point x="455" y="-20" type="curve" smooth="yes"/>
      <point x="762" y="-20"/>
      <point x="891" y="260"/>
      <point x="891" y="529" type="curve" smooth="yes"/>
      <point x="891" y="797"/>
      <point x="759" y="1081"/>
      <point x="456" y="1081" type="curve" smooth="yes"/>
      <point x="273" y="1081"/>
      <point x="140" y="988"/>
      <point x="71" y="820" type="curve"/>
      <point x="169" y="771" type="line"/>
      <point x="205" y="898"/>
      <point x="327" y="986"/>
      <point x="458" y="986" type="curve" smooth="yes"/>
      <point x="703" y="986"/>
      <point x="779" y="734"/>
      <point x="779" y="530" type="curve" smooth="yes"/>
      <point x="779" y="326"/>
      <point x="703" y="73"/>
      <point x="458" y="73" type="curve" smooth="yes"/>
      <point x="327" y="73"/>
      <point x="202" y="162"/>
      <point x="169" y="289" type="curve"/>
    </contour>
  </outline>
</glyph>
<glyph name="uni0258" format="2">
  <advance width="1071"/>
  <unicode hex="0258"/>
  <outline>
    <contour>
      <point x="512.92" y="-12.288" type="curve" smooth="yes"/>
      <point x="348.056" y="-12.288"/>
      <point x="216.984" y="37.888"/>
      <point x="121.752" y="137.216" type="curve"/>
      <point x="192.408" y="194.56" type="line"/>
      <point x="277.4" y="107.52"/>
      <point x="391.064" y="79.872"/>
      <point x="509.848" y="79.872" type="curve" smooth="yes"/>
      <point x="713.624" y="79.872"/>
      <point x="845.72" y="244.736"/>
      <point x="842.648" y="495.616" type="curve"/>
      <point x="103.32" y="495.616" type="line"/>
      <point x="100.248" y="507.904"/>
      <point x="100.248" y="520.192"/>
      <point x="100.248" y="531.456" type="curve" smooth="yes"/>
      <point x="100.248" y="909.312"/>
      <point x="236.44" y="1084.42"/>
      <point x="525.208" y="1084.42" type="curve" smooth="yes"/>
      <point x="776.088" y="1084.42"/>
      <point x="955.288" y="854.016"/>
      <point x="955.288" y="525.312" type="curve" smooth="yes"/>
      <point x="955.288" y="203.776"/>
      <point x="778.136" y="-12.288"/>
    </contour>
    <contour>
      <point x="842.648" y="595.968" type="line"/>
      <point x="835.48" y="833.536"/>
      <point x="711.576" y="983.04"/>
      <point x="525.208" y="983.04" type="curve" smooth="yes"/>
      <point x="323.48" y="983.04"/>
      <point x="192.408" y="832.512"/>
      <point x="195.48" y="595.968" type="curve"/>
    </contour>
  </outline>
</glyph>
<glyph name="uni02BC" format="2">
  <advance width="571"/>
  <unicode hex="02BC"/>
  <outline>
    <contour>
      <point x="226" y="984" type="line" name=".sv01"/>
      <point x="441" y="1448" type="line" name=".av01"/>
      <point x="280" y="1448" type="line"/>
      <point x="165" y="984" type="line"/>
    </contour>
  </outline>
</glyph>
<glyph name="circumflex" format="2">
  <advance width="796"/>
  <unicode hex="02C6"/>
  <outline>
    <contour>
      <point x="59" y="1192" type="line"/>
      <point x="210" y="1192" type="line"/>
      <point x="398" y="1402" type="line"/>
      <point x="590" y="1192" type="line"/>
      <point x="738" y="1192" type="line"/>
      <point x="398" y="1553" type="line"/>
    </contour>
  </outline>
</glyph>
<glyph name="caron" format="2">
  <advance width="808"/>
  <unicode hex="02C7"/>
  <outline>
    <contour>
      <point x="404" y="1182" type="line"/>
      <point x="742" y="1518" type="line"/>
      <point x="594" y="1518" type="line"/>
      <point x="404" y="1312" type="line"/>
      <point x="214" y="1518" type="line"/>
      <point x="64" y="1518" type="line"/>
    </contour>
  </outline>
</glyph>
<glyph name="uni02D0" format="2">
  <advance width="663"/>
  <unicode hex="02D0"/>
  <outline>
    <contour>
      <point x="356" y="651" type="line"/>
      <point x="551" y="1022" type="line"/>
      <point x="161" y="1022" type="line"/>
    </contour>
    <contour>
      <point x="64" y="0" type="line"/>
      <point x="599" y="-92" type="line"/>
      <point x="404" y="462" type="line"/>
    </contour>
  </outline>
</glyph>
<glyph name="uni02D1" format="2">
  <advance width="518"/>
  <unicode hex="02D1"/>
  <outline>
    <contour>
      <point x="259" y="304" type="line"/>
      <point x="454" y="674" type="line"/>
      <point x="64" y="674" type="line"/>
    </contour>
  </outline>
</glyph>
<glyph name="breve" format="2">
  <advance width="740"/>
  <unicode hex="02D8"/>
  <outline>
    <contour>
      <point x="370" y="1192" type="curve" smooth="yes"/>
      <point x="533" y="1192"/>
      <point x="679" y="1283"/>
      <point x="679" y="1467" type="curve"/>
      <point x="558" y="1467" type="line"/>
      <point x="558" y="1362"/>
      <point x="471" y="1293"/>
      <point x="370" y="1293" type="curve" smooth="yes"/>
      <point x="272" y="1293"/>
      <point x="181" y="1364"/>
      <point x="181" y="1467" type="curve"/>
      <point x="61" y="1467" type="line"/>
      <point x="61" y="1285"/>
      <point x="209" y="1192"/>
    </contour>
  </outline>
</glyph>
<glyph name="dotaccent" format="2">
  <advance width="507"/>
  <unicode hex="02D9"/>
  <outline>
    <contour>
      <point x="184" y="1240" type="line"/>
      <point x="323" y="1240" type="line"/>
      <point x="323" y="1419" type="line"/>
      <point x="184" y="1419" type="line"/>
    </contour>
  </outline>
</glyph>
<glyph name="ring" format="2">
  <advance width="516"/>
  <unicode hex="02DA"/>
  <outline>
    <contour>
      <point x="258" y="1064" type="curve" smooth="yes"/>
      <point x="373" y="1064"/>
      <point x="452" y="1142"/>
      <point x="452" y="1257" type="curve" smooth="yes"/>
      <point x="452" y="1372"/>
      <point x="373" y="1450"/>
      <point x="258" y="1450" type="curve" smooth="yes"/>
      <point x="142" y="1450"/>
      <point x="64" y="1372"/>
      <point x="64" y="1257" type="curve" smooth="yes"/>
      <point x="64" y="1142"/>
      <point x="142" y="1064"/>
    </contour>
    <contour>
      <point x="258" y="1156" type="curve" smooth="yes"/>
      <point x="200" y="1156"/>
      <point x="156" y="1200"/>
      <point x="156" y="1257" type="curve" smooth="yes"/>
      <point x="156" y="1315"/>
      <point x="200" y="1359"/>
      <point x="258" y="1359" type="curve" smooth="yes"/>
      <point x="315" y="1359"/>
      <point x="360" y="1315"/>
      <point x="360" y="1257" type="curve" smooth="yes"/>
      <point x="360" y="1200"/>
      <point x="315" y="1156"/>
    </contour>
  </outline>
</glyph>
<glyph name="ogonek" format="2">
  <advance width="613"/>
  <unicode hex="02DB"/>
  <outline>
    <contour>
      <point x="345" y="0" type="line"/>
      <point x="194" y="-64"/>
      <point x="120" y="-158"/>
      <point x="120" y="-282" type="curve" smooth="yes"/>
      <point x="120" y="-379"/>
      <point x="190" y="-463"/>
      <point x="303" y="-463" type="curve" smooth="yes"/>
      <point x="413" y="-463"/>
      <point x="474" y="-428"/>
      <point x="523" y="-354" type="curve"/>
      <point x="443" y="-299" type="line"/>
      <point x="410" y="-344"/>
      <point x="365" y="-365"/>
      <point x="310" y="-365" type="curve" smooth="yes"/>
      <point x="240" y="-365"/>
      <point x="212" y="-301"/>
      <point x="212" y="-245" type="curve" smooth="yes"/>
      <point x="212" y="-131"/>
      <point x="357" y="-34"/>
      <point x="452" y="0" type="curve"/>
    </contour>
  </outline>
</glyph>
<glyph name="tilde" format="2">
  <advance width="712"/>
  <unicode hex="02DC"/>
  <outline>
    <contour>
      <point x="64.272" y="1206.92" type="line"/>
      <point x="147.216" y="1206.92" type="line"/>
      <point x="147.216" y="1270.41" type="line" smooth="yes"/>
      <point x="147.216" y="1317.51"/>
      <point x="171.792" y="1346.18"/>
      <point x="215.824" y="1346.18" type="curve" smooth="yes"/>
      <point x="258.832" y="1346.18"/>
      <point x="291.6" y="1318.54"/>
      <point x="325.392" y="1286.79" type="curve"/>
      <point x="335.632" y="1276.55" type="line"/>
      <point x="385.808" y="1351.3" type="line"/>
      <point x="375.568" y="1361.54" type="line" smooth="yes"/>
      <point x="316.176" y="1419.91"/>
      <point x="274.192" y="1443.46"/>
      <point x="208.656" y="1443.46" type="curve" smooth="yes"/>
      <point x="125.712" y="1443.46"/>
      <point x="64.272" y="1381"/>
      <point x="64.272" y="1279.62" type="curve" smooth="yes"/>
    </contour>
    <contour>
      <point x="647.728" y="1429.08" type="line"/>
      <point x="564.784" y="1429.08" type="line"/>
      <point x="564.784" y="1365.59" type="line" smooth="yes"/>
      <point x="564.784" y="1318.49"/>
      <point x="540.208" y="1289.82"/>
      <point x="496.176" y="1289.82" type="curve" smooth="yes"/>
      <point x="453.168" y="1289.82"/>
      <point x="420.4" y="1317.46"/>
      <point x="386.608" y="1349.21" type="curve"/>
      <point x="376.368" y="1359.45" type="line"/>
      <point x="326.192" y="1284.7" type="line"/>
      <point x="336.432" y="1274.46" type="line" smooth="yes"/>
      <point x="395.824" y="1216.09"/>
      <point x="437.808" y="1192.54"/>
      <point x="503.344" y="1192.54" type="curve" smooth="yes"/>
      <point x="586.288" y="1192.54"/>
      <point x="647.728" y="1255"/>
      <point x="647.728" y="1356.38" type="curve" smooth="yes"/>
    </contour>
  </outline>
</glyph>
<glyph name="hungarumlaut" format="2">
  <advance width="830"/>
  <unicode hex="02DD"/>
  <outline>
    <contour>
      <point x="174" y="1192" type="line"/>
      <point x="441" y="1482" type="line"/>
      <point x="278" y="1482" type="line"/>
      <point x="61" y="1192" type="line"/>
    </contour>
    <contour>
      <point x="502" y="1192" type="line"/>
      <point x="769" y="1482" type="line"/>
      <point x="606" y="1482" type="line"/>
      <point x="389" y="1192" type="line"/>
    </contour>
  </outline>
</glyph>
<glyph name="uni02F5" format="2">
  <advance width="1097"/>
  <unicode hex="02F5"/>
  <outline>
    <contour>
      <point x="547" y="653" type="line"/>
      <point x="333" y="928" type="line"/>
      <point x="167" y="928" type="line"/>
      <point x="414" y="653" type="line"/>
    </contour>
    <contour>
      <point x="932" y="653" type="line"/>
      <point x="719" y="928" type="line"/>
      <point x="546" y="928" type="line"/>
      <point x="800" y="653" type="line"/>
    </contour>
  </outline>
</glyph>
<glyph name="uni02F6" format="2">
  <advance width="1097"/>
  <unicode hex="02F6"/>
  <outline>
    <contour>
      <point x="302" y="653" type="line"/>
      <point x="554" y="928" type="line"/>
      <point x="383" y="928" type="line"/>
      <point x="168" y="653" type="line"/>
    </contour>
    <contour>
      <point x="687" y="653" type="line"/>
      <point x="934" y="928" type="line"/>
      <point x="769" y="928" type="line"/>
      <point x="555" y="653" type="line"/>
    </contour>
  </outline>
</glyph>
<glyph name="gravecomb" format="2">
  <unicode hex="0300"/>
  <anchor x="-154" y="1192" name="_top"/>
  <outline>
    <contour>
      <point x="-88" y="1192" type="line"/>
      <point x="-305" y="1483" type="line"/>
      <point x="-468" y="1483" type="line"/>
      <point x="-213" y="1192" type="line"/>
    </contour>
  </outline>
</glyph>
<glyph name="acutecomb" format="2">
  <unicode hex="0301"/>
  <anchor x="-390" y="1192" name="_top"/>
  <outline>
    <contour>
      <point x="-332" y="1192" type="line"/>
      <point x="-77" y="1482" type="line"/>
      <point x="-240" y="1482" type="line"/>
      <point x="-457" y="1192" type="line"/>
    </contour>
  </outline>
</glyph>
<glyph name="uni0302" format="2">
  <unicode hex="0302"/>
  <anchor x="-395" y="1225" name="_top"/>
  <outline>
    <contour>
      <point x="-734" y="1192" type="line"/>
      <point x="-583" y="1192" type="line"/>
      <point x="-395" y="1402" type="line"/>
      <point x="-203" y="1192" type="line"/>
      <point x="-55" y="1192" type="line"/>
      <point x="-395" y="1553" type="line"/>
    </contour>
  </outline>
</glyph>
<glyph name="tildecomb" format="2">
  <unicode hex="0303"/>
  <anchor x="-438" y="1192" name="_top"/>
  <outline>
    <contour>
      <point x="-729.728" y="1206.92" type="line"/>
      <point x="-646.784" y="1206.92" type="line"/>
      <point x="-646.784" y="1270.41" type="line" smooth="yes"/>
      <point x="-646.784" y="1317.51"/>
      <point x="-622.208" y="1346.18"/>
      <point x="-578.176" y="1346.18" type="curve" smooth="yes"/>
      <point x="-535.168" y="1346.18"/>
      <point x="-502.4" y="1318.54"/>
      <point x="-468.608" y="1286.79" type="curve"/>
      <point x="-458.368" y="1276.55" type="line"/>
      <point x="-408.192" y="1351.3" type="line"/>
      <point x="-418.432" y="1361.54" type="line" smooth="yes"/>
      <point x="-477.824" y="1419.91"/>
      <point x="-519.808" y="1443.46"/>
      <point x="-585.344" y="1443.46" type="curve" smooth="yes"/>
      <point x="-668.288" y="1443.46"/>
      <point x="-729.728" y="1381"/>
      <point x="-729.728" y="1279.62" type="curve" smooth="yes"/>
    </contour>
    <contour>
      <point x="-146.272" y="1430.08" type="line"/>
      <point x="-229.216" y="1430.08" type="line"/>
      <point x="-229.216" y="1366.59" type="line" smooth="yes"/>
      <point x="-229.216" y="1319.49"/>
      <point x="-253.792" y="1290.82"/>
      <point x="-297.824" y="1290.82" type="curve" smooth="yes"/>
      <point x="-340.832" y="1290.82"/>
      <point x="-373.6" y="1318.46"/>
      <point x="-407.392" y="1350.21" type="curve"/>
      <point x="-417.632" y="1360.45" type="line"/>
      <point x="-467.808" y="1285.7" type="line"/>
      <point x="-457.568" y="1275.46" type="line" smooth="yes"/>
      <point x="-398.176" y="1217.09"/>
      <point x="-356.192" y="1193.54"/>
      <point x="-290.656" y="1193.54" type="curve" smooth="yes"/>
      <point x="-207.712" y="1193.54"/>
      <point x="-146.272" y="1256"/>
      <point x="-146.272" y="1357.38" type="curve" smooth="yes"/>
    </contour>
  </outline>
</glyph>
<glyph name="uni0304" format="2">
  <unicode hex="0304"/>
  <anchor x="-441" y="1192" name="_top"/>
  <outline>
    <contour>
      <point x="-714" y="1269" type="line"/>
      <point x="-171" y="1269" type="line"/>
      <point x="-171" y="1379" type="line"/>
      <point x="-714" y="1379" type="line"/>
    </contour>
  </outline>
</glyph>
<glyph name="uni0307" format="2">
  <unicode hex="0307"/>
  <anchor x="-244" y="1192" name="_top"/>
  <outline>
    <contour>
      <point x="-312" y="1240" type="line"/>
      <point x="-173" y="1240" type="line"/>
      <point x="-173" y="1419" type="line"/>
      <point x="-312" y="1419" type="line"/>
    </contour>
  </outline>
</glyph>
<glyph name="uni0308" format="2">
  <unicode hex="0308"/>
  <anchor x="-425" y="1192" name="_top"/>
  <outline>
    <contour>
      <point x="-671" y="1241" type="line"/>
      <point x="-518" y="1241" type="line"/>
      <point x="-518" y="1419" type="line"/>
      <point x="-671" y="1419" type="line"/>
    </contour>
    <contour>
      <point x="-327" y="1241" type="line"/>
      <point x="-174" y="1241" type="line"/>
      <point x="-174" y="1419" type="line"/>
      <point x="-327" y="1419" type="line"/>
    </contour>
  </outline>
</glyph>
<glyph name="hookabovecomb" format="2">
  <unicode hex="0309"/>
  <anchor x="-325" y="1110" name="_top"/>
  <outline>
    <contour>
      <point x="-363" y="1110" type="line" name=".av01"/>
      <point x="-182" y="1143"/>
      <point x="-114" y="1196"/>
      <point x="-114" y="1305" type="curve" smooth="yes" name=".dh01"/>
      <point x="-114" y="1435"/>
      <point x="-233" y="1510"/>
      <point x="-435" y="1510" type="curve" smooth="yes"/>
      <point x="-443" y="1510" type="line" name=".dv02"/>
      <point x="-443" y="1428" type="line" name=".dv01"/>
      <point x="-286" y="1428"/>
      <point x="-207" y="1384"/>
      <point x="-207" y="1296" type="curve" smooth="yes" name=".sh01"/>
      <point x="-207" y="1226"/>
      <point x="-263" y="1185"/>
      <point x="-378" y="1168" type="curve"/>
    </contour>
  </outline>
</glyph>
<glyph name="uni030A" format="2">
  <unicode hex="030A"/>
  <anchor x="-319" y="1257" name="_center"/>
  <outline>
    <contour>
      <point x="-318" y="1064" type="curve" smooth="yes"/>
      <point x="-203" y="1064"/>
      <point x="-124" y="1142"/>
      <point x="-124" y="1257" type="curve" smooth="yes"/>
      <point x="-124" y="1372"/>
      <point x="-203" y="1450"/>
      <point x="-318" y="1450" type="curve" smooth="yes"/>
      <point x="-434" y="1450"/>
      <point x="-512" y="1372"/>
      <point x="-512" y="1257" type="curve" smooth="yes"/>
      <point x="-512" y="1142"/>
      <point x="-434" y="1064"/>
    </contour>
    <contour>
      <point x="-318" y="1156" type="curve" smooth="yes"/>
      <point x="-376" y="1156"/>
      <point x="-420" y="1200"/>
      <point x="-420" y="1257" type="curve" smooth="yes"/>
      <point x="-420" y="1315"/>
      <point x="-376" y="1359"/>
      <point x="-318" y="1359" type="curve" smooth="yes"/>
      <point x="-261" y="1359"/>
      <point x="-216" y="1315"/>
      <point x="-216" y="1257" type="curve" smooth="yes"/>
      <point x="-216" y="1200"/>
      <point x="-261" y="1156"/>
    </contour>
  </outline>
</glyph>
<glyph name="uni030B" format="2">
  <unicode hex="030B"/>
  <anchor x="-497" y="1192" name="_top"/>
  <outline>
    <contour>
      <point x="-676" y="1192" type="line"/>
      <point x="-409" y="1482" type="line"/>
      <point x="-572" y="1482" type="line"/>
      <point x="-789" y="1192" type="line"/>
    </contour>
    <contour>
      <point x="-348" y="1192" type="line"/>
      <point x="-81" y="1482" type="line"/>
      <point x="-244" y="1482" type="line"/>
      <point x="-461" y="1192" type="line"/>
    </contour>
  </outline>
</glyph>
<glyph name="uni030C" format="2">
  <unicode hex="030C"/>
  <outline>
    <contour>
      <point x="-394.24" y="1181.7" type="line"/>
      <point x="-56.32" y="1517.57" type="line"/>
      <point x="-203.776" y="1517.57" type="line"/>
      <point x="-394.24" y="1311.74" type="line"/>
      <point x="-583.68" y="1517.57" type="line"/>
      <point x="-733.184" y="1517.57" type="line"/>
    </contour>
  </outline>
</glyph>
<glyph name="uni030F" format="2">
  <unicode hex="030F"/>
  <outline>
    <contour>
      <point x="-413" y="1201" type="line"/>
      <point x="-629" y="1483" type="line"/>
      <point x="-803" y="1483" type="line"/>
      <point x="-548" y="1201" type="line"/>
    </contour>
    <contour>
      <point x="-84" y="1201" type="line"/>
      <point x="-300" y="1483" type="line"/>
      <point x="-480" y="1483" type="line"/>
      <point x="-220" y="1201" type="line"/>
    </contour>
  </outline>
</glyph>
<glyph name="uni0312" format="2">
  <unicode hex="0312"/>
  <outline>
    <contour>
      <point x="-247" y="1192" type="line"/>
      <point x="-128" y="1488" type="line"/>
      <point x="-218" y="1488" type="line"/>
      <point x="-440" y="1192" type="line"/>
    </contour>
  </outline>
</glyph>
<glyph name="uni031B" format="2">
  <advance width="8"/>
  <unicode hex="031B"/>
  <anchor x="-132" y="1448" name="_horn"/>
  <outline>
    <contour>
      <point x="-413" y="1015" type="line"/>
      <point x="-249" y="1015"/>
      <point x="-132" y="1112"/>
      <point x="-132" y="1247" type="curve" smooth="yes"/>
      <point x="-132" y="1448" type="line"/>
      <point x="-220" y="1448" type="line"/>
      <point x="-220" y="1270" type="line" smooth="yes"/>
      <point x="-220" y="1150"/>
      <point x="-278" y="1100"/>
      <point x="-413" y="1100" type="curve"/>
    </contour>
  </outline>
</glyph>
<glyph name="dotbelowcomb" format="2">
  <unicode hex="0323"/>
  <anchor x="-246" y="-150" name="_bottom"/>
  <outline>
    <contour>
      <point x="-316" y="-329" type="line"/>
      <point x="-177" y="-329" type="line"/>
      <point x="-177" y="-150" type="line"/>
      <point x="-316" y="-150" type="line"/>
    </contour>
  </outline>
</glyph>
<glyph name="uni0326" format="2">
  <unicode hex="0326"/>
  <outline>
    <contour>
      <point x="-400" y="-452" type="line"/>
      <point x="-309" y="-452" type="line"/>
      <point x="-86" y="-121" type="line"/>
      <point x="-281" y="-121" type="line"/>
    </contour>
  </outline>
</glyph>
<glyph name="uni0327" format="2">
  <unicode hex="0327"/>
  <anchor x="-302" y="-0" name="_cedilla"/>
  <outline>
    <contour>
      <point x="-341" y="0" type="line"/>
      <point x="-439" y="-187" type="line"/>
      <point x="-343" y="-187" type="line" smooth="yes"/>
      <point x="-250" y="-187"/>
      <point x="-202" y="-241"/>
      <point x="-202" y="-314" type="curve" smooth="yes"/>
      <point x="-202" y="-376"/>
      <point x="-242" y="-424"/>
      <point x="-292" y="-424" type="curve" smooth="yes"/>
      <point x="-356" y="-424"/>
      <point x="-401" y="-390"/>
      <point x="-412" y="-348" type="curve"/>
      <point x="-495" y="-388" type="line"/>
      <point x="-471" y="-457"/>
      <point x="-394" y="-510"/>
      <point x="-301" y="-510" type="curve" smooth="yes"/>
      <point x="-186" y="-510"/>
      <point x="-110" y="-429"/>
      <point x="-110" y="-306" type="curve" smooth="yes"/>
      <point x="-110" y="-188"/>
      <point x="-192" y="-134"/>
      <point x="-302" y="-132" type="curve"/>
      <point x="-233" y="0" type="line"/>
    </contour>
  </outline>
</glyph>
<glyph name="uni0328" format="2">
  <unicode hex="0328"/>
  <anchor x="-156" y="-0" name="_ogonek"/>
  <outline>
    <contour>
      <point x="-262" y="0" type="line"/>
      <point x="-413" y="-64"/>
      <point x="-487" y="-158"/>
      <point x="-487" y="-282" type="curve" smooth="yes"/>
      <point x="-487" y="-379"/>
      <point x="-417" y="-463"/>
      <point x="-304" y="-463" type="curve" smooth="yes"/>
      <point x="-194" y="-463"/>
      <point x="-133" y="-428"/>
      <point x="-84" y="-354" type="curve"/>
      <point x="-164" y="-299" type="line"/>
      <point x="-197" y="-344"/>
      <point x="-242" y="-365"/>
      <point x="-297" y="-365" type="curve" smooth="yes"/>
      <point x="-367" y="-365"/>
      <point x="-395" y="-301"/>
      <point x="-395" y="-245" type="curve" smooth="yes"/>
      <point x="-395" y="-131"/>
      <point x="-250" y="-34"/>
      <point x="-155" y="0" type="curve"/>
    </contour>
  </outline>
</glyph>
<glyph name="tonos" format="2">
  <advance width="308"/>
  <unicode hex="0384"/>
  <outline>
    <contour>
      <point x="260" y="1479" type="line"/>
      <point x="139" y="1479" type="line"/>
      <point x="-14" y="1049" type="line"/>
      <point x="76" y="1049" type="line"/>
    </contour>
  </outline>
</glyph>
<glyph name="Gamma" format="2">
  <advance width="1097"/>
  <unicode hex="0393"/>
  <outline>
    <contour>
      <point x="347" y="0" type="line"/>
      <point x="347" y="1354" type="line"/>
      <point x="1018" y="1354" type="line"/>
      <point x="1018" y="1449" type="line"/>
      <point x="232" y="1449" type="line"/>
      <point x="232" y="0" type="line"/>
    </contour>
  </outline>
</glyph>
<glyph name="Delta" format="2">
  <advance width="1473"/>
  <unicode hex="0394"/>
  <outline>
    <contour>
      <point x="148" y="116" type="line"/>
      <point x="156" y="98" type="line"/>
      <point x="736" y="1354" type="line"/>
      <point x="704" y="1354" type="line"/>
      <point x="1293" y="98" type="line"/>
      <point x="1300" y="116" type="line"/>
    </contour>
    <contour>
      <point x="39" y="0" type="line"/>
      <point x="1409" y="0" type="line"/>
      <point x="1409" y="122" type="line"/>
      <point x="789" y="1448" type="line"/>
      <point x="653" y="1448" type="line"/>
      <point x="39" y="122" type="line"/>
    </contour>
  </outline>
</glyph>
<glyph name="Theta" format="2">
  <advance width="1544"/>
  <unicode hex="0398"/>
  <outline>
    <contour>
      <point x="1149" y="669" type="line"/>
      <point x="1149" y="769" type="line"/>
      <point x="393" y="769" type="line"/>
      <point x="393" y="669" type="line"/>
    </contour>
    <contour>
      <point x="788" y="-20" type="curve" smooth="yes"/>
      <point x="981" y="-20"/>
      <point x="1141" y="50"/>
      <point x="1253" y="178" type="curve" smooth="yes"/>
      <point x="1365" y="306"/>
      <point x="1429" y="492"/>
      <point x="1429" y="724" type="curve" smooth="yes"/>
      <point x="1429" y="957"/>
      <point x="1365" y="1143"/>
      <point x="1253" y="1272" type="curve" smooth="yes"/>
      <point x="1141" y="1398"/>
      <point x="981" y="1468"/>
      <point x="788" y="1468" type="curve" smooth="yes"/>
      <point x="594" y="1468"/>
      <point x="434" y="1398"/>
      <point x="323" y="1271" type="curve" smooth="yes"/>
      <point x="210" y="1142"/>
      <point x="147" y="957"/>
      <point x="147" y="724" type="curve" smooth="yes"/>
      <point x="147" y="493"/>
      <point x="210" y="307"/>
      <point x="323" y="178" type="curve" smooth="yes"/>
      <point x="434" y="50"/>
      <point x="594" y="-20"/>
    </contour>
    <contour>
      <point x="788" y="94" type="curve" smooth="yes"/>
      <point x="633" y="94"/>
      <point x="503" y="151"/>
      <point x="411" y="257" type="curve" smooth="yes"/>
      <point x="320" y="364"/>
      <point x="265" y="523"/>
      <point x="265" y="724" type="curve" smooth="yes"/>
      <point x="265" y="926"/>
      <point x="319" y="1082"/>
      <point x="411" y="1190" type="curve" smooth="yes"/>
      <point x="501" y="1298"/>
      <point x="634" y="1354"/>
      <point x="788" y="1354" type="curve" smooth="yes"/>
      <point x="943" y="1354"/>
      <point x="1074" y="1298"/>
      <point x="1166" y="1191" type="curve"/>
      <point x="1257" y="1082"/>
      <point x="1309" y="926"/>
      <point x="1309" y="724" type="curve" smooth="yes"/>
      <point x="1309" y="524"/>
      <point x="1258" y="365"/>
      <point x="1166" y="259" type="curve" smooth="yes"/>
      <point x="1074" y="152"/>
      <point x="944" y="94"/>
    </contour>
  </outline>
</glyph>
<glyph name="Lambda" format="2">
  <advance width="1355"/>
  <unicode hex="039B"/>
  <outline>
    <contour>
      <point x="88" y="0" type="line"/>
      <point x="205" y="0" type="line"/>
      <point x="677" y="1325" type="line"/>
      <point x="1150" y="0" type="line"/>
      <point x="1262" y="0" type="line"/>
      <point x="734" y="1448" type="line"/>
      <point x="619" y="1448" type="line"/>
    </contour>
  </outline>
</glyph>
<glyph name="Sigma" format="2">
  <advance width="1282"/>
  <unicode hex="03A3"/>
  <outline>
    <contour>
      <point x="102" y="0" type="line"/>
      <point x="1180" y="0" type="line"/>
      <point x="1180" y="106" type="line"/>
      <point x="232" y="106" type="line"/>
      <point x="242" y="85" type="line"/>
      <point x="704" y="768" type="line"/>
      <point x="251" y="1360" type="line"/>
      <point x="239" y="1342" type="line"/>
      <point x="1139" y="1342" type="line"/>
      <point x="1139" y="1448" type="line"/>
      <point x="123" y="1448" type="line"/>
      <point x="123" y="1317" type="line"/>
      <point x="576" y="750" type="line"/>
      <point x="574" y="788" type="line"/>
      <point x="102" y="103" type="line"/>
    </contour>
  </outline>
</glyph>
<glyph name="Phi" format="2">
  <advance width="1509"/>
  <unicode hex="03A6"/>
  <outline>
    <contour>
      <point x="683" y="-2" type="line"/>
      <point x="807" y="-2" type="line"/>
      <point x="807" y="1446" type="line"/>
      <point x="683" y="1446" type="line"/>
    </contour>
    <contour>
      <point x="783" y="132" type="line"/>
      <point x="835" y="132" type="line" smooth="yes"/>
      <point x="989" y="132"/>
      <point x="1120" y="172"/>
      <point x="1213" y="270" type="curve" smooth="yes"/>
      <point x="1306" y="369"/>
      <point x="1363" y="526"/>
      <point x="1363" y="765" type="curve" smooth="yes"/>
      <point x="1363" y="973"/>
      <point x="1306" y="1115"/>
      <point x="1215" y="1205" type="curve"/>
      <point x="1121" y="1295"/>
      <point x="990" y="1335"/>
      <point x="836" y="1335" type="curve" smooth="yes"/>
      <point x="783" y="1335" type="line"/>
      <point x="783" y="1220" type="line"/>
      <point x="842" y="1220" type="line" smooth="yes"/>
      <point x="969" y="1220"/>
      <point x="1069" y="1189"/>
      <point x="1139" y="1116" type="curve" smooth="yes"/>
      <point x="1209" y="1044"/>
      <point x="1247" y="930"/>
      <point x="1247" y="768" type="curve" smooth="yes"/>
      <point x="1247" y="576"/>
      <point x="1209" y="445"/>
      <point x="1140" y="363" type="curve" smooth="yes"/>
      <point x="1071" y="282"/>
      <point x="969" y="247"/>
      <point x="842" y="247" type="curve" smooth="yes"/>
      <point x="783" y="247" type="line"/>
    </contour>
    <contour>
      <point x="707" y="132" type="line"/>
      <point x="707" y="247" type="line"/>
      <point x="647" y="247" type="line" smooth="yes"/>
      <point x="530" y="247"/>
      <point x="435" y="284"/>
      <point x="369" y="367" type="curve" smooth="yes"/>
      <point x="302" y="450"/>
      <point x="264" y="579"/>
      <point x="264" y="765" type="curve" smooth="yes"/>
      <point x="264" y="927"/>
      <point x="302" y="1041"/>
      <point x="369" y="1115" type="curve" smooth="yes"/>
      <point x="435" y="1188"/>
      <point x="532" y="1220"/>
      <point x="648" y="1220" type="curve" smooth="yes"/>
      <point x="707" y="1220" type="line"/>
      <point x="707" y="1335" type="line"/>
      <point x="655" y="1335" type="line" smooth="yes"/>
      <point x="510" y="1335"/>
      <point x="383" y="1295"/>
      <point x="292" y="1204" type="curve" smooth="yes"/>
      <point x="202" y="1113"/>
      <point x="148" y="972"/>
      <point x="148" y="765" type="curve" smooth="yes"/>
      <point x="148" y="528"/>
      <point x="202" y="369"/>
      <point x="293" y="271" type="curve"/>
      <point x="382" y="171"/>
      <point x="508" y="132"/>
      <point x="655" y="132" type="curve" smooth="yes"/>
    </contour>
  </outline>
</glyph>
<glyph name="Chi" format="2">
  <advance width="1257"/>
  <unicode hex="03A7"/>
  <outline>
    <contour>
      <point x="1160" y="0" type="line"/>
      <point x="687" y="724" type="line"/>
      <point x="1158" y="1448" type="line"/>
      <point x="1024" y="1448" type="line"/>
      <point x="630" y="827" type="line"/>
      <point x="239" y="1448" type="line"/>
      <point x="98" y="1448" type="line"/>
      <point x="575" y="724" type="line"/>
      <point x="96" y="0" type="line"/>
      <point x="237" y="0" type="line"/>
      <point x="628" y="609" type="line"/>
      <point x="1026" y="0" type="line"/>
    </contour>
  </outline>
</glyph>
<glyph name="Psi" format="2">
  <advance width="1360"/>
  <unicode hex="03A8"/>
  <outline>
    <contour>
      <point x="741" y="0" type="line"/>
      <point x="741" y="615" type="line"/>
      <point x="921" y="632"/>
      <point x="1041" y="693"/>
      <point x="1114" y="803" type="curve" smooth="yes"/>
      <point x="1187" y="912"/>
      <point x="1216" y="1073"/>
      <point x="1216" y="1286" type="curve" smooth="yes"/>
      <point x="1216" y="1448" type="line"/>
      <point x="1092" y="1448" type="line"/>
      <point x="1092" y="1292" type="line" smooth="yes"/>
      <point x="1092" y="1118"/>
      <point x="1071" y="985"/>
      <point x="1014" y="891" type="curve" smooth="yes"/>
      <point x="957" y="798"/>
      <point x="869" y="744"/>
      <point x="741" y="725" type="curve"/>
      <point x="741" y="1448" type="line"/>
      <point x="614" y="1448" type="line"/>
      <point x="614" y="725" type="line"/>
      <point x="474" y="744"/>
      <point x="384" y="798"/>
      <point x="329" y="892" type="curve" smooth="yes"/>
      <point x="273" y="986"/>
      <point x="253" y="1118"/>
      <point x="253" y="1292" type="curve" smooth="yes"/>
      <point x="253" y="1448" type="line"/>
      <point x="131" y="1448" type="line"/>
      <point x="131" y="1286" type="line" smooth="yes"/>
      <point x="131" y="1071"/>
      <point x="160" y="909"/>
      <point x="234" y="800" type="curve" smooth="yes"/>
      <point x="309" y="692"/>
      <point x="430" y="631"/>
      <point x="614" y="615" type="curve"/>
      <point x="614" y="0" type="line"/>
    </contour>
  </outline>
</glyph>
<glyph name="Omega" format="2">
  <advance width="1642"/>
  <unicode hex="03A9"/>
  <outline>
    <contour>
      <point x="71" y="0" type="line"/>
      <point x="707" y="0" type="line"/>
      <point x="672" y="270" type="line"/>
      <point x="552" y="321"/>
      <point x="446" y="385"/>
      <point x="369" y="479" type="curve" smooth="yes"/>
      <point x="293" y="573"/>
      <point x="246" y="693"/>
      <point x="246" y="857" type="curve" smooth="yes"/>
      <point x="246" y="1002"/>
      <point x="305" y="1128"/>
      <point x="406" y="1218" type="curve"/>
      <point x="508" y="1309"/>
      <point x="649" y="1363"/>
      <point x="820" y="1363" type="curve" smooth="yes"/>
      <point x="997" y="1363"/>
      <point x="1139" y="1309"/>
      <point x="1239" y="1221" type="curve"/>
      <point x="1337" y="1132"/>
      <point x="1392" y="1006"/>
      <point x="1392" y="857" type="curve" smooth="yes"/>
      <point x="1392" y="693"/>
      <point x="1347" y="571"/>
      <point x="1269" y="477" type="curve" smooth="yes"/>
      <point x="1192" y="383"/>
      <point x="1087" y="320"/>
      <point x="970" y="269" type="curve"/>
      <point x="935" y="0" type="line"/>
      <point x="1579" y="0" type="line"/>
      <point x="1579" y="126" type="line"/>
      <point x="1083" y="126" type="line"/>
      <point x="1097" y="240" type="line"/>
      <point x="1228" y="287"/>
      <point x="1336" y="361"/>
      <point x="1410" y="465" type="curve"/>
      <point x="1485" y="566"/>
      <point x="1528" y="697"/>
      <point x="1528" y="857" type="curve" smooth="yes"/>
      <point x="1528" y="1031"/>
      <point x="1463" y="1183"/>
      <point x="1342" y="1291" type="curve" smooth="yes"/>
      <point x="1221" y="1400"/>
      <point x="1048" y="1464"/>
      <point x="830" y="1464" type="curve" smooth="yes"/>
      <point x="757" y="1464"/>
      <point x="687" y="1457"/>
      <point x="624" y="1442" type="curve" smooth="yes"/>
      <point x="495" y="1413"/>
      <point x="390" y="1356"/>
      <point x="306" y="1282" type="curve"/>
      <point x="266" y="1244"/>
      <point x="230" y="1204"/>
      <point x="203" y="1158" type="curve"/>
      <point x="146" y="1067"/>
      <point x="117" y="964"/>
      <point x="117" y="857" type="curve" smooth="yes"/>
      <point x="117" y="693"/>
      <point x="156" y="562"/>
      <point x="229" y="462" type="curve" smooth="yes"/>
      <point x="303" y="361"/>
      <point x="409" y="287"/>
      <point x="542" y="240" type="curve"/>
      <point x="552" y="126" type="line"/>
      <point x="71" y="126" type="line"/>
    </contour>
  </outline>
</glyph>
<glyph name="alpha" format="2">
  <advance width="1170"/>
  <unicode hex="03B1"/>
  <outline>
    <contour>
      <point x="985" y="-1" type="line"/>
      <point x="985" y="1064" type="line"/>
      <point x="875" y="1064" type="line"/>
      <point x="875" y="901" type="line"/>
      <point x="834" y="963"/>
      <point x="785" y="1008"/>
      <point x="728" y="1039" type="curve" smooth="yes"/>
      <point x="673" y="1069"/>
      <point x="607" y="1084"/>
      <point x="532" y="1084" type="curve" smooth="yes"/>
      <point x="410" y="1084"/>
      <point x="305" y="1027"/>
      <point x="233" y="931" type="curve" smooth="yes"/>
      <point x="160" y="836"/>
      <point x="119" y="695"/>
      <point x="119" y="531" type="curve" smooth="yes"/>
      <point x="119" y="372"/>
      <point x="160" y="234"/>
      <point x="233" y="136" type="curve" smooth="yes"/>
      <point x="305" y="39"/>
      <point x="406" y="-20"/>
      <point x="524" y="-20" type="curve" smooth="yes"/>
      <point x="683" y="-20"/>
      <point x="788" y="34"/>
      <point x="875" y="163" type="curve"/>
      <point x="875" y="-1" type="line"/>
    </contour>
    <contour>
      <point x="558" y="70" type="curve" smooth="yes"/>
      <point x="460" y="70"/>
      <point x="377" y="117"/>
      <point x="321" y="199" type="curve"/>
      <point x="263" y="279"/>
      <point x="229" y="394"/>
      <point x="229" y="532" type="curve" smooth="yes"/>
      <point x="229" y="670"/>
      <point x="263" y="785"/>
      <point x="321" y="865" type="curve" smooth="yes"/>
      <point x="378" y="943"/>
      <point x="459" y="990"/>
      <point x="558" y="990" type="curve" smooth="yes"/>
      <point x="657" y="990"/>
      <point x="738" y="943"/>
      <point x="796" y="865" type="curve"/>
      <point x="853" y="785"/>
      <point x="886" y="669"/>
      <point x="886" y="532" type="curve" smooth="yes"/>
      <point x="886" y="392"/>
      <point x="852" y="277"/>
      <point x="796" y="195" type="curve" smooth="yes"/>
      <point x="740" y="116"/>
      <point x="657" y="70"/>
    </contour>
  </outline>
</glyph>
